0
SECTION
2
HEADER
999
DXF File Generated by LightWave 3D(TM)
0
ENDSEC
0
SECTION
2
TABLES
0
ENDSEC
0
SECTION
2
BLOCKS
0
ENDSEC
0
SECTION
2
ENTITIES
0
3DFACE
8
0
70
0
10
-0.440000
20
-0.919996
30
-12.113500
11
-0.493204
21
-0.979995
31
-11.743500
12
-0.339613
22
-0.780000
32
-12.203500
13
-0.339613
23
-0.780000
33
-12.203500
0
3DFACE
8
0
70
0
10
-1.996909
20
-0.760000
30
-13.243576
11
-2.020396
21
-0.780000
31
-12.203500
12
-1.860000
22
-0.919996
32
-12.113500
13
-1.860000
23
-0.919996
33
-12.113500
0
3DFACE
8
0
70
0
10
-1.996909
20
-0.760000
30
-13.243576
11
-1.860000
21
-0.919996
31
-12.113500
12
-1.900000
22
-0.820000
32
-13.483500
13
-1.900000
23
-0.820000
33
-13.483500
0
3DFACE
8
0
70
0
10
-1.900000
20
-0.820000
30
-13.483500
11
-1.996881
21
-0.760000
31
-13.433499
12
-1.996909
22
-0.760000
32
-13.243576
13
-1.996909
23
-0.760000
33
-13.243576
0
3DFACE
8
0
70
0
10
-0.440000
20
-0.919996
30
-12.113500
11
-0.339613
21
-0.780000
31
-12.203500
12
-0.303109
22
-0.760000
32
-13.243576
13
-0.303109
23
-0.760000
33
-13.243576
0
3DFACE
8
0
70
0
10
-0.400000
20
-0.820000
30
-13.483500
11
-0.440000
21
-0.919996
31
-12.113500
12
-0.303109
22
-0.760000
32
-13.243576
13
-0.303109
23
-0.760000
33
-13.243576
0
3DFACE
8
0
70
0
10
-0.400000
20
-0.820000
30
-13.483500
11
-0.303109
21
-0.760000
31
-13.243576
12
-0.303109
22
-0.760000
32
-13.433499
13
-0.303109
23
-0.760000
33
-13.433499
0
3DFACE
8
0
70
0
10
-1.806796
20
-0.979995
30
-11.743500
11
-1.860000
21
-0.919996
31
-12.113500
12
-2.020396
22
-0.780000
32
-12.203500
13
-2.020396
23
-0.780000
33
-12.203500
0
3DFACE
8
0
70
0
10
-0.440000
20
-0.919996
30
-12.113500
11
-0.400000
21
-0.820000
31
-13.483500
12
-0.540000
22
-0.839999
32
-13.243500
13
-0.540000
23
-0.839999
33
-13.243500
0
3DFACE
8
0
70
0
10
-1.860000
20
-0.919996
30
-12.113500
11
-1.760000
21
-0.839999
31
-13.243500
12
-1.900000
22
-0.820000
32
-13.483500
13
-1.900000
23
-0.820000
33
-13.483500
0
3DFACE
8
0
70
0
10
-0.400000
20
-0.820000
30
-13.483500
11
-0.512727
21
-0.820000
31
-13.483500
12
-0.540000
22
-0.839999
32
-13.243500
13
-0.540000
23
-0.839999
33
-13.243500
0
3DFACE
8
0
70
0
10
-1.900000
20
-0.820000
30
-13.483500
11
-1.760000
21
-0.839999
31
-13.243500
12
-1.787273
22
-0.820000
32
-13.483500
13
-1.787273
23
-0.820000
33
-13.483500
0
3DFACE
8
0
70
0
10
-0.493204
20
-0.979995
30
-11.743500
11
-0.440000
21
-0.919996
31
-12.113500
12
-1.860000
22
-0.919996
32
-12.113500
13
-1.860000
23
-0.919996
33
-12.113500
0
3DFACE
8
0
70
0
10
-0.512727
20
-0.820000
30
-13.483500
11
-1.787273
21
-0.820000
31
-13.483500
12
-1.760000
22
-0.839999
32
-13.243500
13
-1.760000
23
-0.839999
33
-13.243500
0
3DFACE
8
0
70
0
10
-0.339613
20
-0.780000
30
-12.203500
11
-0.493204
21
-0.979995
31
-11.743500
12
-0.440000
22
-0.919996
32
-12.113500
13
-0.440000
23
-0.919996
33
-12.113500
0
3DFACE
8
0
70
0
10
-1.860000
20
-0.919996
30
-12.113500
11
-2.020396
21
-0.780000
31
-12.203500
12
-1.996909
22
-0.760000
32
-13.243576
13
-1.996909
23
-0.760000
33
-13.243576
0
3DFACE
8
0
70
0
10
-1.900000
20
-0.820000
30
-13.483500
11
-1.860000
21
-0.919996
31
-12.113500
12
-1.996909
22
-0.760000
32
-13.243576
13
-1.996909
23
-0.760000
33
-13.243576
0
3DFACE
8
0
70
0
10
-1.996909
20
-0.760000
30
-13.243576
11
-1.996881
21
-0.760000
31
-13.433499
12
-1.900000
22
-0.820000
32
-13.483500
13
-1.900000
23
-0.820000
33
-13.483500
0
3DFACE
8
0
70
0
10
-0.303109
20
-0.760000
30
-13.243576
11
-0.339613
21
-0.780000
31
-12.203500
12
-0.440000
22
-0.919996
32
-12.113500
13
-0.440000
23
-0.919996
33
-12.113500
0
3DFACE
8
0
70
0
10
-0.303109
20
-0.760000
30
-13.243576
11
-0.440000
21
-0.919996
31
-12.113500
12
-0.400000
22
-0.820000
32
-13.483500
13
-0.400000
23
-0.820000
33
-13.483500
0
3DFACE
8
0
70
0
10
-0.303109
20
-0.760000
30
-13.433499
11
-0.303109
21
-0.760000
31
-13.243576
12
-0.400000
22
-0.820000
32
-13.483500
13
-0.400000
23
-0.820000
33
-13.483500
0
3DFACE
8
0
70
0
10
-2.020396
20
-0.780000
30
-12.203500
11
-1.860000
21
-0.919996
31
-12.113500
12
-1.806796
22
-0.979995
32
-11.743500
13
-1.806796
23
-0.979995
33
-11.743500
0
3DFACE
8
0
70
0
10
-0.540000
20
-0.839999
30
-13.243500
11
-0.400000
21
-0.820000
31
-13.483500
12
-0.440000
22
-0.919996
32
-12.113500
13
-0.440000
23
-0.919996
33
-12.113500
0
3DFACE
8
0
70
0
10
-1.900000
20
-0.820000
30
-13.483500
11
-1.760000
21
-0.839999
31
-13.243500
12
-1.860000
22
-0.919996
32
-12.113500
13
-1.860000
23
-0.919996
33
-12.113500
0
3DFACE
8
0
70
0
10
-0.540000
20
-0.839999
30
-13.243500
11
-0.512727
21
-0.820000
31
-13.483500
12
-0.400000
22
-0.820000
32
-13.483500
13
-0.400000
23
-0.820000
33
-13.483500
0
3DFACE
8
0
70
0
10
-1.787273
20
-0.820000
30
-13.483500
11
-1.760000
21
-0.839999
31
-13.243500
12
-1.900000
22
-0.820000
32
-13.483500
13
-1.900000
23
-0.820000
33
-13.483500
0
3DFACE
8
0
70
0
10
-1.806796
20
-0.979995
30
-11.743500
11
-1.860000
21
-0.919996
31
-12.113500
12
-0.440000
22
-0.919996
32
-12.113500
13
-0.440000
23
-0.919996
33
-12.113500
0
3DFACE
8
0
70
0
10
-0.540000
20
-0.839999
30
-13.243500
11
-1.760000
21
-0.839999
31
-13.243500
12
-1.787273
22
-0.820000
32
-13.483500
13
-1.787273
23
-0.820000
33
-13.483500
0
3DFACE
8
0
70
0
10
-0.493204
20
-0.979995
30
-11.743500
11
-1.860000
21
-0.919996
31
-12.113500
12
-1.806796
22
-0.979995
32
-11.743500
13
-1.806796
23
-0.979995
33
-11.743500
0
3DFACE
8
0
70
0
10
-0.512727
20
-0.820000
30
-13.483500
11
-1.760000
21
-0.839999
31
-13.243500
12
-0.540000
22
-0.839999
32
-13.243500
13
-0.540000
23
-0.839999
33
-13.243500
0
3DFACE
8
0
70
0
10
-1.806796
20
-0.979995
30
-11.743500
11
-0.440000
21
-0.919996
31
-12.113500
12
-0.493204
22
-0.979995
32
-11.743500
13
-0.493204
23
-0.979995
33
-11.743500
0
3DFACE
8
0
70
0
10
-0.540000
20
-0.839999
30
-13.243500
11
-1.787273
21
-0.820000
31
-13.483500
12
-0.512727
22
-0.820000
32
-13.483500
13
-0.512727
23
-0.820000
33
-13.483500
0
3DFACE
8
0
70
0
10
-0.440000
20
0.120000
30
-13.983500
11
-1.860000
21
0.120000
31
-13.983500
12
-1.859970
22
-0.110000
32
-13.983500
13
-1.859970
23
-0.110000
33
-13.983500
0
3DFACE
8
0
70
0
10
-0.350000
20
-0.110000
30
-13.963501
11
-0.350000
21
0.120000
31
-13.963501
12
-0.440000
22
0.120000
32
-13.983500
13
-0.440000
23
0.120000
33
-13.983500
0
3DFACE
8
0
70
0
10
-1.859970
20
-0.110000
30
-13.983500
11
-1.860000
21
0.120000
31
-13.983500
12
-1.950000
22
0.120000
32
-13.963501
13
-1.950000
23
0.120000
33
-13.963501
0
3DFACE
8
0
70
0
10
-0.350000
20
-0.110000
30
-13.963501
11
-0.233333
21
-0.110000
31
-13.883500
12
-0.233333
22
0.120000
32
-13.883500
13
-0.233333
23
0.120000
33
-13.883500
0
3DFACE
8
0
70
0
10
-0.400000
20
-0.820000
30
-13.483500
11
-0.350000
21
-0.110000
31
-13.963501
12
-0.439996
22
-0.110000
32
-13.983500
13
-0.439996
23
-0.110000
33
-13.983500
0
3DFACE
8
0
70
0
10
-0.350000
20
-0.110000
30
-13.963501
11
-0.400000
21
-0.820000
31
-13.483500
12
-0.303109
22
-0.760000
32
-13.433499
13
-0.303109
23
-0.760000
33
-13.433499
0
3DFACE
8
0
70
0
10
-1.950000
20
0.120000
30
-13.963501
11
-2.066633
21
0.120000
31
-13.883500
12
-2.066600
22
-0.110000
32
-13.883500
13
-2.066600
23
-0.110000
33
-13.883500
0
3DFACE
8
0
70
0
10
-1.900000
20
-0.820000
30
-13.483500
11
-1.787273
21
-0.820000
31
-13.483500
12
-1.859970
22
-0.110000
32
-13.983500
13
-1.859970
23
-0.110000
33
-13.983500
0
3DFACE
8
0
70
0
10
-1.950000
20
-0.110000
30
-13.963501
11
-2.066600
21
-0.110000
31
-13.883500
12
-1.996881
22
-0.760000
32
-13.433499
13
-1.996881
23
-0.760000
33
-13.433499
0
3DFACE
8
0
70
0
10
-0.350000
20
0.120000
30
-13.963501
11
-0.350000
21
0.600000
31
-13.823501
12
-0.446818
22
0.600000
32
-13.823501
13
-0.446818
23
0.600000
33
-13.823501
0
3DFACE
8
0
70
0
10
-0.400000
20
1.240000
30
-13.083500
11
-0.311950
21
1.110000
31
-13.043500
12
-0.317483
22
1.160000
32
-12.953501
13
-0.317483
23
1.160000
33
-12.953501
0
3DFACE
8
0
70
0
10
-0.350000
20
0.600000
30
-13.823501
11
-0.350000
21
0.120000
31
-13.963501
12
-0.233333
22
0.120000
32
-13.883500
13
-0.233333
23
0.120000
33
-13.883500
0
3DFACE
8
0
70
0
10
-0.400000
20
1.240000
30
-13.083500
11
-0.350000
21
0.600000
31
-13.823501
12
-0.269034
22
0.550000
32
-13.733500
13
-0.269034
23
0.550000
33
-13.733500
0
3DFACE
8
0
70
0
10
-0.400000
20
1.240000
30
-13.083500
11
-0.530909
21
1.240000
31
-13.083500
12
-0.446818
22
0.600000
32
-13.823501
13
-0.446818
23
0.600000
33
-13.823501
0
3DFACE
8
0
70
0
10
-1.950000
20
0.120000
30
-13.963501
11
-1.860000
21
0.120000
31
-13.983500
12
-1.853182
22
0.600000
32
-13.823501
13
-1.853182
23
0.600000
33
-13.823501
0
3DFACE
8
0
70
0
10
-1.900000
20
1.240000
30
-13.083500
11
-1.982517
21
1.160000
31
-12.953501
12
-1.988050
22
1.110000
32
-13.043500
13
-1.988050
23
1.110000
33
-13.043500
0
3DFACE
8
0
70
0
10
-1.950000
20
0.600000
30
-13.823501
11
-2.030966
21
0.550000
31
-13.733500
12
-2.066633
22
0.120000
32
-13.883500
13
-2.066633
23
0.120000
33
-13.883500
0
3DFACE
8
0
70
0
10
-1.900000
20
1.240000
30
-13.083500
11
-1.988050
21
1.110000
31
-13.043500
12
-2.030966
22
0.550000
32
-13.733500
13
-2.030966
23
0.550000
33
-13.733500
0
3DFACE
8
0
70
0
10
-1.900000
20
1.240000
30
-13.083500
11
-1.950000
21
0.600000
31
-13.823501
12
-1.853182
22
0.600000
32
-13.823501
13
-1.853182
23
0.600000
33
-13.823501
0
3DFACE
8
0
70
0
10
-0.439996
20
-0.110000
30
-13.983500
11
-1.859970
21
-0.110000
31
-13.983500
12
-1.860000
22
0.120000
32
-13.983500
13
-1.860000
23
0.120000
33
-13.983500
0
3DFACE
8
0
70
0
10
-0.439996
20
-0.110000
30
-13.983500
11
-0.440000
21
0.120000
31
-13.983500
12
-0.350000
22
0.120000
32
-13.963501
13
-0.350000
23
0.120000
33
-13.963501
0
3DFACE
8
0
70
0
10
-1.950000
20
-0.110000
30
-13.963501
11
-1.950000
21
0.120000
31
-13.963501
12
-1.860000
22
0.120000
32
-13.983500
13
-1.860000
23
0.120000
33
-13.983500
0
3DFACE
8
0
70
0
10
-0.350000
20
0.120000
30
-13.963501
11
-0.233333
21
0.120000
31
-13.883500
12
-0.233333
22
-0.110000
32
-13.883500
13
-0.233333
23
-0.110000
33
-13.883500
0
3DFACE
8
0
70
0
10
-0.512727
20
-0.820000
30
-13.483500
11
-0.439996
21
-0.110000
31
-13.983500
12
-0.350000
22
-0.110000
32
-13.963501
13
-0.350000
23
-0.110000
33
-13.963501
0
3DFACE
8
0
70
0
10
-0.233333
20
-0.110000
30
-13.883500
11
-0.303109
21
-0.760000
31
-13.433499
12
-0.400000
22
-0.820000
32
-13.483500
13
-0.400000
23
-0.820000
33
-13.483500
0
3DFACE
8
0
70
0
10
-1.950000
20
-0.110000
30
-13.963501
11
-2.066600
21
-0.110000
31
-13.883500
12
-2.066633
22
0.120000
32
-13.883500
13
-2.066633
23
0.120000
33
-13.883500
0
3DFACE
8
0
70
0
10
-1.950000
20
-0.110000
30
-13.963501
11
-1.859970
21
-0.110000
31
-13.983500
12
-1.787273
22
-0.820000
32
-13.483500
13
-1.787273
23
-0.820000
33
-13.483500
0
3DFACE
8
0
70
0
10
-1.900000
20
-0.820000
30
-13.483500
11
-1.996881
21
-0.760000
31
-13.433499
12
-2.066600
22
-0.110000
32
-13.883500
13
-2.066600
23
-0.110000
33
-13.883500
0
3DFACE
8
0
70
0
10
-0.440000
20
0.120000
30
-13.983500
11
-0.446818
21
0.600000
31
-13.823501
12
-0.350000
22
0.600000
32
-13.823501
13
-0.350000
23
0.600000
33
-13.823501
0
3DFACE
8
0
70
0
10
-0.317483
20
1.160000
30
-12.953501
11
-0.311950
21
1.110000
31
-13.043500
12
-0.400000
22
1.240000
32
-13.083500
13
-0.400000
23
1.240000
33
-13.083500
0
3DFACE
8
0
70
0
10
-0.269034
20
0.550000
30
-13.733500
11
-0.233333
21
0.120000
31
-13.883500
12
-0.350000
22
0.120000
32
-13.963501
13
-0.350000
23
0.120000
33
-13.963501
0
3DFACE
8
0
70
0
10
-0.311950
20
1.110000
30
-13.043500
11
-0.269034
21
0.550000
31
-13.733500
12
-0.350000
22
0.600000
32
-13.823501
13
-0.350000
23
0.600000
33
-13.823501
0
3DFACE
8
0
70
0
10
-0.350000
20
0.600000
30
-13.823501
11
-0.446818
21
0.600000
31
-13.823501
12
-0.530909
22
1.240000
32
-13.083500
13
-0.530909
23
1.240000
33
-13.083500
0
3DFACE
8
0
70
0
10
-1.950000
20
0.600000
30
-13.823501
11
-1.853182
21
0.600000
31
-13.823501
12
-1.860000
22
0.120000
32
-13.983500
13
-1.860000
23
0.120000
33
-13.983500
0
3DFACE
8
0
70
0
10
-1.988050
20
1.110000
30
-13.043500
11
-1.982517
21
1.160000
31
-12.953501
12
-1.900000
22
1.240000
32
-13.083500
13
-1.900000
23
1.240000
33
-13.083500
0
3DFACE
8
0
70
0
10
-1.950000
20
0.120000
30
-13.963501
11
-2.066633
21
0.120000
31
-13.883500
12
-2.030966
22
0.550000
32
-13.733500
13
-2.030966
23
0.550000
33
-13.733500
0
3DFACE
8
0
70
0
10
-1.950000
20
0.600000
30
-13.823501
11
-2.030966
21
0.550000
31
-13.733500
12
-1.988050
22
1.110000
32
-13.043500
13
-1.988050
23
1.110000
33
-13.043500
0
3DFACE
8
0
70
0
10
-1.769091
20
1.240000
30
-13.083500
11
-1.853182
21
0.600000
31
-13.823501
12
-1.950000
22
0.600000
32
-13.823501
13
-1.950000
23
0.600000
33
-13.823501
0
3DFACE
8
0
70
0
10
-0.440000
20
0.120000
30
-13.983500
11
-1.859970
21
-0.110000
31
-13.983500
12
-0.439996
22
-0.110000
32
-13.983500
13
-0.439996
23
-0.110000
33
-13.983500
0
3DFACE
8
0
70
0
10
-0.350000
20
-0.110000
30
-13.963501
11
-0.440000
21
0.120000
31
-13.983500
12
-0.439996
22
-0.110000
32
-13.983500
13
-0.439996
23
-0.110000
33
-13.983500
0
3DFACE
8
0
70
0
10
-1.859970
20
-0.110000
30
-13.983500
11
-1.950000
21
0.120000
31
-13.963501
12
-1.950000
22
-0.110000
32
-13.963501
13
-1.950000
23
-0.110000
33
-13.963501
0
3DFACE
8
0
70
0
10
-0.350000
20
-0.110000
30
-13.963501
11
-0.233333
21
0.120000
31
-13.883500
12
-0.350000
22
0.120000
32
-13.963501
13
-0.350000
23
0.120000
33
-13.963501
0
3DFACE
8
0
70
0
10
-0.400000
20
-0.820000
30
-13.483500
11
-0.439996
21
-0.110000
31
-13.983500
12
-0.512727
22
-0.820000
32
-13.483500
13
-0.512727
23
-0.820000
33
-13.483500
0
3DFACE
8
0
70
0
10
-0.350000
20
-0.110000
30
-13.963501
11
-0.303109
21
-0.760000
31
-13.433499
12
-0.233333
22
-0.110000
32
-13.883500
13
-0.233333
23
-0.110000
33
-13.883500
0
3DFACE
8
0
70
0
10
-1.950000
20
0.120000
30
-13.963501
11
-2.066600
21
-0.110000
31
-13.883500
12
-1.950000
22
-0.110000
32
-13.963501
13
-1.950000
23
-0.110000
33
-13.963501
0
3DFACE
8
0
70
0
10
-1.900000
20
-0.820000
30
-13.483500
11
-1.859970
21
-0.110000
31
-13.983500
12
-1.950000
22
-0.110000
32
-13.963501
13
-1.950000
23
-0.110000
33
-13.963501
0
3DFACE
8
0
70
0
10
-1.950000
20
-0.110000
30
-13.963501
11
-1.996881
21
-0.760000
31
-13.433499
12
-1.900000
22
-0.820000
32
-13.483500
13
-1.900000
23
-0.820000
33
-13.483500
0
3DFACE
8
0
70
0
10
-0.350000
20
0.120000
30
-13.963501
11
-0.446818
21
0.600000
31
-13.823501
12
-0.440000
22
0.120000
32
-13.983500
13
-0.440000
23
0.120000
33
-13.983500
0
3DFACE
8
0
70
0
10
-0.350000
20
0.600000
30
-13.823501
11
-0.233333
21
0.120000
31
-13.883500
12
-0.269034
22
0.550000
32
-13.733500
13
-0.269034
23
0.550000
33
-13.733500
0
3DFACE
8
0
70
0
10
-0.400000
20
1.240000
30
-13.083500
11
-0.269034
21
0.550000
31
-13.733500
12
-0.311950
22
1.110000
32
-13.043500
13
-0.311950
23
1.110000
33
-13.043500
0
3DFACE
8
0
70
0
10
-0.400000
20
1.240000
30
-13.083500
11
-0.446818
21
0.600000
31
-13.823501
12
-0.350000
22
0.600000
32
-13.823501
13
-0.350000
23
0.600000
33
-13.823501
0
3DFACE
8
0
70
0
10
-1.950000
20
0.120000
30
-13.963501
11
-1.853182
21
0.600000
31
-13.823501
12
-1.950000
22
0.600000
32
-13.823501
13
-1.950000
23
0.600000
33
-13.823501
0
3DFACE
8
0
70
0
10
-1.950000
20
0.600000
30
-13.823501
11
-2.066633
21
0.120000
31
-13.883500
12
-1.950000
22
0.120000
32
-13.963501
13
-1.950000
23
0.120000
33
-13.963501
0
3DFACE
8
0
70
0
10
-1.900000
20
1.240000
30
-13.083500
11
-2.030966
21
0.550000
31
-13.733500
12
-1.950000
22
0.600000
32
-13.823501
13
-1.950000
23
0.600000
33
-13.823501
0
3DFACE
8
0
70
0
10
-1.900000
20
1.240000
30
-13.083500
11
-1.853182
21
0.600000
31
-13.823501
12
-1.769091
22
1.240000
32
-13.083500
13
-1.769091
23
1.240000
33
-13.083500
0
3DFACE
8
0
70
0
10
-0.439996
20
-0.110000
30
-13.983500
11
-1.860000
21
0.120000
31
-13.983500
12
-0.440000
22
0.120000
32
-13.983500
13
-0.440000
23
0.120000
33
-13.983500
0
3DFACE
8
0
70
0
10
-0.439996
20
-0.110000
30
-13.983500
11
-0.350000
21
0.120000
31
-13.963501
12
-0.350000
22
-0.110000
32
-13.963501
13
-0.350000
23
-0.110000
33
-13.963501
0
3DFACE
8
0
70
0
10
-1.950000
20
-0.110000
30
-13.963501
11
-1.860000
21
0.120000
31
-13.983500
12
-1.859970
22
-0.110000
32
-13.983500
13
-1.859970
23
-0.110000
33
-13.983500
0
3DFACE
8
0
70
0
10
-0.350000
20
0.120000
30
-13.963501
11
-0.233333
21
-0.110000
31
-13.883500
12
-0.350000
22
-0.110000
32
-13.963501
13
-0.350000
23
-0.110000
33
-13.963501
0
3DFACE
8
0
70
0
10
-0.512727
20
-0.820000
30
-13.483500
11
-0.350000
21
-0.110000
31
-13.963501
12
-0.400000
22
-0.820000
32
-13.483500
13
-0.400000
23
-0.820000
33
-13.483500
0
3DFACE
8
0
70
0
10
-0.233333
20
-0.110000
30
-13.883500
11
-0.400000
21
-0.820000
31
-13.483500
12
-0.350000
22
-0.110000
32
-13.963501
13
-0.350000
23
-0.110000
33
-13.963501
0
3DFACE
8
0
70
0
10
-1.950000
20
-0.110000
30
-13.963501
11
-2.066633
21
0.120000
31
-13.883500
12
-1.950000
22
0.120000
32
-13.963501
13
-1.950000
23
0.120000
33
-13.963501
0
3DFACE
8
0
70
0
10
-1.950000
20
-0.110000
30
-13.963501
11
-1.787273
21
-0.820000
31
-13.483500
12
-1.900000
22
-0.820000
32
-13.483500
13
-1.900000
23
-0.820000
33
-13.483500
0
3DFACE
8
0
70
0
10
-1.900000
20
-0.820000
30
-13.483500
11
-2.066600
21
-0.110000
31
-13.883500
12
-1.950000
22
-0.110000
32
-13.963501
13
-1.950000
23
-0.110000
33
-13.963501
0
3DFACE
8
0
70
0
10
-0.440000
20
0.120000
30
-13.983500
11
-0.350000
21
0.600000
31
-13.823501
12
-0.350000
22
0.120000
32
-13.963501
13
-0.350000
23
0.120000
33
-13.963501
0
3DFACE
8
0
70
0
10
-0.269034
20
0.550000
30
-13.733500
11
-0.350000
21
0.120000
31
-13.963501
12
-0.350000
22
0.600000
32
-13.823501
13
-0.350000
23
0.600000
33
-13.823501
0
3DFACE
8
0
70
0
10
-0.311950
20
1.110000
30
-13.043500
11
-0.350000
21
0.600000
31
-13.823501
12
-0.400000
22
1.240000
32
-13.083500
13
-0.400000
23
1.240000
33
-13.083500
0
3DFACE
8
0
70
0
10
-0.350000
20
0.600000
30
-13.823501
11
-0.530909
21
1.240000
31
-13.083500
12
-0.400000
22
1.240000
32
-13.083500
13
-0.400000
23
1.240000
33
-13.083500
0
3DFACE
8
0
70
0
10
-1.950000
20
0.600000
30
-13.823501
11
-1.860000
21
0.120000
31
-13.983500
12
-1.950000
22
0.120000
32
-13.963501
13
-1.950000
23
0.120000
33
-13.963501
0
3DFACE
8
0
70
0
10
-1.950000
20
0.120000
30
-13.963501
11
-2.030966
21
0.550000
31
-13.733500
12
-1.950000
22
0.600000
32
-13.823501
13
-1.950000
23
0.600000
33
-13.823501
0
3DFACE
8
0
70
0
10
-1.950000
20
0.600000
30
-13.823501
11
-1.988050
21
1.110000
31
-13.043500
12
-1.900000
22
1.240000
32
-13.083500
13
-1.900000
23
1.240000
33
-13.083500
0
3DFACE
8
0
70
0
10
-1.769091
20
1.240000
30
-13.083500
11
-1.950000
21
0.600000
31
-13.823501
12
-1.900000
22
1.240000
32
-13.083500
13
-1.900000
23
1.240000
33
-13.083500
0
3DFACE
8
0
70
0
10
-0.493204
20
-0.979995
30
-11.743500
11
-0.020000
21
-0.620000
31
-11.983500
12
-0.339596
22
-0.780000
32
-12.203500
13
-0.339596
23
-0.780000
33
-12.203500
0
3DFACE
8
0
70
0
10
-2.280000
20
0.750002
30
-11.143500
11
-2.280000
21
1.024212
31
-11.443501
12
-1.780000
22
1.729520
32
-11.150880
13
-1.780000
23
1.729520
33
-11.150880
0
3DFACE
8
0
70
0
10
-0.520000
20
1.729520
30
-11.150880
11
-0.020000
21
1.024212
31
-11.443501
12
-0.020000
22
0.647093
32
-11.143500
13
-0.020000
23
0.647093
33
-11.143500
0
3DFACE
8
0
70
0
10
-1.806796
20
-0.979995
30
-11.743500
11
-2.020396
21
-0.780000
31
-12.203500
12
-2.280000
22
-0.620000
32
-11.983500
13
-2.280000
23
-0.620000
33
-11.983500
0
3DFACE
8
0
70
0
10
-0.020000
20
1.024212
30
-11.443501
11
-0.020000
21
0.599993
31
-11.983500
12
-0.020000
22
0.647093
32
-11.143500
13
-0.020000
23
0.647093
33
-11.143500
0
3DFACE
8
0
70
0
10
-0.020000
20
-0.000011
30
-12.883500
11
-0.020000
21
0.500000
31
-12.853500
12
-0.020000
22
0.476842
32
-12.943501
13
-0.020000
23
0.476842
33
-12.943501
0
3DFACE
8
0
70
0
10
-0.020000
20
-0.260000
30
-12.923501
11
-0.020000
21
-0.000011
31
-12.883500
12
-0.020000
22
0.120000
32
-13.043501
13
-0.020000
23
0.120000
33
-13.043501
0
3DFACE
8
0
70
0
10
-0.020000
20
-0.620000
30
-11.983500
11
-0.020000
21
-0.000011
31
-12.883500
12
-0.020000
22
-0.260000
32
-12.923501
13
-0.020000
23
-0.260000
33
-12.923501
0
3DFACE
8
0
70
0
10
-0.233333
20
-0.110000
30
-13.883500
11
-0.020000
21
-0.110000
31
-12.983500
12
-0.020000
22
0.120000
32
-13.043501
13
-0.020000
23
0.120000
33
-13.043501
0
3DFACE
8
0
70
0
10
-0.233333
20
-0.110000
30
-13.883500
11
-0.020000
21
0.120000
31
-13.043501
12
-0.233333
22
0.120000
32
-13.883500
13
-0.233333
23
0.120000
33
-13.883500
0
3DFACE
8
0
70
0
10
-0.339613
20
-0.780000
30
-12.203500
11
-0.020000
21
-0.620000
31
-11.983500
12
-0.160000
22
-0.617044
32
-12.186637
13
-0.160000
23
-0.617044
33
-12.186637
0
3DFACE
8
0
70
0
10
-0.303109
20
-0.760000
30
-13.433499
11
-0.303109
21
-0.760000
31
-13.243576
12
-0.020000
22
-0.260000
32
-12.923501
13
-0.020000
23
-0.260000
33
-12.923501
0
3DFACE
8
0
70
0
10
-2.280000
20
-0.000014
30
-12.476789
11
-2.280000
21
0.120000
31
-13.043501
12
-2.280000
22
0.476842
32
-12.943501
13
-2.280000
23
0.476842
33
-12.943501
0
3DFACE
8
0
70
0
10
-2.280000
20
-0.260000
30
-12.923501
11
-2.280000
21
-0.110000
31
-12.983500
12
-2.280000
22
0.120000
32
-13.043501
13
-2.280000
23
0.120000
33
-13.043501
0
3DFACE
8
0
70
0
10
-2.280000
20
-0.620000
30
-11.983500
11
-2.280000
21
-0.617044
31
-12.186637
12
-2.280000
22
-0.260000
32
-12.923501
13
-2.280000
23
-0.260000
33
-12.923501
0
3DFACE
8
0
70
0
10
-2.066600
20
-0.110000
30
-13.883500
11
-2.280000
21
0.120000
31
-13.043501
12
-2.280000
22
-0.110000
32
-12.983500
13
-2.280000
23
-0.110000
33
-12.983500
0
3DFACE
8
0
70
0
10
-2.066600
20
-0.110000
30
-13.883500
11
-2.066633
21
0.120000
31
-13.883500
12
-2.280000
22
0.120000
32
-13.043501
13
-2.280000
23
0.120000
33
-13.043501
0
3DFACE
8
0
70
0
10
-2.020396
20
-0.780000
30
-12.203500
11
-2.280000
21
-0.617044
31
-12.186637
12
-2.280000
22
-0.620000
32
-11.983500
13
-2.280000
23
-0.620000
33
-11.983500
0
3DFACE
8
0
70
0
10
-1.996881
20
-0.760000
30
-13.433499
11
-2.280000
21
-0.110000
31
-12.983500
12
-2.280000
22
-0.260000
32
-12.923501
13
-2.280000
23
-0.260000
33
-12.923501
0
3DFACE
8
0
70
0
10
-0.020000
20
0.500000
30
-12.853500
11
-0.020000
21
-0.000011
31
-12.883500
12
-0.020000
22
0.599993
32
-12.533500
13
-0.020000
23
0.599993
33
-12.533500
0
3DFACE
8
0
70
0
10
-0.425789
20
1.550000
30
-11.543500
11
-0.020000
21
1.024212
31
-11.443501
12
-0.520000
22
1.729520
32
-11.150880
13
-0.520000
23
1.729520
33
-11.150880
0
3DFACE
8
0
70
0
10
-0.311950
20
1.110000
30
-13.043500
11
-0.020000
21
0.476842
31
-12.943501
12
-0.020000
22
0.500000
32
-12.853500
13
-0.020000
23
0.500000
33
-12.853500
0
3DFACE
8
0
70
0
10
-0.020000
20
0.599993
30
-12.533500
11
-0.020000
21
0.599993
31
-11.983500
12
-0.020000
22
1.024212
32
-11.443501
13
-0.020000
23
1.024212
33
-11.443501
0
3DFACE
8
0
70
0
10
-2.280000
20
0.500000
30
-12.853500
11
-2.280000
21
0.700000
31
-12.283500
12
-2.280000
22
-0.000014
32
-12.476789
13
-2.280000
23
-0.000014
33
-12.476789
0
3DFACE
8
0
70
0
10
-1.874211
20
1.550000
30
-11.543500
11
-1.780000
21
1.729520
31
-11.150880
12
-2.280000
22
1.024212
32
-11.443501
13
-2.280000
23
1.024212
33
-11.443501
0
3DFACE
8
0
70
0
10
-1.988050
20
1.110000
30
-13.043500
11
-1.982517
21
1.160000
31
-12.953501
12
-2.280000
22
0.500000
32
-12.853500
13
-2.280000
23
0.500000
33
-12.853500
0
3DFACE
8
0
70
0
10
-2.280000
20
0.700000
30
-12.283500
11
-2.280000
21
1.024212
31
-11.443501
12
-2.280000
22
0.750002
32
-11.143500
13
-2.280000
23
0.750002
33
-11.143500
0
3DFACE
8
0
70
0
10
-0.339596
20
-0.780000
30
-12.203500
11
-0.020000
21
-0.620000
31
-11.983500
12
-0.493204
22
-0.979995
32
-11.743500
13
-0.493204
23
-0.979995
33
-11.743500
0
3DFACE
8
0
70
0
10
-1.780000
20
1.729520
30
-11.150880
11
-2.280000
21
1.024212
31
-11.443501
12
-2.280000
22
0.750002
32
-11.143500
13
-2.280000
23
0.750002
33
-11.143500
0
3DFACE
8
0
70
0
10
-0.020000
20
0.647093
30
-11.143500
11
-0.020000
21
1.024212
31
-11.443501
12
-0.520000
22
1.729520
32
-11.150880
13
-0.520000
23
1.729520
33
-11.150880
0
3DFACE
8
0
70
0
10
-2.280000
20
-0.697048
30
-11.623500
11
-2.280000
21
-0.620000
31
-11.983500
12
-2.020396
22
-0.780000
32
-12.203500
13
-2.020396
23
-0.780000
33
-12.203500
0
3DFACE
8
0
70
0
10
-0.020000
20
0.647093
30
-11.143500
11
-0.020000
21
0.599993
31
-11.983500
12
-0.020000
22
1.024212
32
-11.443501
13
-0.020000
23
1.024212
33
-11.443501
0
3DFACE
8
0
70
0
10
-0.020000
20
0.120000
30
-13.043501
11
-0.020000
21
0.476842
31
-12.943501
12
-0.020000
22
0.500000
32
-12.853500
13
-0.020000
23
0.500000
33
-12.853500
0
3DFACE
8
0
70
0
10
-0.020000
20
-0.110000
30
-12.983500
11
-0.020000
21
0.120000
31
-13.043501
12
-0.020000
22
-0.000011
32
-12.883500
13
-0.020000
23
-0.000011
33
-12.883500
0
3DFACE
8
0
70
0
10
-0.160000
20
-0.617044
30
-12.186637
11
-0.020000
21
-0.260000
31
-12.923501
12
-0.020000
22
-0.000011
32
-12.883500
13
-0.020000
23
-0.000011
33
-12.883500
0
3DFACE
8
0
70
0
10
-0.020000
20
0.120000
30
-13.043501
11
-0.020000
21
-0.110000
31
-12.983500
12
-0.233333
22
-0.110000
32
-13.883500
13
-0.233333
23
-0.110000
33
-13.883500
0
3DFACE
8
0
70
0
10
-0.233333
20
0.120000
30
-13.883500
11
-0.020000
21
0.120000
31
-13.043501
12
-0.233333
22
-0.110000
32
-13.883500
13
-0.233333
23
-0.110000
33
-13.883500
0
3DFACE
8
0
70
0
10
-0.160000
20
-0.617044
30
-12.186637
11
-0.020000
21
-0.620000
31
-11.983500
12
-0.339613
22
-0.780000
32
-12.203500
13
-0.339613
23
-0.780000
33
-12.203500
0
3DFACE
8
0
70
0
10
-0.020000
20
-0.110000
30
-12.983500
11
-0.020000
21
-0.260000
31
-12.923501
12
-0.303109
22
-0.760000
32
-13.243576
13
-0.303109
23
-0.760000
33
-13.243576
0
3DFACE
8
0
70
0
10
-2.280000
20
0.500000
30
-12.853500
11
-2.280000
21
0.476842
31
-12.943501
12
-2.280000
22
0.120000
32
-13.043501
13
-2.280000
23
0.120000
33
-13.043501
0
3DFACE
8
0
70
0
10
-2.280000
20
-0.000014
30
-12.476789
11
-2.280000
21
0.120000
31
-13.043501
12
-2.280000
22
-0.110000
32
-12.983500
13
-2.280000
23
-0.110000
33
-12.983500
0
3DFACE
8
0
70
0
10
-2.280000
20
-0.000014
30
-12.476789
11
-2.280000
21
-0.260000
31
-12.923501
12
-2.280000
22
-0.617044
32
-12.186637
13
-2.280000
23
-0.617044
33
-12.186637
0
3DFACE
8
0
70
0
10
-2.280000
20
-0.110000
30
-12.983500
11
-2.280000
21
0.120000
31
-13.043501
12
-2.066600
22
-0.110000
32
-13.883500
13
-2.066600
23
-0.110000
33
-13.883500
0
3DFACE
8
0
70
0
10
-2.280000
20
0.120000
30
-13.043501
11
-2.066633
21
0.120000
31
-13.883500
12
-2.066600
22
-0.110000
32
-13.883500
13
-2.066600
23
-0.110000
33
-13.883500
0
3DFACE
8
0
70
0
10
-2.280000
20
-0.620000
30
-11.983500
11
-2.280000
21
-0.617044
31
-12.186637
12
-2.020396
22
-0.780000
32
-12.203500
13
-2.020396
23
-0.780000
33
-12.203500
0
3DFACE
8
0
70
0
10
-1.996909
20
-0.760000
30
-13.243576
11
-2.280000
21
-0.260000
31
-12.923501
12
-2.280000
22
-0.110000
32
-12.983500
13
-2.280000
23
-0.110000
33
-12.983500
0
3DFACE
8
0
70
0
10
-0.020000
20
0.599993
30
-12.533500
11
-0.020000
21
-0.000011
31
-12.883500
12
-0.020000
22
0.500000
32
-12.853500
13
-0.020000
23
0.500000
33
-12.853500
0
3DFACE
8
0
70
0
10
-0.520000
20
1.729520
30
-11.150880
11
-0.020000
21
1.024212
31
-11.443501
12
-0.425789
22
1.550000
32
-11.543500
13
-0.425789
23
1.550000
33
-11.543500
0
3DFACE
8
0
70
0
10
-0.317483
20
1.160000
30
-12.953501
11
-0.020000
21
0.500000
31
-12.853500
12
-0.020000
22
0.476842
32
-12.943501
13
-0.020000
23
0.476842
33
-12.943501
0
3DFACE
8
0
70
0
10
-0.020000
20
1.024212
30
-11.443501
11
-0.020000
21
0.599993
31
-11.983500
12
-0.020000
22
0.599993
32
-12.533500
13
-0.020000
23
0.599993
33
-12.533500
0
3DFACE
8
0
70
0
10
-2.280000
20
-0.000014
30
-12.476789
11
-2.280000
21
0.700000
31
-12.283500
12
-2.280000
22
0.500000
32
-12.853500
13
-2.280000
23
0.500000
33
-12.853500
0
3DFACE
8
0
70
0
10
-2.280000
20
1.024212
30
-11.443501
11
-1.780000
21
1.729520
31
-11.150880
12
-1.874211
22
1.550000
32
-11.543500
13
-1.874211
23
1.550000
33
-11.543500
0
3DFACE
8
0
70
0
10
-2.280000
20
0.476842
30
-12.943501
11
-2.280000
21
0.500000
31
-12.853500
12
-1.982517
22
1.160000
32
-12.953501
13
-1.982517
23
1.160000
33
-12.953501
0
3DFACE
8
0
70
0
10
-2.280000
20
0.750002
30
-11.143500
11
-2.280000
21
1.024212
31
-11.443501
12
-2.280000
22
0.700000
32
-12.283500
13
-2.280000
23
0.700000
33
-12.283500
0
3DFACE
8
0
70
0
10
-1.806796
20
-0.979995
30
-11.743500
11
-2.280000
21
-0.620000
31
-11.983500
12
-2.280000
22
-0.697048
32
-11.623500
13
-2.280000
23
-0.697048
33
-11.623500
0
3DFACE
8
0
70
0
10
-0.020000
20
-0.000011
30
-12.883500
11
-0.020000
21
0.476842
31
-12.943501
12
-0.020000
22
0.120000
32
-13.043501
13
-0.020000
23
0.120000
33
-13.043501
0
3DFACE
8
0
70
0
10
-0.020000
20
-0.260000
30
-12.923501
11
-0.020000
21
0.120000
31
-13.043501
12
-0.020000
22
-0.110000
32
-12.983500
13
-0.020000
23
-0.110000
33
-12.983500
0
3DFACE
8
0
70
0
10
-0.020000
20
-0.620000
30
-11.983500
11
-0.020000
21
-0.260000
31
-12.923501
12
-0.160000
22
-0.617044
32
-12.186637
13
-0.160000
23
-0.617044
33
-12.186637
0
3DFACE
8
0
70
0
10
-0.303109
20
-0.760000
30
-13.433499
11
-0.020000
21
-0.260000
31
-12.923501
12
-0.020000
22
-0.110000
32
-12.983500
13
-0.020000
23
-0.110000
33
-12.983500
0
3DFACE
8
0
70
0
10
-2.280000
20
-0.000014
30
-12.476789
11
-2.280000
21
0.476842
31
-12.943501
12
-2.280000
22
0.500000
32
-12.853500
13
-2.280000
23
0.500000
33
-12.853500
0
3DFACE
8
0
70
0
10
-2.280000
20
-0.260000
30
-12.923501
11
-2.280000
21
0.120000
31
-13.043501
12
-2.280000
22
-0.000014
32
-12.476789
13
-2.280000
23
-0.000014
33
-12.476789
0
3DFACE
8
0
70
0
10
-2.280000
20
-0.620000
30
-11.983500
11
-2.280000
21
-0.260000
31
-12.923501
12
-2.280000
22
-0.000014
32
-12.476789
13
-2.280000
23
-0.000014
33
-12.476789
0
3DFACE
8
0
70
0
10
-1.996881
20
-0.760000
30
-13.433499
11
-2.280000
21
-0.260000
31
-12.923501
12
-1.996909
22
-0.760000
32
-13.243576
13
-1.996909
23
-0.760000
33
-13.243576
0
3DFACE
8
0
70
0
10
-0.311950
20
1.110000
30
-13.043500
11
-0.020000
21
0.500000
31
-12.853500
12
-0.317483
22
1.160000
32
-12.953501
13
-0.317483
23
1.160000
33
-12.953501
0
3DFACE
8
0
70
0
10
-1.988050
20
1.110000
30
-13.043500
11
-2.280000
21
0.500000
31
-12.853500
12
-2.280000
22
0.476842
32
-12.943501
13
-2.280000
23
0.476842
33
-12.943501
0
3DFACE
8
0
70
0
10
-2.280000
20
-0.697048
30
-11.623500
11
-2.020396
21
-0.780000
31
-12.203500
12
-1.806796
22
-0.979995
32
-11.743500
13
-1.806796
23
-0.979995
33
-11.743500
0
3DFACE
8
0
70
0
10
-0.020000
20
0.120000
30
-13.043501
11
-0.020000
21
0.500000
31
-12.853500
12
-0.020000
22
-0.000011
32
-12.883500
13
-0.020000
23
-0.000011
33
-12.883500
0
3DFACE
8
0
70
0
10
-0.020000
20
-0.110000
30
-12.983500
11
-0.020000
21
-0.000011
31
-12.883500
12
-0.020000
22
-0.260000
32
-12.923501
13
-0.020000
23
-0.260000
33
-12.923501
0
3DFACE
8
0
70
0
10
-0.160000
20
-0.617044
30
-12.186637
11
-0.020000
21
-0.000011
31
-12.883500
12
-0.020000
22
-0.620000
32
-11.983500
13
-0.020000
23
-0.620000
33
-11.983500
0
3DFACE
8
0
70
0
10
-0.020000
20
-0.110000
30
-12.983500
11
-0.303109
21
-0.760000
31
-13.243576
12
-0.303109
22
-0.760000
32
-13.433499
13
-0.303109
23
-0.760000
33
-13.433499
0
3DFACE
8
0
70
0
10
-2.280000
20
0.500000
30
-12.853500
11
-2.280000
21
0.120000
31
-13.043501
12
-2.280000
22
-0.000014
32
-12.476789
13
-2.280000
23
-0.000014
33
-12.476789
0
3DFACE
8
0
70
0
10
-2.280000
20
-0.000014
30
-12.476789
11
-2.280000
21
-0.110000
31
-12.983500
12
-2.280000
22
-0.260000
32
-12.923501
13
-2.280000
23
-0.260000
33
-12.923501
0
3DFACE
8
0
70
0
10
-2.280000
20
-0.000014
30
-12.476789
11
-2.280000
21
-0.617044
31
-12.186637
12
-2.280000
22
-0.620000
32
-11.983500
13
-2.280000
23
-0.620000
33
-11.983500
0
3DFACE
8
0
70
0
10
-1.996909
20
-0.760000
30
-13.243576
11
-2.280000
21
-0.110000
31
-12.983500
12
-1.996881
22
-0.760000
32
-13.433499
13
-1.996881
23
-0.760000
33
-13.433499
0
3DFACE
8
0
70
0
10
-0.317483
20
1.160000
30
-12.953501
11
-0.020000
21
0.476842
31
-12.943501
12
-0.311950
22
1.110000
32
-13.043500
13
-0.311950
23
1.110000
33
-13.043500
0
3DFACE
8
0
70
0
10
-2.280000
20
0.476842
30
-12.943501
11
-1.982517
21
1.160000
31
-12.953501
12
-1.988050
22
1.110000
32
-13.043500
13
-1.988050
23
1.110000
33
-13.043500
0
3DFACE
8
0
70
0
10
-0.400000
20
1.240000
30
-13.083500
11
-0.540000
21
1.261895
31
-13.003500
12
-0.530909
22
1.240000
32
-13.083500
13
-0.530909
23
1.240000
33
-13.083500
0
3DFACE
8
0
70
0
10
-0.425789
20
1.550000
30
-11.543500
11
-0.700000
21
1.674105
31
-11.643500
12
-0.540000
22
1.261895
32
-13.003500
13
-0.540000
23
1.261895
33
-13.003500
0
3DFACE
8
0
70
0
10
-0.400000
20
1.240000
30
-13.083500
11
-0.317483
21
1.160000
31
-12.953501
12
-0.425789
22
1.550000
32
-11.543500
13
-0.425789
23
1.550000
33
-11.543500
0
3DFACE
8
0
70
0
10
-0.425789
20
1.550000
30
-11.543500
11
-0.520000
21
1.729520
31
-11.150880
12
-0.700000
22
1.674105
32
-11.643500
13
-0.700000
23
1.674105
33
-11.643500
0
3DFACE
8
0
70
0
10
-1.900000
20
1.240000
30
-13.083500
11
-1.769091
21
1.240000
31
-13.083500
12
-1.760000
22
1.261895
32
-13.003500
13
-1.760000
23
1.261895
33
-13.003500
0
3DFACE
8
0
70
0
10
-1.874211
20
1.550000
30
-11.543500
11
-1.900000
21
1.240000
31
-13.083500
12
-1.760000
22
1.261895
32
-13.003500
13
-1.760000
23
1.261895
33
-13.003500
0
3DFACE
8
0
70
0
10
-1.900000
20
1.240000
30
-13.083500
11
-1.874211
21
1.550000
31
-11.543500
12
-1.982517
22
1.160000
32
-12.953501
13
-1.982517
23
1.160000
33
-12.953501
0
3DFACE
8
0
70
0
10
-1.780000
20
1.729520
30
-11.150880
11
-1.600000
21
1.674105
31
-11.643500
12
-0.700000
22
1.674105
32
-11.643500
13
-0.700000
23
1.674105
33
-11.643500
0
3DFACE
8
0
70
0
10
-1.874211
20
1.550000
30
-11.543500
11
-1.600000
21
1.674105
31
-11.643500
12
-1.780000
22
1.729520
32
-11.150880
13
-1.780000
23
1.729520
33
-11.150880
0
3DFACE
8
0
70
0
10
-0.530909
20
1.240000
30
-13.083500
11
-0.540000
21
1.261895
31
-13.003500
12
-1.760000
22
1.261895
32
-13.003500
13
-1.760000
23
1.261895
33
-13.003500
0
3DFACE
8
0
70
0
10
-0.530909
20
1.240000
30
-13.083500
11
-0.540000
21
1.261895
31
-13.003500
12
-0.400000
22
1.240000
32
-13.083500
13
-0.400000
23
1.240000
33
-13.083500
0
3DFACE
8
0
70
0
10
-0.400000
20
1.240000
30
-13.083500
11
-0.540000
21
1.261895
31
-13.003500
12
-0.700000
22
1.674105
32
-11.643500
13
-0.700000
23
1.674105
33
-11.643500
0
3DFACE
8
0
70
0
10
-0.425789
20
1.550000
30
-11.543500
11
-0.317483
21
1.160000
31
-12.953501
12
-0.400000
22
1.240000
32
-13.083500
13
-0.400000
23
1.240000
33
-13.083500
0
3DFACE
8
0
70
0
10
-0.700000
20
1.674105
30
-11.643500
11
-0.520000
21
1.729520
31
-11.150880
12
-0.425789
22
1.550000
32
-11.543500
13
-0.425789
23
1.550000
33
-11.543500
0
3DFACE
8
0
70
0
10
-1.760000
20
1.261895
30
-13.003500
11
-1.769091
21
1.240000
31
-13.083500
12
-1.900000
22
1.240000
32
-13.083500
13
-1.900000
23
1.240000
33
-13.083500
0
3DFACE
8
0
70
0
10
-1.600000
20
1.674105
30
-11.643500
11
-1.760000
21
1.261895
31
-13.003500
12
-1.900000
22
1.240000
32
-13.083500
13
-1.900000
23
1.240000
33
-13.083500
0
3DFACE
8
0
70
0
10
-1.982517
20
1.160000
30
-12.953501
11
-1.874211
21
1.550000
31
-11.543500
12
-1.900000
22
1.240000
32
-13.083500
13
-1.900000
23
1.240000
33
-13.083500
0
3DFACE
8
0
70
0
10
-0.520000
20
1.729520
30
-11.150880
11
-0.700000
21
1.674105
31
-11.643500
12
-1.600000
22
1.674105
32
-11.643500
13
-1.600000
23
1.674105
33
-11.643500
0
3DFACE
8
0
70
0
10
-1.780000
20
1.729520
30
-11.150880
11
-1.600000
21
1.674105
31
-11.643500
12
-1.874211
22
1.550000
32
-11.543500
13
-1.874211
23
1.550000
33
-11.543500
0
3DFACE
8
0
70
0
10
-1.769091
20
1.240000
30
-13.083500
11
-1.760000
21
1.261895
31
-13.003500
12
-0.540000
22
1.261895
32
-13.003500
13
-0.540000
23
1.261895
33
-13.003500
0
3DFACE
8
0
70
0
10
-0.425789
20
1.550000
30
-11.543500
11
-0.540000
21
1.261895
31
-13.003500
12
-0.400000
22
1.240000
32
-13.083500
13
-0.400000
23
1.240000
33
-13.083500
0
3DFACE
8
0
70
0
10
-1.874211
20
1.550000
30
-11.543500
11
-1.760000
21
1.261895
31
-13.003500
12
-1.600000
22
1.674105
32
-11.643500
13
-1.600000
23
1.674105
33
-11.643500
0
3DFACE
8
0
70
0
10
-1.780000
20
1.729520
30
-11.150880
11
-0.700000
21
1.674105
31
-11.643500
12
-0.520000
22
1.729520
32
-11.150880
13
-0.520000
23
1.729520
33
-11.150880
0
3DFACE
8
0
70
0
10
-0.530909
20
1.240000
30
-13.083500
11
-1.760000
21
1.261895
31
-13.003500
12
-1.769091
22
1.240000
32
-13.083500
13
-1.769091
23
1.240000
33
-13.083500
0
3DFACE
8
0
70
0
10
-0.400000
20
1.240000
30
-13.083500
11
-0.700000
21
1.674105
31
-11.643500
12
-0.425789
22
1.550000
32
-11.543500
13
-0.425789
23
1.550000
33
-11.543500
0
3DFACE
8
0
70
0
10
-1.600000
20
1.674105
30
-11.643500
11
-1.900000
21
1.240000
31
-13.083500
12
-1.874211
22
1.550000
32
-11.543500
13
-1.874211
23
1.550000
33
-11.543500
0
3DFACE
8
0
70
0
10
-0.520000
20
1.729520
30
-11.150880
11
-1.600000
21
1.674105
31
-11.643500
12
-1.780000
22
1.729520
32
-11.150880
13
-1.780000
23
1.729520
33
-11.150880
0
3DFACE
8
0
70
0
10
-1.769091
20
1.240000
30
-13.083500
11
-0.540000
21
1.261895
31
-13.003500
12
-0.530909
22
1.240000
32
-13.083500
13
-0.530909
23
1.240000
33
-13.083500
0
3DFACE
8
0
70
0
10
-0.439993
20
-0.820246
30
-10.433156
11
-0.440000
21
-0.820246
31
-12.106438
12
-0.406755
22
-0.705898
32
-12.204432
13
-0.406755
23
-0.705898
33
-12.204432
0
3DFACE
8
0
70
0
10
-1.859964
20
-0.820246
30
-10.433156
11
-1.967121
21
-0.695420
31
-12.200670
12
-1.860000
22
-0.820246
32
-12.106438
13
-1.860000
23
-0.820246
33
-12.106438
0
3DFACE
8
0
70
0
10
-1.859964
20
-0.820246
30
-10.433156
11
-1.860000
21
-0.820246
31
-12.106438
12
-0.440000
22
-0.820246
32
-12.106438
13
-0.440000
23
-0.820246
33
-12.106438
0
3DFACE
8
0
70
0
10
-1.760000
20
-0.740249
30
-13.236438
11
-1.860000
21
-0.820246
31
-12.106438
12
-1.967121
22
-0.695420
32
-12.200670
13
-1.967121
23
-0.695420
33
-12.200670
0
3DFACE
8
0
70
0
10
-1.787273
20
-0.762422
30
-13.401740
11
-1.760000
21
-0.740249
31
-13.236438
12
-1.921634
22
-0.695162
32
-13.232184
13
-1.921634
23
-0.695162
33
-13.232184
0
3DFACE
8
0
70
0
10
-1.787273
20
-0.762422
30
-13.401740
11
-0.512727
21
-0.762422
31
-13.401740
12
-0.540000
22
-0.740249
32
-13.236438
13
-0.540000
23
-0.740249
33
-13.236438
0
3DFACE
8
0
70
0
10
-0.397186
20
-0.734463
30
-13.411200
11
-0.382135
21
-0.698771
31
-13.241158
12
-0.540000
22
-0.740249
32
-13.236438
13
-0.540000
23
-0.740249
33
-13.236438
0
3DFACE
8
0
70
0
10
-0.406755
20
-0.705898
30
-12.204432
11
-0.440000
21
-0.820246
31
-12.106438
12
-0.540000
22
-0.740249
32
-13.236438
13
-0.540000
23
-0.740249
33
-13.236438
0
3DFACE
8
0
70
0
10
-1.859964
20
-0.820246
30
-10.433156
11
-0.440000
21
-0.820246
31
-12.106438
12
-0.439993
22
-0.820246
32
-10.433156
13
-0.439993
23
-0.820246
33
-10.433156
0
3DFACE
8
0
70
0
10
-1.760000
20
-0.740249
30
-13.236438
11
-1.967121
21
-0.695420
31
-12.200670
12
-1.921634
22
-0.695162
32
-13.232184
13
-1.921634
23
-0.695162
33
-13.232184
0
3DFACE
8
0
70
0
10
-1.787273
20
-0.762422
30
-13.401740
11
-1.921634
21
-0.695162
31
-13.232184
12
-1.902804
22
-0.734466
32
-13.411193
13
-1.902804
23
-0.734466
33
-13.411193
0
3DFACE
8
0
70
0
10
-1.787273
20
-0.762422
30
-13.401740
11
-0.540000
21
-0.740249
31
-13.236438
12
-1.760000
22
-0.740249
32
-13.236438
13
-1.760000
23
-0.740249
33
-13.236438
0
3DFACE
8
0
70
0
10
-0.397186
20
-0.734463
30
-13.411200
11
-0.540000
21
-0.740249
31
-13.236438
12
-0.512727
22
-0.762422
32
-13.401740
13
-0.512727
23
-0.762422
33
-13.401740
0
3DFACE
8
0
70
0
10
-0.406755
20
-0.705898
30
-12.204432
11
-0.540000
21
-0.740249
31
-13.236438
12
-0.382135
22
-0.698771
32
-13.241158
13
-0.382135
23
-0.698771
33
-13.241158
0
3DFACE
8
0
70
0
10
-0.440000
20
0.088377
30
-13.888632
11
-0.439996
21
-0.052422
31
-13.901740
12
-1.859970
22
-0.052422
32
-13.901740
13
-1.859970
23
-0.052422
33
-13.901740
0
3DFACE
8
0
70
0
10
-0.440000
20
0.088377
30
-13.888632
11
-1.859970
21
-0.052422
31
-13.901740
12
-1.860000
22
0.088377
32
-13.888632
13
-1.860000
23
0.088377
33
-13.888632
0
3DFACE
8
0
70
0
10
-1.787273
20
-0.762422
30
-13.401740
11
-1.902804
21
-0.734466
31
-13.411193
12
-1.972524
22
-0.084466
32
-13.861194
13
-1.972524
23
-0.084466
33
-13.861194
0
3DFACE
8
0
70
0
10
-1.853182
20
0.544385
30
-13.740393
11
-1.936751
21
0.527621
31
-13.708548
12
-1.898633
22
1.072676
32
-13.018769
13
-1.898633
23
1.072676
33
-13.018769
0
3DFACE
8
0
70
0
10
-1.860000
20
0.088377
30
-13.888632
11
-1.969941
21
0.113117
31
-13.858939
12
-1.936751
22
0.527621
32
-13.708548
13
-1.936751
23
0.527621
33
-13.708548
0
3DFACE
8
0
70
0
10
-1.860000
20
0.088377
30
-13.888632
11
-1.859970
21
-0.052422
31
-13.901740
12
-1.972524
22
-0.084466
32
-13.861194
13
-1.972524
23
-0.084466
33
-13.861194
0
3DFACE
8
0
70
0
10
-1.787273
20
-0.762422
30
-13.401740
11
-1.972524
21
-0.084466
31
-13.861194
12
-1.859970
22
-0.052422
32
-13.901740
13
-1.859970
23
-0.052422
33
-13.901740
0
3DFACE
8
0
70
0
10
-1.853182
20
0.544385
30
-13.740393
11
-1.898633
21
1.072676
31
-13.018769
12
-1.769091
22
1.139364
32
-13.038085
13
-1.769091
23
1.139364
33
-13.038085
0
3DFACE
8
0
70
0
10
-1.860000
20
0.088377
30
-13.888632
11
-1.936751
21
0.527621
31
-13.708548
12
-1.853182
22
0.544385
32
-13.740393
13
-1.853182
23
0.544385
33
-13.740393
0
3DFACE
8
0
70
0
10
-1.860000
20
0.088377
30
-13.888632
11
-1.972524
21
-0.084466
31
-13.861194
12
-1.969941
22
0.113117
32
-13.858939
13
-1.969941
23
0.113117
33
-13.858939
0
3DFACE
8
0
70
0
10
-0.397186
20
-0.734463
30
-13.411200
11
-0.512727
21
-0.762422
31
-13.401740
12
-0.439996
22
-0.052422
32
-13.901740
13
-0.439996
23
-0.052422
33
-13.901740
0
3DFACE
8
0
70
0
10
-0.363250
20
0.527621
30
-13.708549
11
-0.446818
21
0.544385
31
-13.740393
12
-0.530909
22
1.139364
32
-13.038085
13
-0.530909
23
1.139364
33
-13.038085
0
3DFACE
8
0
70
0
10
-0.330027
20
0.113118
30
-13.858943
11
-0.440000
21
0.088377
31
-13.888632
12
-0.446818
22
0.544385
32
-13.740393
13
-0.446818
23
0.544385
33
-13.740393
0
3DFACE
8
0
70
0
10
-0.439996
20
-0.052422
30
-13.901740
11
-0.440000
21
0.088377
31
-13.888632
12
-0.330027
22
0.113118
32
-13.858943
13
-0.330027
23
0.113118
33
-13.858943
0
3DFACE
8
0
70
0
10
-0.397186
20
-0.734463
30
-13.411200
11
-0.439996
21
-0.052422
31
-13.901740
12
-0.327411
22
-0.084463
32
-13.861200
13
-0.327411
23
-0.084463
33
-13.861200
0
3DFACE
8
0
70
0
10
-0.363250
20
0.527621
30
-13.708549
11
-0.530909
21
1.139364
31
-13.038085
12
-0.401367
22
1.072676
32
-13.018769
13
-0.401367
23
1.072676
33
-13.018769
0
3DFACE
8
0
70
0
10
-0.330027
20
0.113118
30
-13.858943
11
-0.446818
21
0.544385
31
-13.740393
12
-0.363250
22
0.527621
32
-13.708549
13
-0.363250
23
0.527621
33
-13.708549
0
3DFACE
8
0
70
0
10
-0.439996
20
-0.052422
30
-13.901740
11
-0.330027
21
0.113118
31
-13.858943
12
-0.327411
22
-0.084463
32
-13.861200
13
-0.327411
23
-0.084463
33
-13.861200
0
3DFACE
8
0
70
0
10
-2.204725
20
-0.552207
30
-12.175245
11
-2.200318
21
0.964683
31
-11.433156
12
-2.200318
22
0.640471
32
-12.273155
13
-2.200318
23
0.640471
33
-12.273155
0
3DFACE
8
0
70
0
10
-2.185923
20
-0.084466
30
-12.961194
11
-2.200318
21
0.440471
31
-12.843156
12
-2.185785
22
0.454463
32
-12.918548
13
-2.185785
23
0.454463
33
-12.918548
0
3DFACE
8
0
70
0
10
-2.200318
20
0.640471
30
-12.273155
11
-2.200318
21
0.440471
31
-12.843156
12
-2.185923
22
-0.084466
32
-12.961194
13
-2.185923
23
-0.084466
33
-12.961194
0
3DFACE
8
0
70
0
10
-1.599969
20
1.578454
30
-10.433156
11
-1.794528
21
1.490471
31
-11.533155
12
-2.200318
22
0.964683
32
-11.433156
13
-2.200318
23
0.964683
33
-11.433156
0
3DFACE
8
0
70
0
10
-2.200275
20
0.964653
30
-10.433156
11
-2.200318
21
0.964683
31
-11.433156
12
-2.204725
22
-0.552207
32
-12.175245
13
-2.204725
23
-0.552207
33
-12.175245
0
3DFACE
8
0
70
0
10
-2.204682
20
-0.552211
30
-10.433156
11
-2.204725
21
-0.552207
31
-12.175245
12
-1.967121
22
-0.695420
32
-12.200670
13
-1.967121
23
-0.695420
33
-12.200670
0
3DFACE
8
0
70
0
10
-2.185923
20
-0.084466
30
-12.961194
11
-1.902804
21
-0.734466
31
-13.411193
12
-1.921634
22
-0.695162
32
-13.232184
13
-1.921634
23
-0.695162
33
-13.232184
0
3DFACE
8
0
70
0
10
-2.183308
20
0.113117
30
-13.018940
11
-1.969941
21
0.113117
31
-13.858939
12
-1.972524
22
-0.084466
32
-13.861194
13
-1.972524
23
-0.084466
33
-13.861194
0
3DFACE
8
0
70
0
10
-1.898633
20
1.072676
30
-13.018769
11
-2.185785
21
0.454463
31
-12.918548
12
-2.200318
22
0.440471
32
-12.843156
13
-2.200318
23
0.440471
33
-12.843156
0
3DFACE
8
0
70
0
10
-2.204725
20
-0.552207
30
-12.175245
11
-2.200318
21
0.640471
31
-12.273155
12
-2.189855
22
-0.221045
32
-12.904625
13
-2.189855
23
-0.221045
33
-12.904625
0
3DFACE
8
0
70
0
10
-2.185923
20
-0.084466
30
-12.961194
11
-2.185785
21
0.454463
31
-12.918548
12
-2.183308
22
0.113117
32
-13.018940
13
-2.183308
23
0.113117
33
-13.018940
0
3DFACE
8
0
70
0
10
-2.200318
20
0.640471
30
-12.273155
11
-2.185923
21
-0.084466
31
-12.961194
12
-2.189855
22
-0.221045
32
-12.904625
13
-2.189855
23
-0.221045
33
-12.904625
0
3DFACE
8
0
70
0
10
-1.599969
20
1.578454
30
-10.433156
11
-2.200318
21
0.964683
31
-11.433156
12
-2.200275
22
0.964653
32
-10.433156
13
-2.200275
23
0.964653
33
-10.433156
0
3DFACE
8
0
70
0
10
-2.200275
20
0.964653
30
-10.433156
11
-2.204725
21
-0.552207
31
-12.175245
12
-2.204682
22
-0.552211
32
-10.433156
13
-2.204682
23
-0.552211
33
-10.433156
0
3DFACE
8
0
70
0
10
-2.204682
20
-0.552211
30
-10.433156
11
-1.967121
21
-0.695420
31
-12.200670
12
-1.859964
22
-0.820246
32
-10.433156
13
-1.859964
23
-0.820246
33
-10.433156
0
3DFACE
8
0
70
0
10
-2.185923
20
-0.084466
30
-12.961194
11
-1.921634
21
-0.695162
31
-13.232184
12
-2.189855
22
-0.221045
32
-12.904625
13
-2.189855
23
-0.221045
33
-12.904625
0
3DFACE
8
0
70
0
10
-2.183308
20
0.113117
30
-13.018940
11
-1.972524
21
-0.084466
31
-13.861194
12
-2.185923
22
-0.084466
32
-12.961194
13
-2.185923
23
-0.084466
33
-12.961194
0
3DFACE
8
0
70
0
10
-1.898633
20
1.072676
30
-13.018769
11
-2.200318
21
0.440471
31
-12.843156
12
-1.902835
22
1.100471
32
-12.943156
13
-1.902835
23
1.100471
33
-12.943156
0
3DFACE
8
0
70
0
10
-0.239026
20
-0.555815
30
-12.184218
11
-0.108396
21
-0.213592
31
-12.917809
12
-0.099682
22
0.540464
32
-12.523155
13
-0.099682
23
0.540464
33
-12.523155
0
3DFACE
8
0
70
0
10
-0.099682
20
0.540464
30
-12.523155
11
-0.108396
21
-0.213592
31
-12.917809
12
-0.114077
22
-0.084463
32
-12.961201
13
-0.114077
23
-0.084463
33
-12.961201
0
3DFACE
8
0
70
0
10
-0.114077
20
-0.084463
30
-12.961201
11
-0.116693
21
0.113118
31
-13.018944
12
-0.114216
22
0.454463
32
-12.918550
13
-0.114216
23
0.454463
33
-12.918550
0
3DFACE
8
0
70
0
10
-0.099682
20
0.964652
30
-10.433156
11
-0.099682
21
0.964683
31
-11.433156
12
-0.505472
22
1.490471
32
-11.533155
13
-0.505472
23
1.490471
33
-11.533155
0
3DFACE
8
0
70
0
10
-0.239024
20
-0.555820
30
-10.433156
11
-0.239026
21
-0.555815
31
-12.184218
12
-0.099682
22
0.964683
32
-11.433156
13
-0.099682
23
0.964683
33
-11.433156
0
3DFACE
8
0
70
0
10
-0.439993
20
-0.820246
30
-10.433156
11
-0.406755
21
-0.705898
31
-12.204432
12
-0.239026
22
-0.555815
32
-12.184218
13
-0.239026
23
-0.555815
33
-12.184218
0
3DFACE
8
0
70
0
10
-0.397186
20
-0.734463
30
-13.411200
11
-0.114077
21
-0.084463
31
-12.961201
12
-0.108396
22
-0.213592
32
-12.917809
13
-0.108396
23
-0.213592
33
-12.917809
0
3DFACE
8
0
70
0
10
-0.114216
20
0.454463
30
-12.918550
11
-0.401367
21
1.072676
31
-13.018769
12
-0.397166
22
1.100471
32
-12.943156
13
-0.397166
23
1.100471
33
-12.943156
0
3DFACE
8
0
70
0
10
-0.114077
20
-0.084463
30
-12.961201
11
-0.327411
21
-0.084463
31
-13.861200
12
-0.330027
22
0.113118
32
-13.858943
13
-0.330027
23
0.113118
33
-13.858943
0
3DFACE
8
0
70
0
10
-0.239026
20
-0.555815
30
-12.184218
11
-0.099682
21
0.540464
31
-12.523155
12
-0.099682
22
0.964683
32
-11.433156
13
-0.099682
23
0.964683
33
-11.433156
0
3DFACE
8
0
70
0
10
-0.099682
20
0.540464
30
-12.523155
11
-0.114077
21
-0.084463
31
-12.961201
12
-0.099682
22
0.440471
32
-12.843156
13
-0.099682
23
0.440471
33
-12.843156
0
3DFACE
8
0
70
0
10
-0.114077
20
-0.084463
30
-12.961201
11
-0.114216
21
0.454463
31
-12.918550
12
-0.099682
22
0.440471
32
-12.843156
13
-0.099682
23
0.440471
33
-12.843156
0
3DFACE
8
0
70
0
10
-0.099682
20
0.964652
30
-10.433156
11
-0.505472
21
1.490471
31
-11.533155
12
-0.699988
22
1.578454
32
-10.433156
13
-0.699988
23
1.578454
33
-10.433156
0
3DFACE
8
0
70
0
10
-0.239024
20
-0.555820
30
-10.433156
11
-0.099682
21
0.964683
31
-11.433156
12
-0.099682
22
0.964652
32
-10.433156
13
-0.099682
23
0.964652
33
-10.433156
0
3DFACE
8
0
70
0
10
-0.439993
20
-0.820246
30
-10.433156
11
-0.239026
21
-0.555815
31
-12.184218
12
-0.239024
22
-0.555820
32
-10.433156
13
-0.239024
23
-0.555820
33
-10.433156
0
3DFACE
8
0
70
0
10
-0.397186
20
-0.734463
30
-13.411200
11
-0.108396
21
-0.213592
31
-12.917809
12
-0.382135
22
-0.698771
32
-13.241158
13
-0.382135
23
-0.698771
33
-13.241158
0
3DFACE
8
0
70
0
10
-0.114216
20
0.454463
30
-12.918550
11
-0.397166
21
1.100471
31
-12.943156
12
-0.099682
22
0.440471
32
-12.843156
13
-0.099682
23
0.440471
33
-12.843156
0
3DFACE
8
0
70
0
10
-0.114077
20
-0.084463
30
-12.961201
11
-0.330027
21
0.113118
31
-13.858943
12
-0.116693
22
0.113118
32
-13.018944
13
-0.116693
23
0.113118
33
-13.018944
0
3DFACE
8
0
70
0
10
-0.699988
20
1.578454
30
-10.433156
11
-0.505472
21
1.490471
31
-11.533155
12
-0.700000
22
1.578495
32
-11.614199
13
-0.700000
23
1.578495
33
-11.614199
0
3DFACE
8
0
70
0
10
-0.699988
20
1.578454
30
-10.433156
11
-0.700000
21
1.578495
31
-11.614199
12
-1.600000
22
1.578495
32
-11.614199
13
-1.600000
23
1.578495
33
-11.614199
0
3DFACE
8
0
70
0
10
-1.599969
20
1.578454
30
-10.433156
11
-1.600000
21
1.578495
31
-11.614199
12
-1.794528
22
1.490471
32
-11.533155
13
-1.794528
23
1.490471
33
-11.533155
0
3DFACE
8
0
70
0
10
-1.760000
20
1.170442
30
-12.962102
11
-1.769091
21
1.139364
31
-13.038085
12
-1.898633
22
1.072676
32
-13.018769
13
-1.898633
23
1.072676
33
-13.018769
0
3DFACE
8
0
70
0
10
-1.600000
20
1.578495
30
-11.614199
11
-1.760000
21
1.170442
31
-12.962102
12
-1.902835
22
1.100471
32
-12.943156
13
-1.902835
23
1.100471
33
-12.943156
0
3DFACE
8
0
70
0
10
-0.397166
20
1.100471
30
-12.943156
11
-0.401367
21
1.072676
31
-13.018769
12
-0.530909
22
1.139364
32
-13.038085
13
-0.530909
23
1.139364
33
-13.038085
0
3DFACE
8
0
70
0
10
-0.540000
20
1.170442
30
-12.962102
11
-0.700000
21
1.578495
31
-11.614199
12
-0.505472
22
1.490471
32
-11.533155
13
-0.505472
23
1.490471
33
-11.533155
0
3DFACE
8
0
70
0
10
-0.530909
20
1.139364
30
-13.038085
11
-1.769091
21
1.139364
31
-13.038085
12
-1.760000
22
1.170442
32
-12.962102
13
-1.760000
23
1.170442
33
-12.962102
0
3DFACE
8
0
70
0
10
-0.699988
20
1.578454
30
-10.433156
11
-1.600000
21
1.578495
31
-11.614199
12
-1.599969
22
1.578454
32
-10.433156
13
-1.599969
23
1.578454
33
-10.433156
0
3DFACE
8
0
70
0
10
-1.760000
20
1.170442
30
-12.962102
11
-1.898633
21
1.072676
31
-13.018769
12
-1.902835
22
1.100471
32
-12.943156
13
-1.902835
23
1.100471
33
-12.943156
0
3DFACE
8
0
70
0
10
-1.600000
20
1.578495
30
-11.614199
11
-1.902835
21
1.100471
31
-12.943156
12
-1.794528
22
1.490471
32
-11.533155
13
-1.794528
23
1.490471
33
-11.533155
0
3DFACE
8
0
70
0
10
-0.397166
20
1.100471
30
-12.943156
11
-0.530909
21
1.139364
31
-13.038085
12
-0.540000
22
1.170442
32
-12.962102
13
-0.540000
23
1.170442
33
-12.962102
0
3DFACE
8
0
70
0
10
-0.540000
20
1.170442
30
-12.962102
11
-0.505472
21
1.490471
31
-11.533155
12
-0.397166
22
1.100471
32
-12.943156
13
-0.397166
23
1.100471
33
-12.943156
0
3DFACE
8
0
70
0
10
-0.530909
20
1.139364
30
-13.038085
11
-1.760000
21
1.170442
31
-12.962102
12
-0.540000
22
1.170442
32
-12.962102
13
-0.540000
23
1.170442
33
-12.962102
0
3DFACE
8
0
70
0
10
-2.204682
20
-0.552211
30
-10.433156
11
-1.859964
21
-0.820246
31
-10.433156
12
-0.439993
22
-0.820246
32
-10.433156
13
-0.439993
23
-0.820246
33
-10.433156
0
3DFACE
8
0
70
0
10
-2.204682
20
-0.552211
30
-10.433156
11
-0.239024
21
-0.555820
31
-10.433156
12
-0.099682
22
0.964652
32
-10.433156
13
-0.099682
23
0.964652
33
-10.433156
0
3DFACE
8
0
70
0
10
-0.099682
20
0.964652
30
-10.433156
11
-0.699988
21
1.578454
31
-10.433156
12
-1.599969
22
1.578454
32
-10.433156
13
-1.599969
23
1.578454
33
-10.433156
0
3DFACE
8
0
70
0
10
-2.204682
20
-0.552211
30
-10.433156
11
-0.439993
21
-0.820246
31
-10.433156
12
-0.239024
22
-0.555820
32
-10.433156
13
-0.239024
23
-0.555820
33
-10.433156
0
3DFACE
8
0
70
0
10
-2.204682
20
-0.552211
30
-10.433156
11
-0.099682
21
0.964652
31
-10.433156
12
-2.200275
22
0.964653
32
-10.433156
13
-2.200275
23
0.964653
33
-10.433156
0
3DFACE
8
0
70
0
10
-0.099682
20
0.964652
30
-10.433156
11
-1.599969
21
1.578454
31
-10.433156
12
-2.200275
22
0.964653
32
-10.433156
13
-2.200275
23
0.964653
33
-10.433156
0
3DFACE
8
0
70
0
10
-0.327411
20
-0.084463
30
-13.861200
11
-0.114077
21
-0.084463
31
-12.961201
12
-0.020000
22
-0.110000
32
-12.983500
13
-0.020000
23
-0.110000
33
-12.983500
0
3DFACE
8
0
70
0
10
-0.382174
20
-0.704406
30
-13.407847
11
-0.327411
21
-0.084463
31
-13.861200
12
-0.233333
22
-0.110000
32
-13.883500
13
-0.233333
23
-0.110000
33
-13.883500
0
3DFACE
8
0
70
0
10
-0.114077
20
-0.084463
30
-12.961201
11
-0.382174
21
-0.704406
31
-13.407847
12
-0.303109
22
-0.760000
32
-13.433499
13
-0.303109
23
-0.760000
33
-13.433499
0
3DFACE
8
0
70
0
10
-1.917812
20
-0.704414
30
-13.407844
11
-2.185923
21
-0.084466
31
-12.961194
12
-2.280000
22
-0.110000
32
-12.983500
13
-2.280000
23
-0.110000
33
-12.983500
0
3DFACE
8
0
70
0
10
-1.972524
20
-0.084466
30
-13.861194
11
-1.917812
21
-0.704414
31
-13.407844
12
-1.996881
22
-0.760000
32
-13.433499
13
-1.996881
23
-0.760000
33
-13.433499
0
3DFACE
8
0
70
0
10
-2.185923
20
-0.084466
30
-12.961194
11
-1.972524
21
-0.084466
31
-13.861194
12
-2.066600
22
-0.110000
32
-13.883500
13
-2.066600
23
-0.110000
33
-13.883500
0
3DFACE
8
0
70
0
10
-0.382135
20
-0.698771
30
-13.241158
11
-0.108396
21
-0.213592
31
-12.917809
12
-0.020000
22
-0.260000
32
-12.923501
13
-0.020000
23
-0.260000
33
-12.923501
0
3DFACE
8
0
70
0
10
-0.108396
20
-0.213592
30
-12.917809
11
-0.239026
21
-0.555815
31
-12.184218
12
-0.160000
22
-0.617044
32
-12.186637
13
-0.160000
23
-0.617044
33
-12.186637
0
3DFACE
8
0
70
0
10
-0.239026
20
-0.555815
30
-12.184218
11
-0.406755
21
-0.705898
31
-12.204432
12
-0.339613
22
-0.780000
32
-12.203500
13
-0.339613
23
-0.780000
33
-12.203500
0
3DFACE
8
0
70
0
10
-0.406755
20
-0.705898
30
-12.204432
11
-0.382135
21
-0.698771
31
-13.241158
12
-0.303109
22
-0.760000
32
-13.243576
13
-0.303109
23
-0.760000
33
-13.243576
0
3DFACE
8
0
70
0
10
-0.439996
20
-0.052422
30
-13.901740
11
-0.512727
21
-0.762422
31
-13.401740
12
-0.512727
22
-0.820000
32
-13.483500
13
-0.512727
23
-0.820000
33
-13.483500
0
3DFACE
8
0
70
0
10
-1.859970
20
-0.052422
30
-13.901740
11
-0.439996
21
-0.052422
31
-13.901740
12
-0.439996
22
-0.110000
32
-13.983500
13
-0.439996
23
-0.110000
33
-13.983500
0
3DFACE
8
0
70
0
10
-1.787273
20
-0.762422
30
-13.401740
11
-1.859970
21
-0.052422
31
-13.901740
12
-1.859970
22
-0.110000
32
-13.983500
13
-1.859970
23
-0.110000
33
-13.983500
0
3DFACE
8
0
70
0
10
-0.512727
20
-0.762422
30
-13.401740
11
-1.787273
21
-0.762422
31
-13.401740
12
-1.787273
22
-0.820000
32
-13.483500
13
-1.787273
23
-0.820000
33
-13.483500
0
3DFACE
8
0
70
0
10
-0.440000
20
-0.820246
30
-12.106438
11
-1.860000
21
-0.820246
31
-12.106438
12
-1.860000
22
-0.919996
32
-12.113500
13
-1.860000
23
-0.919996
33
-12.113500
0
3DFACE
8
0
70
0
10
-0.540000
20
-0.740249
30
-13.236438
11
-0.440000
21
-0.820246
31
-12.106438
12
-0.440000
22
-0.919996
32
-12.113500
13
-0.440000
23
-0.919996
33
-12.113500
0
3DFACE
8
0
70
0
10
-1.760000
20
-0.740249
30
-13.236438
11
-0.540000
21
-0.740249
31
-13.236438
12
-0.540000
22
-0.839999
32
-13.243500
13
-0.540000
23
-0.839999
33
-13.243500
0
3DFACE
8
0
70
0
10
-1.860000
20
-0.820246
30
-12.106438
11
-1.760000
21
-0.740249
31
-13.236438
12
-1.760000
22
-0.839999
32
-13.243500
13
-1.760000
23
-0.839999
33
-13.243500
0
3DFACE
8
0
70
0
10
-1.967121
20
-0.695420
30
-12.200670
11
-2.204725
21
-0.552207
31
-12.175245
12
-2.280000
22
-0.617044
32
-12.186637
13
-2.280000
23
-0.617044
33
-12.186637
0
3DFACE
8
0
70
0
10
-1.921634
20
-0.695162
30
-13.232184
11
-1.967121
21
-0.695420
31
-12.200670
12
-2.020396
22
-0.780000
32
-12.203500
13
-2.020396
23
-0.780000
33
-12.203500
0
3DFACE
8
0
70
0
10
-2.204725
20
-0.552207
30
-12.175245
11
-2.189855
21
-0.221045
31
-12.904625
12
-2.280000
22
-0.260000
32
-12.923501
13
-2.280000
23
-0.260000
33
-12.923501
0
3DFACE
8
0
70
0
10
-2.189855
20
-0.221045
30
-12.904625
11
-1.921634
21
-0.695162
31
-13.232184
12
-1.996909
22
-0.760000
32
-13.243576
13
-1.996909
23
-0.760000
33
-13.243576
0
3DFACE
8
0
70
0
10
-0.397166
20
1.100471
30
-12.943156
11
-0.505472
21
1.490471
31
-11.533155
12
-0.425789
22
1.550000
32
-11.543500
13
-0.425789
23
1.550000
33
-11.543500
0
3DFACE
8
0
70
0
10
-0.099682
20
0.440471
30
-12.843156
11
-0.397166
21
1.100471
31
-12.943156
12
-0.317483
22
1.160000
32
-12.953501
13
-0.317483
23
1.160000
33
-12.953501
0
3DFACE
8
0
70
0
10
-0.099682
20
0.540464
30
-12.523155
11
-0.099682
21
0.440471
31
-12.843156
12
-0.020000
22
0.500000
32
-12.853500
13
-0.020000
23
0.500000
33
-12.853500
0
3DFACE
8
0
70
0
10
-0.099682
20
0.964683
30
-11.433156
11
-0.099682
21
0.540464
31
-12.523155
12
-0.020000
22
0.599993
32
-12.533500
13
-0.020000
23
0.599993
33
-12.533500
0
3DFACE
8
0
70
0
10
-0.505472
20
1.490471
30
-11.533155
11
-0.099682
21
0.964683
31
-11.433156
12
-0.020000
22
1.024212
32
-11.443501
13
-0.020000
23
1.024212
33
-11.443501
0
3DFACE
8
0
70
0
10
-0.114216
20
0.454463
30
-12.918550
11
-0.116693
21
0.113118
31
-13.018944
12
-0.020000
22
0.120000
32
-13.043501
13
-0.020000
23
0.120000
33
-13.043501
0
3DFACE
8
0
70
0
10
-0.330027
20
0.113118
30
-13.858943
11
-0.363250
21
0.527621
31
-13.708549
12
-0.269034
22
0.550000
32
-13.733500
13
-0.269034
23
0.550000
33
-13.733500
0
3DFACE
8
0
70
0
10
-0.116693
20
0.113118
30
-13.018944
11
-0.330027
21
0.113118
31
-13.858943
12
-0.233333
22
0.120000
32
-13.883500
13
-0.233333
23
0.120000
33
-13.883500
0
3DFACE
8
0
70
0
10
-0.401367
20
1.072676
30
-13.018769
11
-0.114216
21
0.454463
31
-12.918550
12
-0.020000
22
0.476842
32
-12.943501
13
-0.020000
23
0.476842
33
-12.943501
0
3DFACE
8
0
70
0
10
-0.363250
20
0.527621
30
-13.708549
11
-0.401367
21
1.072676
31
-13.018769
12
-0.311950
22
1.110000
32
-13.043500
13
-0.311950
23
1.110000
33
-13.043500
0
3DFACE
8
0
70
0
10
-0.540000
20
1.170442
30
-12.962102
11
-1.760000
21
1.170442
31
-12.962102
12
-1.760000
22
1.261895
32
-13.003500
13
-1.760000
23
1.261895
33
-13.003500
0
3DFACE
8
0
70
0
10
-2.200318
20
0.964683
30
-11.433156
11
-1.794528
21
1.490471
31
-11.533155
12
-1.874211
22
1.550000
32
-11.543500
13
-1.874211
23
1.550000
33
-11.543500
0
3DFACE
8
0
70
0
10
-2.200318
20
0.640471
30
-12.273155
11
-2.200318
21
0.964683
31
-11.433156
12
-2.280000
22
1.024212
32
-11.443501
13
-2.280000
23
1.024212
33
-11.443501
0
3DFACE
8
0
70
0
10
-2.200318
20
0.440471
30
-12.843156
11
-2.200318
21
0.640471
31
-12.273155
12
-2.280000
22
0.700000
32
-12.283500
13
-2.280000
23
0.700000
33
-12.283500
0
3DFACE
8
0
70
0
10
-1.902835
20
1.100471
30
-12.943156
11
-2.200318
21
0.440471
31
-12.843156
12
-2.280000
22
0.500000
32
-12.853500
13
-2.280000
23
0.500000
33
-12.853500
0
3DFACE
8
0
70
0
10
-1.794528
20
1.490471
30
-11.533155
11
-1.902835
21
1.100471
31
-12.943156
12
-1.982517
22
1.160000
32
-12.953501
13
-1.982517
23
1.160000
33
-12.953501
0
3DFACE
8
0
70
0
10
-1.969941
20
0.113117
30
-13.858939
11
-2.183308
21
0.113117
31
-13.018940
12
-2.280000
22
0.120000
32
-13.043501
13
-2.280000
23
0.120000
33
-13.043501
0
3DFACE
8
0
70
0
10
-1.936751
20
0.527621
30
-13.708548
11
-1.969941
21
0.113117
31
-13.858939
12
-2.066633
22
0.120000
32
-13.883500
13
-2.066633
23
0.120000
33
-13.883500
0
3DFACE
8
0
70
0
10
-2.183308
20
0.113117
30
-13.018940
11
-2.185785
21
0.454463
31
-12.918548
12
-2.280000
22
0.476842
32
-12.943501
13
-2.280000
23
0.476842
33
-12.943501
0
3DFACE
8
0
70
0
10
-1.898633
20
1.072676
30
-13.018769
11
-1.936751
21
0.527621
31
-13.708548
12
-2.030966
22
0.550000
32
-13.733500
13
-2.030966
23
0.550000
33
-13.733500
0
3DFACE
8
0
70
0
10
-2.185785
20
0.454463
30
-12.918548
11
-1.898633
21
1.072676
31
-13.018769
12
-1.988050
22
1.110000
32
-13.043500
13
-1.988050
23
1.110000
33
-13.043500
0
3DFACE
8
0
70
0
10
-0.446818
20
0.544385
30
-13.740393
11
-0.440000
21
0.088377
31
-13.888632
12
-0.440000
22
0.120000
32
-13.983500
13
-0.440000
23
0.120000
33
-13.983500
0
3DFACE
8
0
70
0
10
-1.860000
20
0.088377
30
-13.888632
11
-1.853182
21
0.544385
31
-13.740393
12
-1.853182
22
0.600000
32
-13.823501
13
-1.853182
23
0.600000
33
-13.823501
0
3DFACE
8
0
70
0
10
-0.440000
20
0.088377
30
-13.888632
11
-1.860000
21
0.088377
31
-13.888632
12
-1.860000
22
0.120000
32
-13.983500
13
-1.860000
23
0.120000
33
-13.983500
0
3DFACE
8
0
70
0
10
-0.700000
20
1.578495
30
-11.614199
11
-0.540000
21
1.170442
31
-12.962102
12
-0.540000
22
1.261895
32
-13.003500
13
-0.540000
23
1.261895
33
-13.003500
0
3DFACE
8
0
70
0
10
-1.600000
20
1.578495
30
-11.614199
11
-0.700000
21
1.578495
31
-11.614199
12
-0.700000
22
1.674105
32
-11.643500
13
-0.700000
23
1.674105
33
-11.643500
0
3DFACE
8
0
70
0
10
-1.600000
20
1.578495
30
-11.614199
11
-1.600000
21
1.674105
31
-11.643500
12
-1.760000
22
1.261895
32
-13.003500
13
-1.760000
23
1.261895
33
-13.003500
0
3DFACE
8
0
70
0
10
-0.530909
20
1.139364
30
-13.038085
11
-0.446818
21
0.544385
31
-13.740393
12
-0.446818
22
0.600000
32
-13.823501
13
-0.446818
23
0.600000
33
-13.823501
0
3DFACE
8
0
70
0
10
-1.769091
20
1.139364
30
-13.038085
11
-0.530909
21
1.139364
31
-13.038085
12
-0.530909
22
1.240000
32
-13.083500
13
-0.530909
23
1.240000
33
-13.083500
0
3DFACE
8
0
70
0
10
-1.853182
20
0.544385
30
-13.740393
11
-1.769091
21
1.139364
31
-13.038085
12
-1.769091
22
1.240000
32
-13.083500
13
-1.769091
23
1.240000
33
-13.083500
0
3DFACE
8
0
70
0
10
-0.327411
20
-0.084463
30
-13.861200
11
-0.020000
21
-0.110000
31
-12.983500
12
-0.233333
22
-0.110000
32
-13.883500
13
-0.233333
23
-0.110000
33
-13.883500
0
3DFACE
8
0
70
0
10
-0.382174
20
-0.704406
30
-13.407847
11
-0.233333
21
-0.110000
31
-13.883500
12
-0.303109
22
-0.760000
32
-13.433499
13
-0.303109
23
-0.760000
33
-13.433499
0
3DFACE
8
0
70
0
10
-0.114077
20
-0.084463
30
-12.961201
11
-0.303109
21
-0.760000
31
-13.433499
12
-0.020000
22
-0.110000
32
-12.983500
13
-0.020000
23
-0.110000
33
-12.983500
0
3DFACE
8
0
70
0
10
-1.917812
20
-0.704414
30
-13.407844
11
-2.280000
21
-0.110000
31
-12.983500
12
-1.996881
22
-0.760000
32
-13.433499
13
-1.996881
23
-0.760000
33
-13.433499
0
3DFACE
8
0
70
0
10
-1.972524
20
-0.084466
30
-13.861194
11
-1.996881
21
-0.760000
31
-13.433499
12
-2.066600
22
-0.110000
32
-13.883500
13
-2.066600
23
-0.110000
33
-13.883500
0
3DFACE
8
0
70
0
10
-2.185923
20
-0.084466
30
-12.961194
11
-2.066600
21
-0.110000
31
-13.883500
12
-2.280000
22
-0.110000
32
-12.983500
13
-2.280000
23
-0.110000
33
-12.983500
0
3DFACE
8
0
70
0
10
-0.382135
20
-0.698771
30
-13.241158
11
-0.020000
21
-0.260000
31
-12.923501
12
-0.303109
22
-0.760000
32
-13.243576
13
-0.303109
23
-0.760000
33
-13.243576
0
3DFACE
8
0
70
0
10
-0.108396
20
-0.213592
30
-12.917809
11
-0.160000
21
-0.617044
31
-12.186637
12
-0.020000
22
-0.260000
32
-12.923501
13
-0.020000
23
-0.260000
33
-12.923501
0
3DFACE
8
0
70
0
10
-0.239026
20
-0.555815
30
-12.184218
11
-0.339613
21
-0.780000
31
-12.203500
12
-0.160000
22
-0.617044
32
-12.186637
13
-0.160000
23
-0.617044
33
-12.186637
0
3DFACE
8
0
70
0
10
-0.406755
20
-0.705898
30
-12.204432
11
-0.303109
21
-0.760000
31
-13.243576
12
-0.339613
22
-0.780000
32
-12.203500
13
-0.339613
23
-0.780000
33
-12.203500
0
3DFACE
8
0
70
0
10
-0.439996
20
-0.052422
30
-13.901740
11
-0.512727
21
-0.820000
31
-13.483500
12
-0.439996
22
-0.110000
32
-13.983500
13
-0.439996
23
-0.110000
33
-13.983500
0
3DFACE
8
0
70
0
10
-1.859970
20
-0.052422
30
-13.901740
11
-0.439996
21
-0.110000
31
-13.983500
12
-1.859970
22
-0.110000
32
-13.983500
13
-1.859970
23
-0.110000
33
-13.983500
0
3DFACE
8
0
70
0
10
-1.787273
20
-0.762422
30
-13.401740
11
-1.859970
21
-0.110000
31
-13.983500
12
-1.787273
22
-0.820000
32
-13.483500
13
-1.787273
23
-0.820000
33
-13.483500
0
3DFACE
8
0
70
0
10
-0.512727
20
-0.762422
30
-13.401740
11
-1.787273
21
-0.820000
31
-13.483500
12
-0.512727
22
-0.820000
32
-13.483500
13
-0.512727
23
-0.820000
33
-13.483500
0
3DFACE
8
0
70
0
10
-0.440000
20
-0.820246
30
-12.106438
11
-1.860000
21
-0.919996
31
-12.113500
12
-0.440000
22
-0.919996
32
-12.113500
13
-0.440000
23
-0.919996
33
-12.113500
0
3DFACE
8
0
70
0
10
-0.540000
20
-0.740249
30
-13.236438
11
-0.440000
21
-0.919996
31
-12.113500
12
-0.540000
22
-0.839999
32
-13.243500
13
-0.540000
23
-0.839999
33
-13.243500
0
3DFACE
8
0
70
0
10
-1.760000
20
-0.740249
30
-13.236438
11
-0.540000
21
-0.839999
31
-13.243500
12
-1.760000
22
-0.839999
32
-13.243500
13
-1.760000
23
-0.839999
33
-13.243500
0
3DFACE
8
0
70
0
10
-1.860000
20
-0.820246
30
-12.106438
11
-1.760000
21
-0.839999
31
-13.243500
12
-1.860000
22
-0.919996
32
-12.113500
13
-1.860000
23
-0.919996
33
-12.113500
0
3DFACE
8
0
70
0
10
-1.967121
20
-0.695420
30
-12.200670
11
-2.280000
21
-0.617044
31
-12.186637
12
-2.020396
22
-0.780000
32
-12.203500
13
-2.020396
23
-0.780000
33
-12.203500
0
3DFACE
8
0
70
0
10
-1.921634
20
-0.695162
30
-13.232184
11
-2.020396
21
-0.780000
31
-12.203500
12
-1.996909
22
-0.760000
32
-13.243576
13
-1.996909
23
-0.760000
33
-13.243576
0
3DFACE
8
0
70
0
10
-2.204725
20
-0.552207
30
-12.175245
11
-2.280000
21
-0.260000
31
-12.923501
12
-2.280000
22
-0.617044
32
-12.186637
13
-2.280000
23
-0.617044
33
-12.186637
0
3DFACE
8
0
70
0
10
-2.189855
20
-0.221045
30
-12.904625
11
-1.996909
21
-0.760000
31
-13.243576
12
-2.280000
22
-0.260000
32
-12.923501
13
-2.280000
23
-0.260000
33
-12.923501
0
3DFACE
8
0
70
0
10
-0.397166
20
1.100471
30
-12.943156
11
-0.425789
21
1.550000
31
-11.543500
12
-0.317483
22
1.160000
32
-12.953501
13
-0.317483
23
1.160000
33
-12.953501
0
3DFACE
8
0
70
0
10
-0.099682
20
0.440471
30
-12.843156
11
-0.317483
21
1.160000
31
-12.953501
12
-0.020000
22
0.500000
32
-12.853500
13
-0.020000
23
0.500000
33
-12.853500
0
3DFACE
8
0
70
0
10
-0.099682
20
0.540464
30
-12.523155
11
-0.020000
21
0.500000
31
-12.853500
12
-0.020000
22
0.599993
32
-12.533500
13
-0.020000
23
0.599993
33
-12.533500
0
3DFACE
8
0
70
0
10
-0.099682
20
0.964683
30
-11.433156
11
-0.020000
21
0.599993
31
-12.533500
12
-0.020000
22
1.024212
32
-11.443501
13
-0.020000
23
1.024212
33
-11.443501
0
3DFACE
8
0
70
0
10
-0.505472
20
1.490471
30
-11.533155
11
-0.020000
21
1.024212
31
-11.443501
12
-0.425789
22
1.550000
32
-11.543500
13
-0.425789
23
1.550000
33
-11.543500
0
3DFACE
8
0
70
0
10
-0.114216
20
0.454463
30
-12.918550
11
-0.020000
21
0.120000
31
-13.043501
12
-0.020000
22
0.476842
32
-12.943501
13
-0.020000
23
0.476842
33
-12.943501
0
3DFACE
8
0
70
0
10
-0.330027
20
0.113118
30
-13.858943
11
-0.269034
21
0.550000
31
-13.733500
12
-0.233333
22
0.120000
32
-13.883500
13
-0.233333
23
0.120000
33
-13.883500
0
3DFACE
8
0
70
0
10
-0.116693
20
0.113118
30
-13.018944
11
-0.233333
21
0.120000
31
-13.883500
12
-0.020000
22
0.120000
32
-13.043501
13
-0.020000
23
0.120000
33
-13.043501
0
3DFACE
8
0
70
0
10
-0.401367
20
1.072676
30
-13.018769
11
-0.020000
21
0.476842
31
-12.943501
12
-0.311950
22
1.110000
32
-13.043500
13
-0.311950
23
1.110000
33
-13.043500
0
3DFACE
8
0
70
0
10
-0.363250
20
0.527621
30
-13.708549
11
-0.311950
21
1.110000
31
-13.043500
12
-0.269034
22
0.550000
32
-13.733500
13
-0.269034
23
0.550000
33
-13.733500
0
3DFACE
8
0
70
0
10
-0.540000
20
1.170442
30
-12.962102
11
-1.760000
21
1.261895
31
-13.003500
12
-0.540000
22
1.261895
32
-13.003500
13
-0.540000
23
1.261895
33
-13.003500
0
3DFACE
8
0
70
0
10
-2.200318
20
0.964683
30
-11.433156
11
-1.874211
21
1.550000
31
-11.543500
12
-2.280000
22
1.024212
32
-11.443501
13
-2.280000
23
1.024212
33
-11.443501
0
3DFACE
8
0
70
0
10
-2.200318
20
0.640471
30
-12.273155
11
-2.280000
21
1.024212
31
-11.443501
12
-2.280000
22
0.700000
32
-12.283500
13
-2.280000
23
0.700000
33
-12.283500
0
3DFACE
8
0
70
0
10
-2.200318
20
0.440471
30
-12.843156
11
-2.280000
21
0.700000
31
-12.283500
12
-2.280000
22
0.500000
32
-12.853500
13
-2.280000
23
0.500000
33
-12.853500
0
3DFACE
8
0
70
0
10
-1.902835
20
1.100471
30
-12.943156
11
-2.280000
21
0.500000
31
-12.853500
12
-1.982517
22
1.160000
32
-12.953501
13
-1.982517
23
1.160000
33
-12.953501
0
3DFACE
8
0
70
0
10
-1.794528
20
1.490471
30
-11.533155
11
-1.982517
21
1.160000
31
-12.953501
12
-1.874211
22
1.550000
32
-11.543500
13
-1.874211
23
1.550000
33
-11.543500
0
3DFACE
8
0
70
0
10
-1.969941
20
0.113117
30
-13.858939
11
-2.280000
21
0.120000
31
-13.043501
12
-2.066633
22
0.120000
32
-13.883500
13
-2.066633
23
0.120000
33
-13.883500
0
3DFACE
8
0
70
0
10
-1.936751
20
0.527621
30
-13.708548
11
-2.066633
21
0.120000
31
-13.883500
12
-2.030966
22
0.550000
32
-13.733500
13
-2.030966
23
0.550000
33
-13.733500
0
3DFACE
8
0
70
0
10
-2.183308
20
0.113117
30
-13.018940
11
-2.280000
21
0.476842
31
-12.943501
12
-2.280000
22
0.120000
32
-13.043501
13
-2.280000
23
0.120000
33
-13.043501
0
3DFACE
8
0
70
0
10
-1.898633
20
1.072676
30
-13.018769
11
-2.030966
21
0.550000
31
-13.733500
12
-1.988050
22
1.110000
32
-13.043500
13
-1.988050
23
1.110000
33
-13.043500
0
3DFACE
8
0
70
0
10
-2.185785
20
0.454463
30
-12.918548
11
-1.988050
21
1.110000
31
-13.043500
12
-2.280000
22
0.476842
32
-12.943501
13
-2.280000
23
0.476842
33
-12.943501
0
3DFACE
8
0
70
0
10
-0.446818
20
0.544385
30
-13.740393
11
-0.440000
21
0.120000
31
-13.983500
12
-0.446818
22
0.600000
32
-13.823501
13
-0.446818
23
0.600000
33
-13.823501
0
3DFACE
8
0
70
0
10
-1.860000
20
0.088377
30
-13.888632
11
-1.853182
21
0.600000
31
-13.823501
12
-1.860000
22
0.120000
32
-13.983500
13
-1.860000
23
0.120000
33
-13.983500
0
3DFACE
8
0
70
0
10
-0.440000
20
0.088377
30
-13.888632
11
-1.860000
21
0.120000
31
-13.983500
12
-0.440000
22
0.120000
32
-13.983500
13
-0.440000
23
0.120000
33
-13.983500
0
3DFACE
8
0
70
0
10
-0.700000
20
1.578495
30
-11.614199
11
-0.540000
21
1.261895
31
-13.003500
12
-0.700000
22
1.674105
32
-11.643500
13
-0.700000
23
1.674105
33
-11.643500
0
3DFACE
8
0
70
0
10
-1.600000
20
1.578495
30
-11.614199
11
-0.700000
21
1.674105
31
-11.643500
12
-1.600000
22
1.674105
32
-11.643500
13
-1.600000
23
1.674105
33
-11.643500
0
3DFACE
8
0
70
0
10
-1.600000
20
1.578495
30
-11.614199
11
-1.760000
21
1.261895
31
-13.003500
12
-1.760000
22
1.170442
32
-12.962102
13
-1.760000
23
1.170442
33
-12.962102
0
3DFACE
8
0
70
0
10
-0.530909
20
1.139364
30
-13.038085
11
-0.446818
21
0.600000
31
-13.823501
12
-0.530909
22
1.240000
32
-13.083500
13
-0.530909
23
1.240000
33
-13.083500
0
3DFACE
8
0
70
0
10
-1.769091
20
1.139364
30
-13.038085
11
-0.530909
21
1.240000
31
-13.083500
12
-1.769091
22
1.240000
32
-13.083500
13
-1.769091
23
1.240000
33
-13.083500
0
3DFACE
8
0
70
0
10
-1.853182
20
0.544385
30
-13.740393
11
-1.769091
21
1.240000
31
-13.083500
12
-1.853182
22
0.600000
32
-13.823501
13
-1.853182
23
0.600000
33
-13.823501
0
3DFACE
8
0
70
0
10
-7.913223
20
-0.529761
30
13.755222
11
-8.261237
21
-0.529761
31
12.695421
12
-8.230050
22
-0.383039
32
12.701740
13
-8.230050
23
-0.383039
33
12.701740
0
3DFACE
8
0
70
0
10
-7.882035
20
0.383039
30
13.761541
11
-8.230050
21
0.383039
31
12.701740
12
-8.261237
22
0.529761
32
12.695421
13
-8.261237
23
0.529761
33
12.695421
0
3DFACE
8
0
70
0
10
-7.913223
20
-0.529761
30
13.755222
11
-7.882035
21
-0.383039
31
13.761541
12
-2.371892
22
-1.563673
32
15.379496
13
-2.371892
23
-1.563673
33
15.379496
0
3DFACE
8
0
70
0
10
-7.913223
20
0.529761
30
13.755222
11
-2.403079
21
1.710396
31
15.373177
12
-2.371892
22
1.563673
32
15.379496
13
-2.371892
23
1.563673
33
15.379496
0
3DFACE
8
0
70
0
10
-2.403079
20
-1.710396
30
15.373177
11
-2.251093
21
-1.710396
31
13.913376
12
-8.261237
22
-0.529761
32
12.695421
13
-8.261237
23
-0.529761
33
12.695421
0
3DFACE
8
0
70
0
10
-2.371892
20
-1.563673
30
15.379496
11
-2.219906
21
-1.563673
31
13.919695
12
-2.251093
22
-1.710396
32
13.913376
13
-2.251093
23
-1.710396
33
13.913376
0
3DFACE
8
0
70
0
10
-2.403079
20
1.710396
30
15.373177
11
-2.251093
21
1.710396
31
13.913376
12
-2.219906
22
1.563673
32
13.919695
13
-2.219906
23
1.563673
33
13.919695
0
3DFACE
8
0
70
0
10
-7.913223
20
0.529761
30
13.755222
11
-8.261237
21
0.529761
31
12.695421
12
-2.251093
22
1.710396
32
13.913376
13
-2.251093
23
1.710396
33
13.913376
0
3DFACE
8
0
70
0
10
-7.913223
20
-0.529761
30
13.755222
11
-8.230050
21
-0.383039
31
12.701740
12
-7.882035
22
-0.383039
32
13.761541
13
-7.882035
23
-0.383039
33
13.761541
0
3DFACE
8
0
70
0
10
-7.882035
20
0.383039
30
13.761541
11
-8.261237
21
0.529761
31
12.695421
12
-7.913223
22
0.529761
32
13.755222
13
-7.913223
23
0.529761
33
13.755222
0
3DFACE
8
0
70
0
10
-7.913223
20
-0.529761
30
13.755222
11
-2.371892
21
-1.563673
31
15.379496
12
-2.403079
22
-1.710396
32
15.373177
13
-2.403079
23
-1.710396
33
15.373177
0
3DFACE
8
0
70
0
10
-7.913223
20
0.529761
30
13.755222
11
-2.371892
21
1.563673
31
15.379496
12
-7.882035
22
0.383039
32
13.761541
13
-7.882035
23
0.383039
33
13.761541
0
3DFACE
8
0
70
0
10
-2.403079
20
-1.710396
30
15.373177
11
-8.261237
21
-0.529761
31
12.695421
12
-7.913223
22
-0.529761
32
13.755222
13
-7.913223
23
-0.529761
33
13.755222
0
3DFACE
8
0
70
0
10
-2.371892
20
-1.563673
30
15.379496
11
-2.251093
21
-1.710396
31
13.913376
12
-2.403079
22
-1.710396
32
15.373177
13
-2.403079
23
-1.710396
33
15.373177
0
3DFACE
8
0
70
0
10
-2.403079
20
1.710396
30
15.373177
11
-2.219906
21
1.563673
31
13.919695
12
-2.371892
22
1.563673
32
15.379496
13
-2.371892
23
1.563673
33
15.379496
0
3DFACE
8
0
70
0
10
-7.913223
20
0.529761
30
13.755222
11
-2.251093
21
1.710396
31
13.913376
12
-2.403079
22
1.710396
32
15.373177
13
-2.403079
23
1.710396
33
15.373177
0
3DFACE
8
0
70
0
10
7.913223
20
-0.529761
30
13.755222
11
7.882035
21
-0.383039
31
13.761541
12
8.230050
22
-0.383039
32
12.701740
13
8.230050
23
-0.383039
33
12.701740
0
3DFACE
8
0
70
0
10
7.882035
20
0.383039
30
13.761541
11
7.913223
21
0.529761
31
13.755222
12
8.261237
22
0.529761
32
12.695421
13
8.261237
23
0.529761
33
12.695421
0
3DFACE
8
0
70
0
10
7.913223
20
-0.529761
30
13.755222
11
2.403079
21
-1.710396
31
15.373177
12
2.371892
22
-1.563673
32
15.379496
13
2.371892
23
-1.563673
33
15.379496
0
3DFACE
8
0
70
0
10
7.913223
20
0.529761
30
13.755222
11
7.882035
21
0.383039
31
13.761541
12
2.371892
22
1.563673
32
15.379496
13
2.371892
23
1.563673
33
15.379496
0
3DFACE
8
0
70
0
10
2.403079
20
-1.710396
30
15.373177
11
7.913223
21
-0.529761
31
13.755222
12
8.261237
22
-0.529761
32
12.695421
13
8.261237
23
-0.529761
33
12.695421
0
3DFACE
8
0
70
0
10
2.371892
20
-1.563673
30
15.379496
11
2.403079
21
-1.710396
31
15.373177
12
2.251093
22
-1.710396
32
13.913376
13
2.251093
23
-1.710396
33
13.913376
0
3DFACE
8
0
70
0
10
2.403079
20
1.710396
30
15.373177
11
2.371892
21
1.563673
31
15.379496
12
2.219906
22
1.563673
32
13.919695
13
2.219906
23
1.563673
33
13.919695
0
3DFACE
8
0
70
0
10
7.913223
20
0.529761
30
13.755222
11
2.403079
21
1.710396
31
15.373177
12
2.251093
22
1.710396
32
13.913376
13
2.251093
23
1.710396
33
13.913376
0
3DFACE
8
0
70
0
10
7.913223
20
-0.529761
30
13.755222
11
8.230050
21
-0.383039
31
12.701740
12
8.261237
22
-0.529761
32
12.695421
13
8.261237
23
-0.529761
33
12.695421
0
3DFACE
8
0
70
0
10
7.882035
20
0.383039
30
13.761541
11
8.261237
21
0.529761
31
12.695421
12
8.230050
22
0.383039
32
12.701740
13
8.230050
23
0.383039
33
12.701740
0
3DFACE
8
0
70
0
10
7.913223
20
-0.529761
30
13.755222
11
2.371892
21
-1.563673
31
15.379496
12
7.882035
22
-0.383039
32
13.761541
13
7.882035
23
-0.383039
33
13.761541
0
3DFACE
8
0
70
0
10
7.913223
20
0.529761
30
13.755222
11
2.371892
21
1.563673
31
15.379496
12
2.403079
22
1.710396
32
15.373177
13
2.403079
23
1.710396
33
15.373177
0
3DFACE
8
0
70
0
10
2.403079
20
-1.710396
30
15.373177
11
8.261237
21
-0.529761
31
12.695421
12
2.251093
22
-1.710396
32
13.913376
13
2.251093
23
-1.710396
33
13.913376
0
3DFACE
8
0
70
0
10
2.371892
20
-1.563673
30
15.379496
11
2.251093
21
-1.710396
31
13.913376
12
2.219906
22
-1.563673
32
13.919695
13
2.219906
23
-1.563673
33
13.919695
0
3DFACE
8
0
70
0
10
2.403079
20
1.710396
30
15.373177
11
2.219906
21
1.563673
31
13.919695
12
2.251093
22
1.710396
32
13.913376
13
2.251093
23
1.710396
33
13.913376
0
3DFACE
8
0
70
0
10
7.913223
20
0.529761
30
13.755222
11
2.251093
21
1.710396
31
13.913376
12
8.261237
22
0.529761
32
12.695421
13
8.261237
23
0.529761
33
12.695421
0
3DFACE
8
0
70
0
10
-7.882035
20
-0.383039
30
13.761541
11
-8.230050
21
-0.383039
31
12.701740
12
-2.219906
22
-1.563673
32
13.919695
13
-2.219906
23
-1.563673
33
13.919695
0
3DFACE
8
0
70
0
10
-7.882035
20
-0.383039
30
13.761541
11
-2.219906
21
-1.563673
31
13.919695
12
-2.371892
22
-1.563673
32
15.379496
13
-2.371892
23
-1.563673
33
15.379496
0
3DFACE
8
0
70
0
10
7.882035
20
-0.383039
30
13.761541
11
2.371892
21
-1.563673
31
15.379496
12
2.219906
22
-1.563673
32
13.919695
13
2.219906
23
-1.563673
33
13.919695
0
3DFACE
8
0
70
0
10
2.371892
20
1.563673
30
15.379496
11
7.882035
21
0.383039
31
13.761541
12
8.230050
22
0.383039
32
12.701740
13
8.230050
23
0.383039
33
12.701740
0
3DFACE
8
0
70
0
10
7.882035
20
-0.383039
30
13.761541
11
2.219906
21
-1.563673
31
13.919695
12
8.230050
22
-0.383039
32
12.701740
13
8.230050
23
-0.383039
33
12.701740
0
3DFACE
8
0
70
0
10
2.371892
20
1.563673
30
15.379496
11
8.230050
21
0.383039
31
12.701740
12
2.219906
22
1.563673
32
13.919695
13
2.219906
23
1.563673
33
13.919695
0
3DFACE
8
0
70
0
10
-2.371892
20
1.563673
30
15.379496
11
-2.219906
21
1.563673
31
13.919695
12
-8.230050
22
0.383039
32
12.701740
13
-8.230050
23
0.383039
33
12.701740
0
3DFACE
8
0
70
0
10
-2.371892
20
1.563673
30
15.379496
11
-8.230050
21
0.383039
31
12.701740
12
-7.882035
22
0.383039
32
13.761541
13
-7.882035
23
0.383039
33
13.761541
0
3DFACE
8
0
70
0
10
5.046608
20
1.676920
30
10.916500
11
8.550000
21
1.134679
31
10.916500
12
8.325000
22
1.134679
32
12.682499
13
8.325000
23
1.134679
33
12.682499
0
3DFACE
8
0
70
0
10
5.046608
20
1.676920
30
10.916500
11
1.248747
21
2.145600
31
14.116501
12
2.148747
22
2.145600
32
10.916500
13
2.148747
23
2.145600
33
10.916500
0
3DFACE
8
0
70
0
10
-2.148747
20
2.145600
30
10.916500
11
2.148747
21
2.145600
31
10.916500
12
1.248747
22
2.145600
32
14.116501
13
1.248747
23
2.145600
33
14.116501
0
3DFACE
8
0
70
0
10
-2.148747
20
2.145600
30
10.916500
11
-1.271473
21
2.151200
31
14.116501
12
-5.046608
22
1.676920
32
10.916500
13
-5.046608
23
1.676920
33
10.916500
0
3DFACE
8
0
70
0
10
-5.046608
20
1.676920
30
10.916500
11
-1.271473
21
2.151200
31
14.116501
12
-8.325000
22
1.134679
32
12.682499
13
-8.325000
23
1.134679
33
12.682499
0
3DFACE
8
0
70
0
10
5.046608
20
-1.676920
30
10.916500
11
1.248747
21
-2.145600
31
14.116501
12
8.325000
22
-1.134679
32
12.682499
13
8.325000
23
-1.134679
33
12.682499
0
3DFACE
8
0
70
0
10
5.046608
20
-1.676920
30
10.916500
11
2.148747
21
-2.145600
31
10.916500
12
1.248747
22
-2.145600
32
14.116501
13
1.248747
23
-2.145600
33
14.116501
0
3DFACE
8
0
70
0
10
-2.148747
20
-2.145600
30
10.916500
11
-1.268747
21
-2.145600
31
14.116501
12
1.248747
22
-2.145600
32
14.116501
13
1.248747
23
-2.145600
33
14.116501
0
3DFACE
8
0
70
0
10
-2.148747
20
-2.145600
30
10.916500
11
-5.046608
21
-1.676920
31
10.916500
12
-1.268747
22
-2.145600
32
14.116501
13
-1.268747
23
-2.145600
33
14.116501
0
3DFACE
8
0
70
0
10
-5.046608
20
-1.676920
30
10.916500
11
-8.550000
21
-1.134679
31
10.916500
12
-8.325000
22
-1.134679
32
12.682499
13
-8.325000
23
-1.134679
33
12.682499
0
3DFACE
8
0
70
0
10
5.046608
20
1.676920
30
10.916500
11
8.325000
21
1.134679
31
12.682499
12
1.248747
22
2.145600
32
14.116501
13
1.248747
23
2.145600
33
14.116501
0
3DFACE
8
0
70
0
10
-2.148747
20
2.145600
30
10.916500
11
1.248747
21
2.145600
31
14.116501
12
-1.271473
22
2.151200
32
14.116501
13
-1.271473
23
2.151200
33
14.116501
0
3DFACE
8
0
70
0
10
-5.046608
20
1.676920
30
10.916500
11
-8.325000
21
1.134679
31
12.682499
12
-8.550000
22
1.134679
32
10.916500
13
-8.550000
23
1.134679
33
10.916500
0
3DFACE
8
0
70
0
10
5.046608
20
-1.676920
30
10.916500
11
8.325000
21
-1.134679
31
12.682499
12
8.550000
22
-1.134679
32
10.916500
13
8.550000
23
-1.134679
33
10.916500
0
3DFACE
8
0
70
0
10
-2.148747
20
-2.145600
30
10.916500
11
1.248747
21
-2.145600
31
14.116501
12
2.148747
22
-2.145600
32
10.916500
13
2.148747
23
-2.145600
33
10.916500
0
3DFACE
8
0
70
0
10
-5.046608
20
-1.676920
30
10.916500
11
-8.325000
21
-1.134679
31
12.682499
12
-1.268747
22
-2.145600
32
14.116501
13
-1.268747
23
-2.145600
33
14.116501
0
3DFACE
8
0
70
0
10
5.130000
20
2.507614
30
10.916500
11
5.130000
21
2.476524
31
13.359423
12
8.325000
22
1.134679
32
12.682499
13
8.325000
23
1.134679
33
12.682499
0
3DFACE
8
0
70
0
10
-1.078817
20
2.528291
30
13.048164
11
1.078817
21
2.528291
31
13.048164
12
0.942617
22
2.758200
32
10.916500
13
0.942617
23
2.758200
33
10.916500
0
3DFACE
8
0
70
0
10
2.182817
20
3.185000
30
10.916500
11
0.942617
21
2.758200
31
10.916500
12
1.078817
22
2.528291
32
13.048164
13
1.078817
23
2.528291
33
13.048164
0
3DFACE
8
0
70
0
10
-0.942617
20
2.758200
30
10.916500
11
-2.182817
21
3.185000
31
10.916500
12
-2.087470
22
3.185000
32
13.865599
13
-2.087470
23
3.185000
33
13.865599
0
3DFACE
8
0
70
0
10
-2.182817
20
3.185000
30
10.916500
11
-5.130000
21
2.507614
31
10.916500
12
-5.130000
22
2.476524
32
13.359423
13
-5.130000
23
2.476524
33
13.359423
0
3DFACE
8
0
70
0
10
2.182817
20
3.185000
30
10.916500
11
2.037470
21
3.185000
31
13.865599
12
5.130000
22
2.476524
32
13.359423
13
5.130000
23
2.476524
33
13.359423
0
3DFACE
8
0
70
0
10
-5.130000
20
2.507614
30
10.916500
11
-8.550000
21
1.134679
31
10.916500
12
-8.325000
22
1.134679
32
12.682499
13
-8.325000
23
1.134679
33
12.682499
0
3DFACE
8
0
70
0
10
5.130000
20
-2.507614
30
10.916500
11
8.550000
21
-1.134679
31
10.916500
12
8.325000
22
-1.134679
32
12.682499
13
8.325000
23
-1.134679
33
12.682499
0
3DFACE
8
0
70
0
10
-1.078817
20
-2.528291
30
13.048164
11
-0.942617
21
-2.758200
31
10.916500
12
0.942617
22
-2.758200
32
10.916500
13
0.942617
23
-2.758200
33
10.916500
0
3DFACE
8
0
70
0
10
2.182817
20
-3.185000
30
10.916500
11
2.037470
21
-3.185000
31
13.865599
12
1.078817
22
-2.528291
32
13.048164
13
1.078817
23
-2.528291
33
13.048164
0
3DFACE
8
0
70
0
10
-0.942617
20
-2.758200
30
10.916500
11
-1.078817
21
-2.528291
31
13.048164
12
-2.087470
22
-3.185000
32
13.865599
13
-2.087470
23
-3.185000
33
13.865599
0
3DFACE
8
0
70
0
10
-2.182817
20
-3.185000
30
10.916500
11
-2.087470
21
-3.185000
31
13.865599
12
-5.130000
22
-2.476524
32
13.359423
13
-5.130000
23
-2.476524
33
13.359423
0
3DFACE
8
0
70
0
10
2.182817
20
-3.185000
30
10.916500
11
5.130000
21
-2.507614
31
10.916500
12
5.130000
22
-2.476524
32
13.359423
13
5.130000
23
-2.476524
33
13.359423
0
3DFACE
8
0
70
0
10
-5.130000
20
-2.507614
30
10.916500
11
-5.130000
21
-2.476524
31
13.359423
12
-8.325000
22
-1.134679
32
12.682499
13
-8.325000
23
-1.134679
33
12.682499
0
3DFACE
8
0
70
0
10
5.130000
20
2.507614
30
10.916500
11
8.325000
21
1.134679
31
12.682499
12
8.550000
22
1.134679
32
10.916500
13
8.550000
23
1.134679
33
10.916500
0
3DFACE
8
0
70
0
10
-1.078817
20
2.528291
30
13.048164
11
0.942617
21
2.758200
31
10.916500
12
-0.942617
22
2.758200
32
10.916500
13
-0.942617
23
2.758200
33
10.916500
0
3DFACE
8
0
70
0
10
2.182817
20
3.185000
30
10.916500
11
1.078817
21
2.528291
31
13.048164
12
2.037470
22
3.185000
32
13.865599
13
2.037470
23
3.185000
33
13.865599
0
3DFACE
8
0
70
0
10
-0.942617
20
2.758200
30
10.916500
11
-2.087470
21
3.185000
31
13.865599
12
-1.078817
22
2.528291
32
13.048164
13
-1.078817
23
2.528291
33
13.048164
0
3DFACE
8
0
70
0
10
-2.182817
20
3.185000
30
10.916500
11
-5.130000
21
2.476524
31
13.359423
12
-2.087470
22
3.185000
32
13.865599
13
-2.087470
23
3.185000
33
13.865599
0
3DFACE
8
0
70
0
10
2.182817
20
3.185000
30
10.916500
11
5.130000
21
2.476524
31
13.359423
12
5.130000
22
2.507614
32
10.916500
13
5.130000
23
2.507614
33
10.916500
0
3DFACE
8
0
70
0
10
-5.130000
20
2.507614
30
10.916500
11
-8.325000
21
1.134679
31
12.682499
12
-5.130000
22
2.476524
32
13.359423
13
-5.130000
23
2.476524
33
13.359423
0
3DFACE
8
0
70
0
10
5.130000
20
-2.507614
30
10.916500
11
8.325000
21
-1.134679
31
12.682499
12
5.130000
22
-2.476524
32
13.359423
13
5.130000
23
-2.476524
33
13.359423
0
3DFACE
8
0
70
0
10
-1.078817
20
-2.528291
30
13.048164
11
0.942617
21
-2.758200
31
10.916500
12
1.078817
22
-2.528291
32
13.048164
13
1.078817
23
-2.528291
33
13.048164
0
3DFACE
8
0
70
0
10
2.182817
20
-3.185000
30
10.916500
11
1.078817
21
-2.528291
31
13.048164
12
0.942617
22
-2.758200
32
10.916500
13
0.942617
23
-2.758200
33
10.916500
0
3DFACE
8
0
70
0
10
-0.942617
20
-2.758200
30
10.916500
11
-2.087470
21
-3.185000
31
13.865599
12
-2.182817
22
-3.185000
32
10.916500
13
-2.182817
23
-3.185000
33
10.916500
0
3DFACE
8
0
70
0
10
-2.182817
20
-3.185000
30
10.916500
11
-5.130000
21
-2.476524
31
13.359423
12
-5.130000
22
-2.507614
32
10.916500
13
-5.130000
23
-2.507614
33
10.916500
0
3DFACE
8
0
70
0
10
2.182817
20
-3.185000
30
10.916500
11
5.130000
21
-2.476524
31
13.359423
12
2.037470
22
-3.185000
32
13.865599
13
2.037470
23
-3.185000
33
13.865599
0
3DFACE
8
0
70
0
10
-5.130000
20
-2.507614
30
10.916500
11
-8.325000
21
-1.134679
31
12.682499
12
-8.550000
22
-1.134679
32
10.916500
13
-8.550000
23
-1.134679
33
10.916500
0
3DFACE
8
0
70
0
10
-8.938729
20
0.897697
30
12.577099
11
-8.938729
21
-0.897697
31
12.577099
12
-9.800000
22
-0.400000
32
14.016500
13
-9.800000
23
-0.400000
33
14.016500
0
3DFACE
8
0
70
0
10
8.938729
20
0.897697
30
12.577099
11
9.800000
21
0.400000
31
14.016500
12
9.800000
22
-0.400000
32
14.016500
13
9.800000
23
-0.400000
33
14.016500
0
3DFACE
8
0
70
0
10
-8.261237
20
0.529761
30
12.695421
11
-8.261237
21
-0.529761
31
12.695421
12
-8.325000
22
-1.134679
32
12.682499
13
-8.325000
23
-1.134679
33
12.682499
0
3DFACE
8
0
70
0
10
-8.230050
20
0.383039
30
12.701740
11
-8.230050
21
-0.383039
31
12.701740
12
-8.261237
22
-0.529761
32
12.695421
13
-8.261237
23
-0.529761
33
12.695421
0
3DFACE
8
0
70
0
10
8.261237
20
0.529761
30
12.695421
11
8.325000
21
1.134679
31
12.682499
12
8.325000
22
-1.134679
32
12.682499
13
8.325000
23
-1.134679
33
12.682499
0
3DFACE
8
0
70
0
10
8.230050
20
0.383039
30
12.701740
11
8.261237
21
0.529761
31
12.695421
12
8.261237
22
-0.529761
32
12.695421
13
8.261237
23
-0.529761
33
12.695421
0
3DFACE
8
0
70
0
10
8.325000
20
-1.134679
30
12.682499
11
8.325000
21
1.134679
31
12.682499
12
8.938729
22
0.897697
32
12.577099
13
8.938729
23
0.897697
33
12.577099
0
3DFACE
8
0
70
0
10
-8.325000
20
-1.134679
30
12.682499
11
-8.938729
21
-0.897697
31
12.577099
12
-8.938729
22
0.897697
32
12.577099
13
-8.938729
23
0.897697
33
12.577099
0
3DFACE
8
0
70
0
10
8.938729
20
0.897697
30
12.577099
11
8.325000
21
1.134679
31
12.682499
12
8.500000
22
1.246900
32
12.682499
13
8.500000
23
1.246900
33
12.682499
0
3DFACE
8
0
70
0
10
-8.938729
20
0.897697
30
12.577099
11
-8.500000
21
1.246900
31
12.682499
12
-8.325000
22
1.134679
32
12.682499
13
-8.325000
23
1.134679
33
12.682499
0
3DFACE
8
0
70
0
10
8.938729
20
-0.897697
30
12.577099
11
8.500000
21
-1.246900
31
12.682499
12
8.325000
22
-1.134679
32
12.682499
13
8.325000
23
-1.134679
33
12.682499
0
3DFACE
8
0
70
0
10
-8.938729
20
-0.897697
30
12.577099
11
-8.325000
21
-1.134679
31
12.682499
12
-8.500000
22
-1.246900
32
12.682499
13
-8.500000
23
-1.246900
33
12.682499
0
3DFACE
8
0
70
0
10
-2.219906
20
1.563673
30
13.919695
11
-2.219906
21
-1.563673
31
13.919695
12
-8.230050
22
-0.383039
32
12.701740
13
-8.230050
23
-0.383039
33
12.701740
0
3DFACE
8
0
70
0
10
-1.268747
20
-2.145600
30
14.116501
11
-8.325000
21
-1.134679
31
12.682499
12
-8.261237
22
-0.529761
32
12.695421
13
-8.261237
23
-0.529761
33
12.695421
0
3DFACE
8
0
70
0
10
-1.268747
20
-2.145600
30
14.116501
11
-2.251093
21
-1.710396
31
13.913376
12
-2.219906
22
-1.563673
32
13.919695
13
-2.219906
23
-1.563673
33
13.919695
0
3DFACE
8
0
70
0
10
-1.271473
20
2.151200
30
14.116501
11
-1.268747
21
-2.145600
31
14.116501
12
-2.219906
22
-1.563673
32
13.919695
13
-2.219906
23
-1.563673
33
13.919695
0
3DFACE
8
0
70
0
10
-1.271473
20
2.151200
30
14.116501
11
-2.219906
21
1.563673
31
13.919695
12
-2.251093
22
1.710396
32
13.913376
13
-2.251093
23
1.710396
33
13.913376
0
3DFACE
8
0
70
0
10
-1.271473
20
2.151200
30
14.116501
11
-2.251093
21
1.710396
31
13.913376
12
-8.261237
22
0.529761
32
12.695421
13
-8.261237
23
0.529761
33
12.695421
0
3DFACE
8
0
70
0
10
2.219906
20
1.563673
30
13.919695
11
8.230050
21
0.383039
31
12.701740
12
8.230050
22
-0.383039
32
12.701740
13
8.230050
23
-0.383039
33
12.701740
0
3DFACE
8
0
70
0
10
1.248747
20
-2.145600
30
14.116501
11
2.251093
21
-1.710396
31
13.913376
12
8.261237
22
-0.529761
32
12.695421
13
8.261237
23
-0.529761
33
12.695421
0
3DFACE
8
0
70
0
10
1.248747
20
-2.145600
30
14.116501
11
2.219906
21
-1.563673
31
13.919695
12
2.251093
22
-1.710396
32
13.913376
13
2.251093
23
-1.710396
33
13.913376
0
3DFACE
8
0
70
0
10
1.248747
20
2.145600
30
14.116501
11
2.219906
21
1.563673
31
13.919695
12
2.219906
22
-1.563673
32
13.919695
13
2.219906
23
-1.563673
33
13.919695
0
3DFACE
8
0
70
0
10
1.248747
20
2.145600
30
14.116501
11
2.251093
21
1.710396
31
13.913376
12
2.219906
22
1.563673
32
13.919695
13
2.219906
23
1.563673
33
13.919695
0
3DFACE
8
0
70
0
10
1.248747
20
2.145600
30
14.116501
11
8.325000
21
1.134679
31
12.682499
12
8.261237
22
0.529761
32
12.695421
13
8.261237
23
0.529761
33
12.695421
0
3DFACE
8
0
70
0
10
-1.271473
20
2.151200
30
14.116501
11
1.248747
21
2.145600
31
14.116501
12
1.248747
22
-2.145600
32
14.116501
13
1.248747
23
-2.145600
33
14.116501
0
3DFACE
8
0
70
0
10
2.148747
20
2.145600
30
10.916500
11
2.182817
21
3.185000
31
10.916500
12
5.130000
22
2.507614
32
10.916500
13
5.130000
23
2.507614
33
10.916500
0
3DFACE
8
0
70
0
10
2.148747
20
2.145600
30
10.916500
11
0.942617
21
2.758200
31
10.916500
12
2.182817
22
3.185000
32
10.916500
13
2.182817
23
3.185000
33
10.916500
0
3DFACE
8
0
70
0
10
-0.942617
20
2.758200
30
10.916500
11
0.942617
21
2.758200
31
10.916500
12
2.148747
22
2.145600
32
10.916500
13
2.148747
23
2.145600
33
10.916500
0
3DFACE
8
0
70
0
10
-2.182817
20
3.185000
30
10.916500
11
-0.942617
21
2.758200
31
10.916500
12
-2.148747
22
2.145600
32
10.916500
13
-2.148747
23
2.145600
33
10.916500
0
3DFACE
8
0
70
0
10
-2.148747
20
2.145600
30
10.916500
11
-5.046608
21
1.676920
31
10.916500
12
-5.130000
22
2.507614
32
10.916500
13
-5.130000
23
2.507614
33
10.916500
0
3DFACE
8
0
70
0
10
8.550000
20
1.134679
30
10.916500
11
5.046608
21
1.676920
31
10.916500
12
5.130000
22
2.507614
32
10.916500
13
5.130000
23
2.507614
33
10.916500
0
3DFACE
8
0
70
0
10
-8.550000
20
1.134679
30
10.916500
11
-5.130000
21
2.507614
31
10.916500
12
-5.046608
22
1.676920
32
10.916500
13
-5.046608
23
1.676920
33
10.916500
0
3DFACE
8
0
70
0
10
2.148747
20
-2.145600
30
10.916500
11
5.046608
21
-1.676920
31
10.916500
12
5.130000
22
-2.507614
32
10.916500
13
5.130000
23
-2.507614
33
10.916500
0
3DFACE
8
0
70
0
10
2.148747
20
-2.145600
30
10.916500
11
2.182817
21
-3.185000
31
10.916500
12
0.942617
22
-2.758200
32
10.916500
13
0.942617
23
-2.758200
33
10.916500
0
3DFACE
8
0
70
0
10
-0.942617
20
-2.758200
30
10.916500
11
-2.148747
21
-2.145600
31
10.916500
12
2.148747
22
-2.145600
32
10.916500
13
2.148747
23
-2.145600
33
10.916500
0
3DFACE
8
0
70
0
10
-2.182817
20
-3.185000
30
10.916500
11
-2.148747
21
-2.145600
31
10.916500
12
-0.942617
22
-2.758200
32
10.916500
13
-0.942617
23
-2.758200
33
10.916500
0
3DFACE
8
0
70
0
10
-2.148747
20
-2.145600
30
10.916500
11
-2.182817
21
-3.185000
31
10.916500
12
-5.130000
22
-2.507614
32
10.916500
13
-5.130000
23
-2.507614
33
10.916500
0
3DFACE
8
0
70
0
10
8.550000
20
-1.134679
30
10.916500
11
5.130000
21
-2.507614
31
10.916500
12
5.046608
22
-1.676920
32
10.916500
13
5.046608
23
-1.676920
33
10.916500
0
3DFACE
8
0
70
0
10
-8.550000
20
-1.134679
30
10.916500
11
-5.046608
21
-1.676920
31
10.916500
12
-5.130000
22
-2.507614
32
10.916500
13
-5.130000
23
-2.507614
33
10.916500
0
3DFACE
8
0
70
0
10
8.325000
20
1.134679
30
12.682499
11
5.130000
21
2.476524
31
13.359423
12
5.400000
22
2.721455
32
13.359423
13
5.400000
23
2.721455
33
13.359423
0
3DFACE
8
0
70
0
10
-8.325000
20
1.134679
30
12.682499
11
-8.500000
21
1.246900
31
12.682499
12
-5.400000
22
2.721455
32
13.359423
13
-5.400000
23
2.721455
33
13.359423
0
3DFACE
8
0
70
0
10
1.078817
20
2.841565
30
13.081091
11
2.152600
21
3.500000
31
13.865599
12
2.037470
22
3.185000
32
13.865599
13
2.037470
23
3.185000
33
13.865599
0
3DFACE
8
0
70
0
10
-2.202600
20
3.500000
30
13.865599
11
-1.078817
21
2.841565
31
13.081091
12
-1.078817
22
2.528291
32
13.048164
13
-1.078817
23
2.528291
33
13.048164
0
3DFACE
8
0
70
0
10
-1.078817
20
2.841565
30
13.081091
11
1.078817
21
2.841565
31
13.081091
12
1.078817
22
2.528291
32
13.048164
13
1.078817
23
2.528291
33
13.048164
0
3DFACE
8
0
70
0
10
-5.130000
20
2.476524
30
13.359423
11
-5.400000
21
2.721455
31
13.359423
12
-2.202600
22
3.500000
32
13.865599
13
-2.202600
23
3.500000
33
13.865599
0
3DFACE
8
0
70
0
10
2.037470
20
3.185000
30
13.865599
11
2.152600
21
3.500000
31
13.865599
12
5.400000
22
2.721455
32
13.359423
13
5.400000
23
2.721455
33
13.359423
0
3DFACE
8
0
70
0
10
8.325000
20
-1.134679
30
12.682499
11
8.500000
21
-1.246900
31
12.682499
12
5.400000
22
-2.721455
32
13.359423
13
5.400000
23
-2.721455
33
13.359423
0
3DFACE
8
0
70
0
10
-8.325000
20
-1.134679
30
12.682499
11
-5.130000
21
-2.476524
31
13.359423
12
-5.400000
22
-2.721455
32
13.359423
13
-5.400000
23
-2.721455
33
13.359423
0
3DFACE
8
0
70
0
10
1.078817
20
-2.841565
30
13.081091
11
1.078817
21
-2.528291
31
13.048164
12
2.037470
22
-3.185000
32
13.865599
13
2.037470
23
-3.185000
33
13.865599
0
3DFACE
8
0
70
0
10
-2.202600
20
-3.500000
30
13.865599
11
-2.087470
21
-3.185000
31
13.865599
12
-1.078817
22
-2.528291
32
13.048164
13
-1.078817
23
-2.528291
33
13.048164
0
3DFACE
8
0
70
0
10
-1.078817
20
-2.841565
30
13.081091
11
-1.078817
21
-2.528291
31
13.048164
12
1.078817
22
-2.528291
32
13.048164
13
1.078817
23
-2.528291
33
13.048164
0
3DFACE
8
0
70
0
10
-5.130000
20
-2.476524
30
13.359423
11
-2.087470
21
-3.185000
31
13.865599
12
-2.202600
22
-3.500000
32
13.865599
13
-2.202600
23
-3.500000
33
13.865599
0
3DFACE
8
0
70
0
10
2.037470
20
-3.185000
30
13.865599
11
5.130000
21
-2.476524
31
13.359423
12
5.400000
22
-2.721455
32
13.359423
13
5.400000
23
-2.721455
33
13.359423
0
3DFACE
8
0
70
0
10
-8.938729
20
0.897697
30
12.577099
11
-9.800000
21
-0.400000
31
14.016500
12
-9.800000
22
0.400000
32
14.016500
13
-9.800000
23
0.400000
33
14.016500
0
3DFACE
8
0
70
0
10
8.938729
20
0.897697
30
12.577099
11
9.800000
21
-0.400000
31
14.016500
12
8.938729
22
-0.897697
32
12.577099
13
8.938729
23
-0.897697
33
12.577099
0
3DFACE
8
0
70
0
10
-8.261237
20
0.529761
30
12.695421
11
-8.325000
21
-1.134679
31
12.682499
12
-8.325000
22
1.134679
32
12.682499
13
-8.325000
23
1.134679
33
12.682499
0
3DFACE
8
0
70
0
10
-8.230050
20
0.383039
30
12.701740
11
-8.261237
21
-0.529761
31
12.695421
12
-8.261237
22
0.529761
32
12.695421
13
-8.261237
23
0.529761
33
12.695421
0
3DFACE
8
0
70
0
10
8.261237
20
0.529761
30
12.695421
11
8.325000
21
-1.134679
31
12.682499
12
8.261237
22
-0.529761
32
12.695421
13
8.261237
23
-0.529761
33
12.695421
0
3DFACE
8
0
70
0
10
8.230050
20
0.383039
30
12.701740
11
8.261237
21
-0.529761
31
12.695421
12
8.230050
22
-0.383039
32
12.701740
13
8.230050
23
-0.383039
33
12.701740
0
3DFACE
8
0
70
0
10
8.325000
20
-1.134679
30
12.682499
11
8.938729
21
0.897697
31
12.577099
12
8.938729
22
-0.897697
32
12.577099
13
8.938729
23
-0.897697
33
12.577099
0
3DFACE
8
0
70
0
10
-8.325000
20
-1.134679
30
12.682499
11
-8.938729
21
0.897697
31
12.577099
12
-8.325000
22
1.134679
32
12.682499
13
-8.325000
23
1.134679
33
12.682499
0
3DFACE
8
0
70
0
10
-2.219906
20
1.563673
30
13.919695
11
-8.230050
21
-0.383039
31
12.701740
12
-8.230050
22
0.383039
32
12.701740
13
-8.230050
23
0.383039
33
12.701740
0
3DFACE
8
0
70
0
10
-1.268747
20
-2.145600
30
14.116501
11
-8.261237
21
-0.529761
31
12.695421
12
-2.251093
22
-1.710396
32
13.913376
13
-2.251093
23
-1.710396
33
13.913376
0
3DFACE
8
0
70
0
10
-1.271473
20
2.151200
30
14.116501
11
-2.219906
21
-1.563673
31
13.919695
12
-2.219906
22
1.563673
32
13.919695
13
-2.219906
23
1.563673
33
13.919695
0
3DFACE
8
0
70
0
10
-1.271473
20
2.151200
30
14.116501
11
-8.261237
21
0.529761
31
12.695421
12
-8.325000
22
1.134679
32
12.682499
13
-8.325000
23
1.134679
33
12.682499
0
3DFACE
8
0
70
0
10
2.219906
20
1.563673
30
13.919695
11
8.230050
21
-0.383039
31
12.701740
12
2.219906
22
-1.563673
32
13.919695
13
2.219906
23
-1.563673
33
13.919695
0
3DFACE
8
0
70
0
10
1.248747
20
-2.145600
30
14.116501
11
8.261237
21
-0.529761
31
12.695421
12
8.325000
22
-1.134679
32
12.682499
13
8.325000
23
-1.134679
33
12.682499
0
3DFACE
8
0
70
0
10
1.248747
20
2.145600
30
14.116501
11
2.219906
21
-1.563673
31
13.919695
12
1.248747
22
-2.145600
32
14.116501
13
1.248747
23
-2.145600
33
14.116501
0
3DFACE
8
0
70
0
10
1.248747
20
2.145600
30
14.116501
11
8.261237
21
0.529761
31
12.695421
12
2.251093
22
1.710396
32
13.913376
13
2.251093
23
1.710396
33
13.913376
0
3DFACE
8
0
70
0
10
-1.271473
20
2.151200
30
14.116501
11
1.248747
21
-2.145600
31
14.116501
12
-1.268747
22
-2.145600
32
14.116501
13
-1.268747
23
-2.145600
33
14.116501
0
3DFACE
8
0
70
0
10
2.148747
20
2.145600
30
10.916500
11
5.130000
21
2.507614
31
10.916500
12
5.046608
22
1.676920
32
10.916500
13
5.046608
23
1.676920
33
10.916500
0
3DFACE
8
0
70
0
10
-0.942617
20
2.758200
30
10.916500
11
2.148747
21
2.145600
31
10.916500
12
-2.148747
22
2.145600
32
10.916500
13
-2.148747
23
2.145600
33
10.916500
0
3DFACE
8
0
70
0
10
-2.148747
20
2.145600
30
10.916500
11
-5.130000
21
2.507614
31
10.916500
12
-2.182817
22
3.185000
32
10.916500
13
-2.182817
23
3.185000
33
10.916500
0
3DFACE
8
0
70
0
10
2.148747
20
-2.145600
30
10.916500
11
5.130000
21
-2.507614
31
10.916500
12
2.182817
22
-3.185000
32
10.916500
13
2.182817
23
-3.185000
33
10.916500
0
3DFACE
8
0
70
0
10
-0.942617
20
-2.758200
30
10.916500
11
2.148747
21
-2.145600
31
10.916500
12
0.942617
22
-2.758200
32
10.916500
13
0.942617
23
-2.758200
33
10.916500
0
3DFACE
8
0
70
0
10
-2.148747
20
-2.145600
30
10.916500
11
-5.130000
21
-2.507614
31
10.916500
12
-5.046608
22
-1.676920
32
10.916500
13
-5.046608
23
-1.676920
33
10.916500
0
3DFACE
8
0
70
0
10
8.325000
20
1.134679
30
12.682499
11
5.400000
21
2.721455
31
13.359423
12
8.500000
22
1.246900
32
12.682499
13
8.500000
23
1.246900
33
12.682499
0
3DFACE
8
0
70
0
10
-8.325000
20
1.134679
30
12.682499
11
-5.400000
21
2.721455
31
13.359423
12
-5.130000
22
2.476524
32
13.359423
13
-5.130000
23
2.476524
33
13.359423
0
3DFACE
8
0
70
0
10
1.078817
20
2.841565
30
13.081091
11
2.037470
21
3.185000
31
13.865599
12
1.078817
22
2.528291
32
13.048164
13
1.078817
23
2.528291
33
13.048164
0
3DFACE
8
0
70
0
10
-2.202600
20
3.500000
30
13.865599
11
-1.078817
21
2.528291
31
13.048164
12
-2.087470
22
3.185000
32
13.865599
13
-2.087470
23
3.185000
33
13.865599
0
3DFACE
8
0
70
0
10
-1.078817
20
2.841565
30
13.081091
11
1.078817
21
2.528291
31
13.048164
12
-1.078817
22
2.528291
32
13.048164
13
-1.078817
23
2.528291
33
13.048164
0
3DFACE
8
0
70
0
10
-5.130000
20
2.476524
30
13.359423
11
-2.202600
21
3.500000
31
13.865599
12
-2.087470
22
3.185000
32
13.865599
13
-2.087470
23
3.185000
33
13.865599
0
3DFACE
8
0
70
0
10
2.037470
20
3.185000
30
13.865599
11
5.400000
21
2.721455
31
13.359423
12
5.130000
22
2.476524
32
13.359423
13
5.130000
23
2.476524
33
13.359423
0
3DFACE
8
0
70
0
10
8.325000
20
-1.134679
30
12.682499
11
5.400000
21
-2.721455
31
13.359423
12
5.130000
22
-2.476524
32
13.359423
13
5.130000
23
-2.476524
33
13.359423
0
3DFACE
8
0
70
0
10
-8.325000
20
-1.134679
30
12.682499
11
-5.400000
21
-2.721455
31
13.359423
12
-8.500000
22
-1.246900
32
12.682499
13
-8.500000
23
-1.246900
33
12.682499
0
3DFACE
8
0
70
0
10
1.078817
20
-2.841565
30
13.081091
11
2.037470
21
-3.185000
31
13.865599
12
2.152600
22
-3.500000
32
13.865599
13
2.152600
23
-3.500000
33
13.865599
0
3DFACE
8
0
70
0
10
-2.202600
20
-3.500000
30
13.865599
11
-1.078817
21
-2.528291
31
13.048164
12
-1.078817
22
-2.841565
32
13.081091
13
-1.078817
23
-2.841565
33
13.081091
0
3DFACE
8
0
70
0
10
-1.078817
20
-2.841565
30
13.081091
11
1.078817
21
-2.528291
31
13.048164
12
1.078817
22
-2.841565
32
13.081091
13
1.078817
23
-2.841565
33
13.081091
0
3DFACE
8
0
70
0
10
-5.130000
20
-2.476524
30
13.359423
11
-2.202600
21
-3.500000
31
13.865599
12
-5.400000
22
-2.721455
32
13.359423
13
-5.400000
23
-2.721455
33
13.359423
0
3DFACE
8
0
70
0
10
2.037470
20
-3.185000
30
13.865599
11
5.400000
21
-2.721455
31
13.359423
12
2.152600
22
-3.500000
32
13.865599
13
2.152600
23
-3.500000
33
13.865599
0
3DFACE
8
0
70
0
10
-2.280000
20
1.419936
30
-9.943501
11
-2.280000
21
0.788998
31
-9.943493
12
-2.280000
22
0.750002
32
-11.143500
13
-2.280000
23
0.750002
33
-11.143500
0
3DFACE
8
0
70
0
10
-2.280000
20
0.750002
30
-11.143500
11
-1.780000
21
1.729520
31
-11.150880
12
-1.933333
22
2.040400
32
-10.081500
13
-1.933333
23
2.040400
33
-10.081500
0
3DFACE
8
0
70
0
10
-0.020000
20
0.647093
30
-11.143500
11
-0.020000
21
1.419936
31
-9.943501
12
-0.366667
22
2.040400
32
-10.081500
13
-0.366667
23
2.040400
33
-10.081500
0
3DFACE
8
0
70
0
10
-0.020000
20
0.647093
30
-11.143500
11
-0.020000
21
0.760521
31
-9.943501
12
-0.020000
22
1.419936
32
-9.943501
13
-0.020000
23
1.419936
33
-9.943501
0
3DFACE
8
0
70
0
10
-2.280000
20
1.838900
30
-8.383488
11
-2.280000
21
1.419936
31
-9.943501
12
-1.933333
22
2.040400
32
-10.081500
13
-1.933333
23
2.040400
33
-10.081500
0
3DFACE
8
0
70
0
10
-0.020000
20
1.419936
30
-9.943501
11
-0.020000
21
1.838900
31
-8.383501
12
-0.266667
22
2.130400
32
-8.383500
13
-0.266667
23
2.130400
33
-8.383500
0
3DFACE
8
0
70
0
10
-2.280000
20
1.419936
30
-9.943501
11
-2.280000
21
1.838900
31
-8.383488
12
-2.280000
22
1.093903
32
-8.383488
13
-2.280000
23
1.093903
33
-8.383488
0
3DFACE
8
0
70
0
10
-1.933333
20
2.130400
30
-8.383500
11
-1.783333
21
2.580400
31
-4.883501
12
-1.933333
22
2.480400
32
-4.883501
13
-1.933333
23
2.480400
33
-4.883501
0
3DFACE
8
0
70
0
10
-1.933333
20
2.110454
30
-4.883501
11
-2.280000
21
1.093903
31
-8.383488
12
-2.280000
22
1.838900
32
-8.383488
13
-2.280000
23
1.838900
33
-8.383488
0
3DFACE
8
0
70
0
10
-1.783333
20
2.580400
30
-4.883501
11
-1.800000
21
2.683332
31
-3.083500
12
-1.933333
22
2.480400
32
-4.883501
13
-1.933333
23
2.480400
33
-4.883501
0
3DFACE
8
0
70
0
10
-1.933333
20
2.110454
30
-4.883501
11
-1.933333
21
2.480400
31
-4.883501
12
-1.800000
22
2.683332
32
-3.083500
13
-1.800000
23
2.683332
33
-3.083500
0
3DFACE
8
0
70
0
10
-0.020000
20
1.419936
30
-9.943501
11
-0.020000
21
0.760521
31
-9.943501
12
-0.020000
22
1.548282
32
-8.383500
13
-0.020000
23
1.548282
33
-8.383500
0
3DFACE
8
0
70
0
10
-0.266667
20
2.130400
30
-8.383500
11
-0.020000
21
1.838900
31
-8.383501
12
-0.266667
22
2.480400
32
-4.883501
13
-0.266667
23
2.480400
33
-4.883501
0
3DFACE
8
0
70
0
10
-0.266667
20
2.442225
30
-4.883501
11
-0.266667
21
2.480400
31
-4.883501
12
-0.020000
22
1.838900
32
-8.383501
13
-0.020000
23
1.838900
33
-8.383501
0
3DFACE
8
0
70
0
10
-0.416667
20
2.580400
30
-4.883501
11
-0.266667
21
2.480400
31
-4.883501
12
-0.400000
22
2.730400
32
-3.083500
13
-0.400000
23
2.730400
33
-3.083500
0
3DFACE
8
0
70
0
10
-0.400000
20
2.730400
30
-3.083500
11
-0.266667
21
2.480400
31
-4.883501
12
-0.266667
22
2.442225
32
-4.883501
13
-0.266667
23
2.442225
33
-4.883501
0
3DFACE
8
0
70
0
10
-2.280000
20
0.750002
30
-11.143500
11
-1.933333
21
2.040400
31
-10.081500
12
-2.280000
22
1.419936
32
-9.943501
13
-2.280000
23
1.419936
33
-9.943501
0
3DFACE
8
0
70
0
10
-0.020000
20
0.647093
30
-11.143500
11
-0.366667
21
2.040400
31
-10.081500
12
-0.520000
22
1.729520
32
-11.150880
13
-0.520000
23
1.729520
33
-11.150880
0
3DFACE
8
0
70
0
10
-2.280000
20
1.838900
30
-8.383488
11
-1.933333
21
2.040400
31
-10.081500
12
-1.933333
22
2.130400
32
-8.383500
13
-1.933333
23
2.130400
33
-8.383500
0
3DFACE
8
0
70
0
10
-0.020000
20
1.419936
30
-9.943501
11
-0.266667
21
2.130400
31
-8.383500
12
-0.366667
22
2.040400
32
-10.081500
13
-0.366667
23
2.040400
33
-10.081500
0
3DFACE
8
0
70
0
10
-2.280000
20
1.419936
30
-9.943501
11
-2.280000
21
1.093903
31
-8.383488
12
-2.280000
22
0.788998
32
-9.943493
13
-2.280000
23
0.788998
33
-9.943493
0
3DFACE
8
0
70
0
10
-1.933333
20
2.130400
30
-8.383500
11
-1.933333
21
2.480400
31
-4.883501
12
-2.280000
22
1.838900
32
-8.383488
13
-2.280000
23
1.838900
33
-8.383488
0
3DFACE
8
0
70
0
10
-1.933333
20
2.110454
30
-4.883501
11
-2.280000
21
1.838900
31
-8.383488
12
-1.933333
22
2.480400
32
-4.883501
13
-1.933333
23
2.480400
33
-4.883501
0
3DFACE
8
0
70
0
10
-0.020000
20
1.419936
30
-9.943501
11
-0.020000
21
1.548282
31
-8.383500
12
-0.020000
22
1.838900
32
-8.383501
13
-0.020000
23
1.838900
33
-8.383501
0
3DFACE
8
0
70
0
10
-0.266667
20
2.130400
30
-8.383500
11
-0.266667
21
2.480400
31
-4.883501
12
-0.416667
22
2.580400
32
-4.883501
13
-0.416667
23
2.580400
33
-4.883501
0
3DFACE
8
0
70
0
10
-0.266667
20
2.442225
30
-4.883501
11
-0.020000
21
1.838900
31
-8.383501
12
-0.020000
22
1.548282
32
-8.383500
13
-0.020000
23
1.548282
33
-8.383500
0
3DFACE
8
0
70
0
10
-0.366667
20
2.040400
30
-10.081500
11
-0.550000
21
2.190400
31
-10.081500
12
-0.520000
22
1.729520
32
-11.150880
13
-0.520000
23
1.729520
33
-11.150880
0
3DFACE
8
0
70
0
10
-1.650000
20
2.190400
30
-10.081500
11
-1.650000
21
2.280400
31
-8.383500
12
-1.933333
22
2.130400
32
-8.383500
13
-1.933333
23
2.130400
33
-8.383500
0
3DFACE
8
0
70
0
10
-1.783333
20
2.580400
30
-4.883501
11
-1.933333
21
2.130400
31
-8.383500
12
-1.650000
22
2.280400
32
-8.383500
13
-1.650000
23
2.280400
33
-8.383500
0
3DFACE
8
0
70
0
10
-1.400000
20
2.880400
30
-3.083500
11
-1.800000
21
2.683332
31
-3.083500
12
-1.783333
22
2.580400
32
-4.883501
13
-1.783333
23
2.580400
33
-4.883501
0
3DFACE
8
0
70
0
10
-1.933333
20
2.040400
30
-10.081500
11
-1.780000
21
1.729520
31
-11.150880
12
-1.650000
22
2.190400
32
-10.081500
13
-1.650000
23
2.190400
33
-10.081500
0
3DFACE
8
0
70
0
10
-0.550000
20
2.280400
30
-8.383500
11
-1.650000
21
2.280400
31
-8.383500
12
-1.650000
22
2.190400
32
-10.081500
13
-1.650000
23
2.190400
33
-10.081500
0
3DFACE
8
0
70
0
10
-0.366667
20
2.040400
30
-10.081500
11
-0.266667
21
2.130400
31
-8.383500
12
-0.550000
22
2.280400
32
-8.383500
13
-0.550000
23
2.280400
33
-8.383500
0
3DFACE
8
0
70
0
10
-1.650000
20
2.280400
30
-8.383500
11
-0.550000
21
2.280400
31
-8.383500
12
-0.700000
22
2.730400
32
-4.883501
13
-0.700000
23
2.730400
33
-4.883501
0
3DFACE
8
0
70
0
10
-1.500000
20
2.730400
30
-4.883501
11
-0.700000
21
2.730400
31
-4.883501
12
-0.800000
22
2.880400
32
-3.083500
13
-0.800000
23
2.880400
33
-3.083500
0
3DFACE
8
0
70
0
10
-1.780000
20
1.729520
30
-11.150880
11
-0.520000
21
1.729520
31
-11.150880
12
-0.550000
22
2.190400
32
-10.081500
13
-0.550000
23
2.190400
33
-10.081500
0
3DFACE
8
0
70
0
10
-0.416667
20
2.580400
30
-4.883501
11
-0.700000
21
2.730400
31
-4.883501
12
-0.550000
22
2.280400
32
-8.383500
13
-0.550000
23
2.280400
33
-8.383500
0
3DFACE
8
0
70
0
10
-0.700000
20
2.730400
30
-4.883501
11
-0.416667
21
2.580400
31
-4.883501
12
-0.400000
22
2.730400
32
-3.083500
13
-0.400000
23
2.730400
33
-3.083500
0
3DFACE
8
0
70
0
10
-1.800000
20
2.683332
30
-3.083500
11
-1.400000
21
2.880400
31
-3.083500
12
-0.800000
22
2.880400
32
-3.083500
13
-0.800000
23
2.880400
33
-3.083500
0
3DFACE
8
0
70
0
10
-1.650000
20
2.190400
30
-10.081500
11
-1.933333
21
2.130400
31
-8.383500
12
-1.933333
22
2.040400
32
-10.081500
13
-1.933333
23
2.040400
33
-10.081500
0
3DFACE
8
0
70
0
10
-1.783333
20
2.580400
30
-4.883501
11
-1.650000
21
2.280400
31
-8.383500
12
-1.500000
22
2.730400
32
-4.883501
13
-1.500000
23
2.730400
33
-4.883501
0
3DFACE
8
0
70
0
10
-1.400000
20
2.880400
30
-3.083500
11
-1.783333
21
2.580400
31
-4.883501
12
-1.500000
22
2.730400
32
-4.883501
13
-1.500000
23
2.730400
33
-4.883501
0
3DFACE
8
0
70
0
10
-0.550000
20
2.280400
30
-8.383500
11
-1.650000
21
2.190400
31
-10.081500
12
-0.550000
22
2.190400
32
-10.081500
13
-0.550000
23
2.190400
33
-10.081500
0
3DFACE
8
0
70
0
10
-0.366667
20
2.040400
30
-10.081500
11
-0.550000
21
2.280400
31
-8.383500
12
-0.550000
22
2.190400
32
-10.081500
13
-0.550000
23
2.190400
33
-10.081500
0
3DFACE
8
0
70
0
10
-1.650000
20
2.280400
30
-8.383500
11
-0.700000
21
2.730400
31
-4.883501
12
-1.500000
22
2.730400
32
-4.883501
13
-1.500000
23
2.730400
33
-4.883501
0
3DFACE
8
0
70
0
10
-1.500000
20
2.730400
30
-4.883501
11
-0.800000
21
2.880400
31
-3.083500
12
-1.400000
22
2.880400
32
-3.083500
13
-1.400000
23
2.880400
33
-3.083500
0
3DFACE
8
0
70
0
10
-1.780000
20
1.729520
30
-11.150880
11
-0.550000
21
2.190400
31
-10.081500
12
-1.650000
22
2.190400
32
-10.081500
13
-1.650000
23
2.190400
33
-10.081500
0
3DFACE
8
0
70
0
10
-0.416667
20
2.580400
30
-4.883501
11
-0.550000
21
2.280400
31
-8.383500
12
-0.266667
22
2.130400
32
-8.383500
13
-0.266667
23
2.130400
33
-8.383500
0
3DFACE
8
0
70
0
10
-0.700000
20
2.730400
30
-4.883501
11
-0.400000
21
2.730400
31
-3.083500
12
-0.800000
22
2.880400
32
-3.083500
13
-0.800000
23
2.880400
33
-3.083500
0
3DFACE
8
0
70
0
10
-1.800000
20
2.683332
30
-3.083500
11
-0.800000
21
2.880400
31
-3.083500
12
-0.400000
22
2.730400
32
-3.083500
13
-0.400000
23
2.730400
33
-3.083500
0
3DFACE
8
0
70
0
10
1.600000
20
-0.950000
30
-10.500000
11
1.325000
21
-1.023686
31
-10.500000
12
1.123686
22
-1.225000
32
-10.500000
13
1.123686
23
-1.225000
33
-10.500000
0
3DFACE
8
0
70
0
10
1.600000
20
-0.950000
30
-10.500000
11
1.123686
21
-1.225000
31
-10.500000
12
1.050000
22
-1.500000
32
-10.500000
13
1.050000
23
-1.500000
33
-10.500000
0
3DFACE
8
0
70
0
10
1.600000
20
-0.950000
30
-10.500000
11
1.050000
21
-1.500000
31
-10.500000
12
1.123686
22
-1.775000
32
-10.500000
13
1.123686
23
-1.775000
33
-10.500000
0
3DFACE
8
0
70
0
10
1.600000
20
-0.950000
30
-10.500000
11
1.123686
21
-1.775000
31
-10.500000
12
1.325000
22
-1.976314
32
-10.500000
13
1.325000
23
-1.976314
33
-10.500000
0
3DFACE
8
0
70
0
10
1.600000
20
-0.950000
30
-10.500000
11
1.325000
21
-1.976314
31
-10.500000
12
1.600000
22
-2.050000
32
-10.500000
13
1.600000
23
-2.050000
33
-10.500000
0
3DFACE
8
0
70
0
10
1.600000
20
-0.950000
30
-10.500000
11
1.600000
21
-2.050000
31
-10.500000
12
1.875000
22
-1.976314
32
-10.500000
13
1.875000
23
-1.976314
33
-10.500000
0
3DFACE
8
0
70
0
10
1.600000
20
-0.950000
30
-10.500000
11
1.875000
21
-1.976314
31
-10.500000
12
2.076314
22
-1.775000
32
-10.500000
13
2.076314
23
-1.775000
33
-10.500000
0
3DFACE
8
0
70
0
10
1.600000
20
-0.950000
30
-10.500000
11
2.076314
21
-1.775000
31
-10.500000
12
2.150000
22
-1.500000
32
-10.500000
13
2.150000
23
-1.500000
33
-10.500000
0
3DFACE
8
0
70
0
10
1.600000
20
-0.950000
30
-10.500000
11
2.150000
21
-1.500000
31
-10.500000
12
2.076314
22
-1.225000
32
-10.500000
13
2.076314
23
-1.225000
33
-10.500000
0
3DFACE
8
0
70
0
10
1.600000
20
-0.950000
30
-10.500000
11
2.076314
21
-1.225000
31
-10.500000
12
1.875000
22
-1.023686
32
-10.500000
13
1.875000
23
-1.023686
33
-10.500000
0
3DFACE
8
0
70
0
10
1.903109
20
-1.325000
30
-9.150001
11
2.076314
21
-1.225000
31
-9.550000
12
2.150000
22
-1.500000
32
-9.550000
13
2.150000
23
-1.500000
33
-9.550000
0
3DFACE
8
0
70
0
10
1.903109
20
-1.675000
30
-9.150001
11
1.903109
21
-1.325000
31
-9.150001
12
2.150000
22
-1.500000
32
-9.550000
13
2.150000
23
-1.500000
33
-9.550000
0
3DFACE
8
0
70
0
10
1.903109
20
-1.675000
30
-9.150001
11
2.150000
21
-1.500000
31
-9.550000
12
2.076314
22
-1.775000
32
-9.550000
13
2.076314
23
-1.775000
33
-9.550000
0
3DFACE
8
0
70
0
10
2.076314
20
-1.225000
30
-10.500000
11
2.150000
21
-1.500000
31
-10.500000
12
2.150000
22
-1.500000
32
-9.550000
13
2.150000
23
-1.500000
33
-9.550000
0
3DFACE
8
0
70
0
10
2.150000
20
-1.500000
30
-10.500000
11
2.076314
21
-1.775000
31
-10.500000
12
2.076314
22
-1.775000
32
-9.550000
13
2.076314
23
-1.775000
33
-9.550000
0
3DFACE
8
0
70
0
10
2.320883
20
-1.387068
30
-6.900000
11
2.320883
21
-1.700000
31
-6.900000
12
2.460000
22
-1.700000
32
-5.580000
13
2.460000
23
-1.700000
33
-5.580000
0
3DFACE
8
0
70
0
10
1.998372
20
-2.125000
30
-7.550000
11
1.995000
21
-1.958927
31
-6.900000
12
1.997211
22
-1.458048
32
-6.900000
13
1.997211
23
-1.458048
33
-6.900000
0
3DFACE
8
0
70
0
10
1.995000
20
-1.958927
30
-6.900000
11
2.320883
21
-1.700000
31
-6.900000
12
2.320883
22
-1.387068
32
-6.900000
13
2.320883
23
-1.387068
33
-6.900000
0
3DFACE
8
0
70
0
10
1.998372
20
-2.125000
30
-7.550000
11
1.998372
21
-1.312848
31
-7.550000
12
1.903109
22
-1.333672
32
-7.550000
13
1.903109
23
-1.333672
33
-7.550000
0
3DFACE
8
0
70
0
10
1.903109
20
-1.325000
30
-8.730000
11
1.903109
21
-1.333672
31
-7.550000
12
1.600000
22
-1.150000
32
-8.730000
13
1.600000
23
-1.150000
33
-8.730000
0
3DFACE
8
0
70
0
10
1.903109
20
-1.675000
30
-8.730000
11
1.903109
21
-1.675000
31
-7.550000
12
1.903109
22
-1.333672
32
-7.550000
13
1.903109
23
-1.333672
33
-7.550000
0
3DFACE
8
0
70
0
10
1.998372
20
-2.125000
30
-7.550000
11
1.998372
21
-2.125000
31
-6.560002
12
1.995000
22
-1.958927
32
-6.900000
13
1.995000
23
-1.958927
33
-6.900000
0
3DFACE
8
0
70
0
10
1.600000
20
-2.340000
30
-7.550000
11
1.998372
21
-2.125000
31
-7.550000
12
1.903109
22
-1.675000
32
-7.550000
13
1.903109
23
-1.675000
33
-7.550000
0
3DFACE
8
0
70
0
10
1.600000
20
-2.160000
30
-8.730000
11
1.903109
21
-1.675000
31
-8.730000
12
1.600000
22
-1.839060
32
-8.730000
13
1.600000
23
-1.839060
33
-8.730000
0
3DFACE
8
0
70
0
10
1.903109
20
-1.325000
30
-9.150001
11
1.903109
21
-1.675000
31
-9.150001
12
1.903109
22
-1.675000
32
-8.730000
13
1.903109
23
-1.675000
33
-8.730000
0
3DFACE
8
0
70
0
10
1.903109
20
-1.675000
30
-8.730000
11
1.600000
21
-2.160000
31
-8.730000
12
1.600000
22
-2.160000
32
-7.550000
13
1.600000
23
-2.160000
33
-7.550000
0
3DFACE
8
0
70
0
10
2.076314
20
-1.225000
30
-10.500000
11
2.150000
21
-1.500000
31
-9.550000
12
2.076314
22
-1.225000
32
-9.550000
13
2.076314
23
-1.225000
33
-9.550000
0
3DFACE
8
0
70
0
10
2.150000
20
-1.500000
30
-10.500000
11
2.076314
21
-1.775000
31
-9.550000
12
2.150000
22
-1.500000
32
-9.550000
13
2.150000
23
-1.500000
33
-9.550000
0
3DFACE
8
0
70
0
10
1.998372
20
-2.125000
30
-7.550000
11
1.997211
21
-1.458048
31
-6.900000
12
1.998372
22
-1.312848
32
-7.550000
13
1.998372
23
-1.312848
33
-7.550000
0
3DFACE
8
0
70
0
10
1.995000
20
-1.958927
30
-6.900000
11
2.320883
21
-1.387068
31
-6.900000
12
1.997211
22
-1.458048
32
-6.900000
13
1.997211
23
-1.458048
33
-6.900000
0
3DFACE
8
0
70
0
10
1.998372
20
-2.125000
30
-7.550000
11
1.903109
21
-1.333672
31
-7.550000
12
1.903109
22
-1.675000
32
-7.550000
13
1.903109
23
-1.675000
33
-7.550000
0
3DFACE
8
0
70
0
10
1.903109
20
-1.675000
30
-8.730000
11
1.903109
21
-1.333672
31
-7.550000
12
1.903109
22
-1.325000
32
-8.730000
13
1.903109
23
-1.325000
33
-8.730000
0
3DFACE
8
0
70
0
10
1.600000
20
-2.340000
30
-7.550000
11
1.903109
21
-1.675000
31
-7.550000
12
1.600000
22
-2.160000
32
-7.550000
13
1.600000
23
-2.160000
33
-7.550000
0
3DFACE
8
0
70
0
10
1.903109
20
-1.325000
30
-9.150001
11
1.903109
21
-1.675000
31
-8.730000
12
1.903109
22
-1.325000
32
-8.730000
13
1.903109
23
-1.325000
33
-8.730000
0
3DFACE
8
0
70
0
10
1.903109
20
-1.675000
30
-8.730000
11
1.600000
21
-2.160000
31
-7.550000
12
1.903109
22
-1.675000
32
-7.550000
13
1.903109
23
-1.675000
33
-7.550000
0
3DFACE
8
0
70
0
10
1.296891
20
-1.675000
30
-9.150001
11
1.123686
21
-1.775000
31
-9.550000
12
1.050000
22
-1.500000
32
-9.550000
13
1.050000
23
-1.500000
33
-9.550000
0
3DFACE
8
0
70
0
10
1.296891
20
-1.325000
30
-9.150001
11
1.296891
21
-1.675000
31
-9.150001
12
1.050000
22
-1.500000
32
-9.550000
13
1.050000
23
-1.500000
33
-9.550000
0
3DFACE
8
0
70
0
10
1.296891
20
-1.325000
30
-9.150001
11
1.050000
21
-1.500000
31
-9.550000
12
1.123686
22
-1.225000
32
-9.550000
13
1.123686
23
-1.225000
33
-9.550000
0
3DFACE
8
0
70
0
10
1.123686
20
-1.775000
30
-10.500000
11
1.050000
21
-1.500000
31
-10.500000
12
1.050000
22
-1.500000
32
-9.550000
13
1.050000
23
-1.500000
33
-9.550000
0
3DFACE
8
0
70
0
10
1.050000
20
-1.500000
30
-10.500000
11
1.123686
21
-1.225000
31
-10.500000
12
1.123686
22
-1.225000
32
-9.550000
13
1.123686
23
-1.225000
33
-9.550000
0
3DFACE
8
0
70
0
10
1.296891
20
-1.675000
30
-7.550000
11
1.296891
21
-1.675000
31
-8.730000
12
1.296891
22
-1.325000
32
-8.730000
13
1.296891
23
-1.325000
33
-8.730000
0
3DFACE
8
0
70
0
10
1.296891
20
-1.325000
30
-8.214323
11
1.296891
21
-1.460006
31
-7.550000
12
1.296891
22
-1.675000
32
-7.550000
13
1.296891
23
-1.675000
33
-7.550000
0
3DFACE
8
0
70
0
10
1.201628
20
-2.125000
30
-7.550000
11
1.201628
21
-1.484648
31
-7.550000
12
1.203695
22
-1.663311
32
-6.900000
13
1.203695
23
-1.663311
33
-6.900000
0
3DFACE
8
0
70
0
10
1.205000
20
-1.958927
30
-6.900000
11
1.203695
21
-1.663311
31
-6.900000
12
0.922369
22
-1.734365
32
-6.900000
13
0.922369
23
-1.734365
33
-6.900000
0
3DFACE
8
0
70
0
10
1.201628
20
-2.125000
30
-7.550000
11
1.296891
21
-1.675000
31
-7.550000
12
1.296891
22
-1.460006
32
-7.550000
13
1.296891
23
-1.460006
33
-7.550000
0
3DFACE
8
0
70
0
10
1.296891
20
-1.325000
30
-8.214323
11
1.296891
21
-1.325000
31
-8.730000
12
1.600000
22
-1.150000
32
-8.730000
13
1.600000
23
-1.150000
33
-8.730000
0
3DFACE
8
0
70
0
10
1.201628
20
-2.125000
30
-7.550000
11
1.205000
21
-1.958927
31
-6.900000
12
1.201628
22
-2.125000
32
-6.560002
13
1.201628
23
-2.125000
33
-6.560002
0
3DFACE
8
0
70
0
10
1.600000
20
-2.340000
30
-7.550000
11
1.600000
21
-2.160000
31
-7.550000
12
1.296891
22
-1.675000
32
-7.550000
13
1.296891
23
-1.675000
33
-7.550000
0
3DFACE
8
0
70
0
10
1.600000
20
-2.160000
30
-8.730000
11
1.600000
21
-1.839060
31
-8.730000
12
1.296891
22
-1.675000
32
-8.730000
13
1.296891
23
-1.675000
33
-8.730000
0
3DFACE
8
0
70
0
10
1.296891
20
-1.675000
30
-9.150001
11
1.296891
21
-1.325000
31
-9.150001
12
1.296891
22
-1.325000
32
-8.730000
13
1.296891
23
-1.325000
33
-8.730000
0
3DFACE
8
0
70
0
10
1.600000
20
-2.160000
30
-8.730000
11
1.296891
21
-1.675000
31
-8.730000
12
1.296891
22
-1.675000
32
-7.550000
13
1.296891
23
-1.675000
33
-7.550000
0
3DFACE
8
0
70
0
10
1.123686
20
-1.775000
30
-10.500000
11
1.050000
21
-1.500000
31
-9.550000
12
1.123686
22
-1.775000
32
-9.550000
13
1.123686
23
-1.775000
33
-9.550000
0
3DFACE
8
0
70
0
10
1.050000
20
-1.500000
30
-10.500000
11
1.123686
21
-1.225000
31
-9.550000
12
1.050000
22
-1.500000
32
-9.550000
13
1.050000
23
-1.500000
33
-9.550000
0
3DFACE
8
0
70
0
10
1.296891
20
-1.675000
30
-7.550000
11
1.296891
21
-1.325000
31
-8.730000
12
1.296891
22
-1.325000
32
-8.214323
13
1.296891
23
-1.325000
33
-8.214323
0
3DFACE
8
0
70
0
10
1.201628
20
-2.125000
30
-7.550000
11
1.203695
21
-1.663311
31
-6.900000
12
1.205000
22
-1.958927
32
-6.900000
13
1.205000
23
-1.958927
33
-6.900000
0
3DFACE
8
0
70
0
10
1.201628
20
-2.125000
30
-7.550000
11
1.296891
21
-1.460006
31
-7.550000
12
1.201628
22
-1.484648
32
-7.550000
13
1.201628
23
-1.484648
33
-7.550000
0
3DFACE
8
0
70
0
10
1.600000
20
-2.340000
30
-7.550000
11
1.296891
21
-1.675000
31
-7.550000
12
1.201628
22
-2.125000
32
-7.550000
13
1.201628
23
-2.125000
33
-7.550000
0
3DFACE
8
0
70
0
10
1.296891
20
-1.675000
30
-9.150001
11
1.296891
21
-1.325000
31
-8.730000
12
1.296891
22
-1.675000
32
-8.730000
13
1.296891
23
-1.675000
33
-8.730000
0
3DFACE
8
0
70
0
10
1.600000
20
-2.160000
30
-8.730000
11
1.296891
21
-1.675000
31
-7.550000
12
1.600000
22
-2.160000
32
-7.550000
13
1.600000
23
-2.160000
33
-7.550000
0
3DFACE
8
0
70
0
10
1.600000
20
-1.839060
30
-9.150001
11
1.903109
21
-1.675000
31
-9.150001
12
1.875000
22
-1.976314
32
-9.550000
13
1.875000
23
-1.976314
33
-9.550000
0
3DFACE
8
0
70
0
10
1.875000
20
-1.976314
30
-9.550000
11
1.600000
21
-2.050000
31
-9.550000
12
1.600000
22
-1.839060
32
-9.150001
13
1.600000
23
-1.839060
33
-9.150001
0
3DFACE
8
0
70
0
10
1.903109
20
-1.675000
30
-9.150001
11
2.076314
21
-1.775000
31
-9.550000
12
1.875000
22
-1.976314
32
-9.550000
13
1.875000
23
-1.976314
33
-9.550000
0
3DFACE
8
0
70
0
10
1.600000
20
-1.839060
30
-9.150001
11
1.600000
21
-2.050000
31
-9.550000
12
1.325000
22
-1.976314
32
-9.550000
13
1.325000
23
-1.976314
33
-9.550000
0
3DFACE
8
0
70
0
10
1.325000
20
-1.976314
30
-9.550000
11
1.296891
21
-1.675000
31
-9.150001
12
1.600000
22
-1.839060
32
-9.150001
13
1.600000
23
-1.839060
33
-9.150001
0
3DFACE
8
0
70
0
10
1.296891
20
-1.675000
30
-9.150001
11
1.325000
21
-1.976314
31
-9.550000
12
1.123686
22
-1.775000
32
-9.550000
13
1.123686
23
-1.775000
33
-9.550000
0
3DFACE
8
0
70
0
10
2.076314
20
-1.775000
30
-10.500000
11
1.875000
21
-1.976314
31
-10.500000
12
1.875000
22
-1.976314
32
-9.550000
13
1.875000
23
-1.976314
33
-9.550000
0
3DFACE
8
0
70
0
10
1.875000
20
-1.976314
30
-10.500000
11
1.600000
21
-2.050000
31
-10.500000
12
1.600000
22
-2.050000
32
-9.550000
13
1.600000
23
-2.050000
33
-9.550000
0
3DFACE
8
0
70
0
10
1.600000
20
-2.050000
30
-10.500000
11
1.325000
21
-1.976314
31
-10.500000
12
1.325000
22
-1.976314
32
-9.550000
13
1.325000
23
-1.976314
33
-9.550000
0
3DFACE
8
0
70
0
10
1.325000
20
-1.976314
30
-10.500000
11
1.123686
21
-1.775000
31
-10.500000
12
1.123686
22
-1.775000
32
-9.550000
13
1.123686
23
-1.775000
33
-9.550000
0
3DFACE
8
0
70
0
10
1.903109
20
-1.675000
30
-9.150001
11
1.600000
21
-1.839060
31
-9.150001
12
1.600000
22
-1.839060
32
-8.730000
13
1.600000
23
-1.839060
33
-8.730000
0
3DFACE
8
0
70
0
10
1.600000
20
-1.839060
30
-9.150001
11
1.296891
21
-1.675000
31
-9.150001
12
1.296891
22
-1.675000
32
-8.730000
13
1.296891
23
-1.675000
33
-8.730000
0
3DFACE
8
0
70
0
10
2.076314
20
-1.775000
30
-10.500000
11
1.875000
21
-1.976314
31
-9.550000
12
2.076314
22
-1.775000
32
-9.550000
13
2.076314
23
-1.775000
33
-9.550000
0
3DFACE
8
0
70
0
10
1.875000
20
-1.976314
30
-10.500000
11
1.600000
21
-2.050000
31
-9.550000
12
1.875000
22
-1.976314
32
-9.550000
13
1.875000
23
-1.976314
33
-9.550000
0
3DFACE
8
0
70
0
10
1.600000
20
-2.050000
30
-10.500000
11
1.325000
21
-1.976314
31
-9.550000
12
1.600000
22
-2.050000
32
-9.550000
13
1.600000
23
-2.050000
33
-9.550000
0
3DFACE
8
0
70
0
10
1.325000
20
-1.976314
30
-10.500000
11
1.123686
21
-1.775000
31
-9.550000
12
1.325000
22
-1.976314
32
-9.550000
13
1.325000
23
-1.976314
33
-9.550000
0
3DFACE
8
0
70
0
10
1.903109
20
-1.675000
30
-9.150001
11
1.600000
21
-1.839060
31
-8.730000
12
1.903109
22
-1.675000
32
-8.730000
13
1.903109
23
-1.675000
33
-8.730000
0
3DFACE
8
0
70
0
10
1.600000
20
-1.839060
30
-9.150001
11
1.296891
21
-1.675000
31
-8.730000
12
1.600000
22
-1.839060
32
-8.730000
13
1.600000
23
-1.839060
33
-8.730000
0
3DFACE
8
0
70
0
10
1.600000
20
-1.150000
30
-9.150001
11
1.296891
21
-1.325000
31
-9.150001
12
1.325000
22
-1.023686
32
-9.550000
13
1.325000
23
-1.023686
33
-9.550000
0
3DFACE
8
0
70
0
10
1.325000
20
-1.023686
30
-9.550000
11
1.600000
21
-0.950000
31
-9.550000
12
1.600000
22
-1.150000
32
-9.150001
13
1.600000
23
-1.150000
33
-9.150001
0
3DFACE
8
0
70
0
10
1.296891
20
-1.325000
30
-9.150001
11
1.123686
21
-1.225000
31
-9.550000
12
1.325000
22
-1.023686
32
-9.550000
13
1.325000
23
-1.023686
33
-9.550000
0
3DFACE
8
0
70
0
10
1.875000
20
-1.023686
30
-9.550000
11
1.903109
21
-1.325000
31
-9.150001
12
1.600000
22
-1.150000
32
-9.150001
13
1.600000
23
-1.150000
33
-9.150001
0
3DFACE
8
0
70
0
10
1.600000
20
-1.150000
30
-9.150001
11
1.600000
21
-0.950000
31
-9.550000
12
1.875000
22
-1.023686
32
-9.550000
13
1.875000
23
-1.023686
33
-9.550000
0
3DFACE
8
0
70
0
10
1.903109
20
-1.325000
30
-9.150001
11
1.875000
21
-1.023686
31
-9.550000
12
2.076314
22
-1.225000
32
-9.550000
13
2.076314
23
-1.225000
33
-9.550000
0
3DFACE
8
0
70
0
10
1.600000
20
-0.950000
30
-10.500000
11
1.875000
21
-1.023686
31
-10.500000
12
1.875000
22
-1.023686
32
-9.550000
13
1.875000
23
-1.023686
33
-9.550000
0
3DFACE
8
0
70
0
10
1.875000
20
-1.023686
30
-10.500000
11
2.076314
21
-1.225000
31
-10.500000
12
2.076314
22
-1.225000
32
-9.550000
13
2.076314
23
-1.225000
33
-9.550000
0
3DFACE
8
0
70
0
10
1.123686
20
-1.225000
30
-10.500000
11
1.325000
21
-1.023686
31
-10.500000
12
1.325000
22
-1.023686
32
-9.550000
13
1.325000
23
-1.023686
33
-9.550000
0
3DFACE
8
0
70
0
10
1.325000
20
-1.023686
30
-10.500000
11
1.600000
21
-0.950000
31
-10.500000
12
1.600000
22
-0.950000
32
-9.550000
13
1.600000
23
-0.950000
33
-9.550000
0
3DFACE
8
0
70
0
10
1.903109
20
-1.325000
30
-9.150001
11
1.903109
21
-1.325000
31
-8.730000
12
1.600000
22
-1.150000
32
-8.730000
13
1.600000
23
-1.150000
33
-8.730000
0
3DFACE
8
0
70
0
10
1.296891
20
-1.325000
30
-9.150001
11
1.600000
21
-1.150000
31
-9.150001
12
1.600000
22
-1.150000
32
-8.730000
13
1.600000
23
-1.150000
33
-8.730000
0
3DFACE
8
0
70
0
10
1.600000
20
-0.950000
30
-10.500000
11
1.875000
21
-1.023686
31
-9.550000
12
1.600000
22
-0.950000
32
-9.550000
13
1.600000
23
-0.950000
33
-9.550000
0
3DFACE
8
0
70
0
10
1.875000
20
-1.023686
30
-10.500000
11
2.076314
21
-1.225000
31
-9.550000
12
1.875000
22
-1.023686
32
-9.550000
13
1.875000
23
-1.023686
33
-9.550000
0
3DFACE
8
0
70
0
10
1.123686
20
-1.225000
30
-10.500000
11
1.325000
21
-1.023686
31
-9.550000
12
1.123686
22
-1.225000
32
-9.550000
13
1.123686
23
-1.225000
33
-9.550000
0
3DFACE
8
0
70
0
10
1.325000
20
-1.023686
30
-10.500000
11
1.600000
21
-0.950000
31
-9.550000
12
1.325000
22
-1.023686
32
-9.550000
13
1.325000
23
-1.023686
33
-9.550000
0
3DFACE
8
0
70
0
10
1.903109
20
-1.325000
30
-9.150001
11
1.600000
21
-1.150000
31
-8.730000
12
1.600000
22
-1.150000
32
-9.150001
13
1.600000
23
-1.150000
33
-9.150001
0
3DFACE
8
0
70
0
10
1.296891
20
-1.325000
30
-9.150001
11
1.600000
21
-1.150000
31
-8.730000
12
1.296891
22
-1.325000
32
-8.730000
13
1.296891
23
-1.325000
33
-8.730000
0
3DFACE
8
0
70
0
10
-0.493204
20
-0.979995
30
-11.743500
11
-0.020000
21
-1.000018
31
-10.199901
12
-0.020000
22
-0.620000
32
-11.983500
13
-0.020000
23
-0.620000
33
-11.983500
0
3DFACE
8
0
70
0
10
1.600000
20
-2.240000
30
-5.200000
11
1.171280
21
-2.074948
31
-5.437292
12
1.600000
22
-2.099539
32
-4.945832
13
1.600000
23
-2.099539
33
-4.945832
0
3DFACE
8
0
70
0
10
2.077778
20
-2.057778
30
-5.464445
11
1.600000
21
-2.240000
31
-5.200000
12
1.600000
22
-2.099539
32
-4.945832
13
1.600000
23
-2.099539
33
-4.945832
0
3DFACE
8
0
70
0
10
0.921917
20
-1.959673
30
-6.058499
11
1.051750
21
-2.145000
31
-6.400000
12
1.205000
22
-1.958927
32
-6.900000
13
1.205000
23
-1.958927
33
-6.900000
0
3DFACE
8
0
70
0
10
2.148250
20
-2.145000
30
-6.400000
11
2.460000
21
-1.700000
31
-5.580000
12
2.320883
22
-1.700000
32
-6.900000
13
2.320883
23
-1.700000
33
-6.900000
0
3DFACE
8
0
70
0
10
1.051750
20
-2.145000
30
-6.400000
11
0.921917
21
-1.959673
31
-6.058499
12
1.171280
22
-2.074948
32
-5.437292
13
1.171280
23
-2.074948
33
-5.437292
0
3DFACE
8
0
70
0
10
2.460000
20
-1.700000
30
-5.580000
11
2.148250
21
-2.145000
31
-6.400000
12
2.077778
22
-2.057778
32
-5.464445
13
2.077778
23
-2.057778
33
-5.464445
0
3DFACE
8
0
70
0
10
1.600000
20
-2.240000
30
-5.200000
11
1.600000
21
-2.360000
31
-6.400000
12
1.171280
22
-2.074948
32
-5.437292
13
1.171280
23
-2.074948
33
-5.437292
0
3DFACE
8
0
70
0
10
2.148250
20
-2.145000
30
-6.400000
11
1.600000
21
-2.360000
31
-6.400000
12
1.600000
22
-2.240000
32
-5.200000
13
1.600000
23
-2.240000
33
-5.200000
0
3DFACE
8
0
70
0
10
1.051750
20
-2.145000
30
-6.400000
11
1.171280
21
-2.074948
31
-5.437292
12
1.600000
22
-2.360000
32
-6.400000
13
1.600000
23
-2.360000
33
-6.400000
0
3DFACE
8
0
70
0
10
1.051750
20
-2.145000
30
-6.400000
11
1.600000
21
-2.360000
31
-6.400000
12
1.201628
22
-2.125000
32
-6.560002
13
1.201628
23
-2.125000
33
-6.560002
0
3DFACE
8
0
70
0
10
1.051750
20
-2.145000
30
-6.400000
11
1.201628
21
-2.125000
31
-6.560002
12
1.205000
22
-1.958927
32
-6.900000
13
1.205000
23
-1.958927
33
-6.900000
0
3DFACE
8
0
70
0
10
2.148250
20
-2.145000
30
-6.400000
11
1.995000
21
-1.958927
31
-6.900000
12
1.998372
22
-2.125000
32
-6.560002
13
1.998372
23
-2.125000
33
-6.560002
0
3DFACE
8
0
70
0
10
2.148250
20
-2.145000
30
-6.400000
11
1.998372
21
-2.125000
31
-6.560002
12
1.600000
22
-2.360000
32
-6.400000
13
1.600000
23
-2.360000
33
-6.400000
0
3DFACE
8
0
70
0
10
1.201628
20
-2.125000
30
-7.550000
11
1.201628
21
-2.125000
31
-6.560002
12
1.600000
22
-2.360000
32
-6.400000
13
1.600000
23
-2.360000
33
-6.400000
0
3DFACE
8
0
70
0
10
1.600000
20
-2.340000
30
-7.550000
11
1.600000
21
-2.360000
31
-6.400000
12
1.998372
22
-2.125000
32
-6.560002
13
1.998372
23
-2.125000
33
-6.560002
0
3DFACE
8
0
70
0
10
0.922369
20
-1.734365
30
-6.900000
11
1.000000
21
-1.500000
31
-7.683500
12
0.200000
22
-1.600000
32
-7.883500
13
0.200000
23
-1.600000
33
-7.883500
0
3DFACE
8
0
70
0
10
1.100000
20
-2.328767
30
-4.583500
11
1.171280
21
-2.074948
31
-5.437292
12
0.921917
22
-1.959673
32
-6.058499
13
0.921917
23
-1.959673
33
-6.058499
0
3DFACE
8
0
70
0
10
0.200000
20
-1.600000
30
-7.883500
11
1.100000
21
-2.328767
31
-4.583500
12
0.921917
22
-1.959673
32
-6.058499
13
0.921917
23
-1.959673
33
-6.058499
0
3DFACE
8
0
70
0
10
0.200000
20
-1.600000
30
-7.883500
11
0.921917
21
-1.959673
31
-6.058499
12
0.922369
22
-1.734365
32
-6.900000
13
0.922369
23
-1.734365
33
-6.900000
0
3DFACE
8
0
70
0
10
3.600000
20
-0.600000
30
-7.183500
11
2.150000
21
-1.302200
31
-7.453401
12
2.320883
22
-1.387068
32
-6.900000
13
2.320883
23
-1.387068
33
-6.900000
0
3DFACE
8
0
70
0
10
3.600000
20
-0.600000
30
-7.183500
11
2.320883
21
-1.387068
31
-6.900000
12
2.460000
22
-1.700000
32
-5.580000
13
2.460000
23
-1.700000
33
-5.580000
0
3DFACE
8
0
70
0
10
4.800000
20
-1.139130
30
-4.583500
11
3.600000
21
-0.600000
31
-7.183500
12
2.460000
22
-1.700000
32
-5.580000
13
2.460000
23
-1.700000
33
-5.580000
0
3DFACE
8
0
70
0
10
1.100000
20
-2.328767
30
-4.583500
11
1.600000
21
-2.099539
31
-4.945832
12
1.171280
22
-2.074948
32
-5.437292
13
1.171280
23
-2.074948
33
-5.437292
0
3DFACE
8
0
70
0
10
2.704200
20
-1.913800
30
-4.583500
11
2.142515
21
-1.919270
31
-5.114303
12
1.600000
22
-2.099539
32
-4.945832
13
1.600000
23
-2.099539
33
-4.945832
0
3DFACE
8
0
70
0
10
2.704200
20
-1.913800
30
-4.583500
11
2.460000
21
-1.700000
31
-5.580000
12
2.142515
22
-1.919270
32
-5.114303
13
2.142515
23
-1.919270
33
-5.114303
0
3DFACE
8
0
70
0
10
1.600000
20
-1.150000
30
-8.730000
11
1.998372
21
-1.312848
31
-7.550000
12
2.150000
22
-1.302200
32
-7.453401
13
2.150000
23
-1.302200
33
-7.453401
0
3DFACE
8
0
70
0
10
1.600000
20
-1.150000
30
-8.730000
11
1.903109
21
-1.333672
31
-7.550000
12
1.998372
22
-1.312848
32
-7.550000
13
1.998372
23
-1.312848
33
-7.550000
0
3DFACE
8
0
70
0
10
1.955779
20
-0.704993
30
-10.199901
11
1.600000
21
-0.950000
31
-9.550000
12
1.600000
22
-1.150000
32
-8.730000
13
1.600000
23
-1.150000
33
-8.730000
0
3DFACE
8
0
70
0
10
1.000000
20
-1.000000
30
-10.197900
11
1.600000
21
-0.950000
31
-9.550000
12
1.955779
22
-0.704993
32
-10.199901
13
1.955779
23
-0.704993
33
-10.199901
0
3DFACE
8
0
70
0
10
1.000000
20
-1.000000
30
-10.197900
11
1.296891
21
-1.325000
31
-8.214323
12
1.600000
22
-1.150000
32
-8.730000
13
1.600000
23
-1.150000
33
-8.730000
0
3DFACE
8
0
70
0
10
1.000000
20
-1.500000
30
-7.683500
11
1.296891
21
-1.460006
31
-7.550000
12
1.296891
22
-1.325000
32
-8.214323
13
1.296891
23
-1.325000
33
-8.214323
0
3DFACE
8
0
70
0
10
0.922369
20
-1.734365
30
-6.900000
11
1.203695
21
-1.663311
31
-6.900000
12
1.201628
22
-1.484648
32
-7.550000
13
1.201628
23
-1.484648
33
-7.550000
0
3DFACE
8
0
70
0
10
1.000000
20
-1.500000
30
-7.683500
11
1.201628
21
-1.484648
31
-7.550000
12
1.296891
22
-1.460006
32
-7.550000
13
1.296891
23
-1.460006
33
-7.550000
0
3DFACE
8
0
70
0
10
1.000000
20
-1.500000
30
-7.683500
11
1.000000
21
-1.000000
31
-10.197900
12
-0.020000
22
-1.000018
32
-10.199901
13
-0.020000
23
-1.000018
33
-10.199901
0
3DFACE
8
0
70
0
10
1.400000
20
-3.000000
30
-1.083500
11
3.930000
21
-2.477165
31
-1.083500
12
2.704200
22
-1.913800
32
-4.583500
13
2.704200
23
-1.913800
33
-4.583500
0
3DFACE
8
0
70
0
10
-9.450001
20
-0.600000
30
10.916500
11
-8.500000
21
-1.246900
31
12.682499
12
-8.150001
22
-1.246914
32
4.416500
13
-8.150001
23
-1.246914
33
4.416500
0
3DFACE
8
0
70
0
10
8.300000
20
-1.246914
30
4.416500
11
8.500000
21
-1.246900
31
12.682499
12
9.450001
22
-0.600000
32
10.916500
13
9.450001
23
-0.600000
33
10.916500
0
3DFACE
8
0
70
0
10
2.876720
20
-0.550000
30
-10.199901
11
1.955779
21
-0.704993
31
-10.199901
12
2.150000
22
-1.302200
32
-7.453401
13
2.150000
23
-1.302200
33
-7.453401
0
3DFACE
8
0
70
0
10
-0.900000
20
-2.328767
30
-4.583500
11
1.100000
21
-2.328767
31
-4.583500
12
0.200000
22
-1.600000
32
-7.883500
13
0.200000
23
-1.600000
33
-7.883500
0
3DFACE
8
0
70
0
10
2.150000
20
-1.302200
30
-7.453401
11
3.600000
21
-0.600000
31
-7.183500
12
2.876720
22
-0.550000
32
-10.199901
13
2.876720
23
-0.550000
33
-10.199901
0
3DFACE
8
0
70
0
10
-0.900000
20
-2.328767
30
-4.583500
11
0.200000
21
-1.600000
31
-7.883500
12
-0.800000
22
-1.500000
32
-8.083500
13
-0.800000
23
-1.500000
33
-8.083500
0
3DFACE
8
0
70
0
10
0.750000
20
-3.500000
30
6.816499
11
1.078817
21
-2.841565
31
13.081091
12
2.152600
22
-3.500000
32
13.865599
13
2.152600
23
-3.500000
33
13.865599
0
3DFACE
8
0
70
0
10
-2.202600
20
-3.500000
30
13.865599
11
-1.078817
21
-2.841565
31
13.081091
12
-0.750000
22
-3.500000
32
6.816499
13
-0.750000
23
-3.500000
33
6.816499
0
3DFACE
8
0
70
0
10
8.300000
20
-1.246914
30
4.416500
11
4.980000
21
-2.671605
31
4.416500
12
5.400000
22
-2.721455
32
13.359423
13
5.400000
23
-2.721455
33
13.359423
0
3DFACE
8
0
70
0
10
-1.078817
20
-2.841565
30
13.081091
11
1.078817
21
-2.841565
31
13.081091
12
0.750000
22
-3.500000
32
6.816499
13
0.750000
23
-3.500000
33
6.816499
0
3DFACE
8
0
70
0
10
0.750000
20
-3.500000
30
6.816499
11
2.152600
21
-3.500000
31
13.865599
12
2.010900
22
-3.500000
32
4.405722
13
2.010900
23
-3.500000
33
4.405722
0
3DFACE
8
0
70
0
10
-2.010900
20
-3.500000
30
4.405722
11
-0.750000
21
-3.500000
31
6.816499
12
0.750000
22
-3.500000
32
6.816499
13
0.750000
23
-3.500000
33
6.816499
0
3DFACE
8
0
70
0
10
-0.750000
20
-3.500000
30
6.816499
11
-2.010900
21
-3.500000
31
4.405722
12
-2.202600
22
-3.500000
32
13.865599
13
-2.202600
23
-3.500000
33
13.865599
0
3DFACE
8
0
70
0
10
-2.010900
20
-3.500000
30
4.405722
11
-4.980000
21
-2.671605
31
4.416500
12
-5.400000
22
-2.721455
32
13.359423
13
-5.400000
23
-2.721455
33
13.359423
0
3DFACE
8
0
70
0
10
2.010900
20
-3.500000
30
4.405722
11
2.152600
21
-3.500000
31
13.865599
12
5.400000
22
-2.721455
32
13.359423
13
5.400000
23
-2.721455
33
13.359423
0
3DFACE
8
0
70
0
10
-8.150001
20
-1.246914
30
4.416500
11
-8.500000
21
-1.246900
31
12.682499
12
-5.400000
22
-2.721455
32
13.359423
13
-5.400000
23
-2.721455
33
13.359423
0
3DFACE
8
0
70
0
10
-4.980000
20
-2.671605
30
4.416500
11
-2.010900
21
-3.500000
31
4.405722
12
-1.400000
22
-3.000000
32
-1.083500
13
-1.400000
23
-3.000000
33
-1.083500
0
3DFACE
8
0
70
0
10
4.980000
20
-2.671605
30
4.416500
11
3.930000
21
-2.477165
31
-1.083500
12
1.400000
22
-3.000000
32
-1.083500
13
1.400000
23
-3.000000
33
-1.083500
0
3DFACE
8
0
70
0
10
-2.010900
20
-3.500000
30
4.405722
11
2.010900
21
-3.500000
31
4.405722
12
1.400000
22
-3.000000
32
-1.083500
13
1.400000
23
-3.000000
33
-1.083500
0
3DFACE
8
0
70
0
10
-2.504200
20
-1.000000
30
-8.378263
11
-4.000000
21
-1.133333
31
-4.583500
12
-2.704200
22
-1.913800
32
-4.583500
13
-2.704200
23
-1.913800
33
-4.583500
0
3DFACE
8
0
70
0
10
-2.280000
20
-0.697048
30
-11.623500
11
-2.504200
21
-1.000000
31
-8.378263
12
-1.755800
22
-1.302222
32
-8.233500
13
-1.755800
23
-1.302222
33
-8.233500
0
3DFACE
8
0
70
0
10
1.400000
20
-3.000000
30
-1.083500
11
1.100000
21
-2.328767
31
-4.583500
12
-0.900000
22
-2.328767
32
-4.583500
13
-0.900000
23
-2.328767
33
-4.583500
0
3DFACE
8
0
70
0
10
-2.704200
20
-1.913800
30
-4.583500
11
-0.900000
21
-2.328767
31
-4.583500
12
-0.800000
22
-1.500000
32
-8.083500
13
-0.800000
23
-1.500000
33
-8.083500
0
3DFACE
8
0
70
0
10
-1.400000
20
-3.000000
30
-1.083500
11
-0.900000
21
-2.328767
31
-4.583500
12
-2.704200
22
-1.913800
32
-4.583500
13
-2.704200
23
-1.913800
33
-4.583500
0
3DFACE
8
0
70
0
10
-3.930000
20
-2.477165
30
-1.083500
11
-2.704200
21
-1.913800
31
-4.583500
12
-4.000000
22
-1.133333
32
-4.583500
13
-4.000000
23
-1.133333
33
-4.583500
0
3DFACE
8
0
70
0
10
-0.800000
20
-1.500000
30
-8.083500
11
0.200000
21
-1.600000
31
-7.883500
12
-0.020000
22
-1.000018
32
-10.199901
13
-0.020000
23
-1.000018
33
-10.199901
0
3DFACE
8
0
70
0
10
1.955800
20
-0.450000
30
-12.331682
11
1.955779
21
-0.704993
31
-10.199901
12
2.876720
22
-0.550000
32
-10.199901
13
2.876720
23
-0.550000
33
-10.199901
0
3DFACE
8
0
70
0
10
1.000000
20
-1.000000
30
-10.197900
11
1.955779
21
-0.704993
31
-10.199901
12
1.955800
22
-0.450000
32
-12.331682
13
1.955800
23
-0.450000
33
-12.331682
0
3DFACE
8
0
70
0
10
3.930000
20
-2.477165
30
-1.083500
11
6.550000
21
-1.251969
31
-1.083500
12
4.800000
22
-1.139130
32
-4.583500
13
4.800000
23
-1.139130
33
-4.583500
0
3DFACE
8
0
70
0
10
-8.150001
20
-1.246914
30
4.416500
11
-4.980000
21
-2.671605
31
4.416500
12
-3.930000
22
-2.477165
32
-1.083500
13
-3.930000
23
-2.477165
33
-1.083500
0
3DFACE
8
0
70
0
10
4.980000
20
-2.671605
30
4.416500
11
8.300000
21
-1.246914
31
4.416500
12
6.550000
22
-1.251969
32
-1.083500
13
6.550000
23
-1.251969
33
-1.083500
0
3DFACE
8
0
70
0
10
-0.800000
20
-1.500000
30
-8.083500
11
-0.493204
21
-0.979995
31
-11.743500
12
-1.806796
22
-0.979995
32
-11.743500
13
-1.806796
23
-0.979995
33
-11.743500
0
3DFACE
8
0
70
0
10
-0.020000
20
-1.000018
30
-10.199901
11
1.000000
21
-1.000000
31
-10.197900
12
1.000000
22
-0.450000
32
-12.433500
13
1.000000
23
-0.450000
33
-12.433500
0
3DFACE
8
0
70
0
10
1.997211
20
-1.458048
30
-6.900000
11
2.320883
21
-1.387068
31
-6.900000
12
2.150000
22
-1.302200
32
-7.453401
13
2.150000
23
-1.302200
33
-7.453401
0
3DFACE
8
0
70
0
10
2.077778
20
-2.057778
30
-5.464445
11
1.600000
21
-2.099539
31
-4.945832
12
2.142515
22
-1.919270
32
-5.114303
13
2.142515
23
-1.919270
33
-5.114303
0
3DFACE
8
0
70
0
10
0.921917
20
-1.959673
30
-6.058499
11
1.205000
21
-1.958927
31
-6.900000
12
0.922369
22
-1.734365
32
-6.900000
13
0.922369
23
-1.734365
33
-6.900000
0
3DFACE
8
0
70
0
10
2.148250
20
-2.145000
30
-6.400000
11
2.320883
21
-1.700000
31
-6.900000
12
1.995000
22
-1.958927
32
-6.900000
13
1.995000
23
-1.958927
33
-6.900000
0
3DFACE
8
0
70
0
10
2.460000
20
-1.700000
30
-5.580000
11
2.077778
21
-2.057778
31
-5.464445
12
2.142515
22
-1.919270
32
-5.114303
13
2.142515
23
-1.919270
33
-5.114303
0
3DFACE
8
0
70
0
10
2.148250
20
-2.145000
30
-6.400000
11
1.600000
21
-2.240000
31
-5.200000
12
2.077778
22
-2.057778
32
-5.464445
13
2.077778
23
-2.057778
33
-5.464445
0
3DFACE
8
0
70
0
10
1.201628
20
-2.125000
30
-7.550000
11
1.600000
21
-2.360000
31
-6.400000
12
1.600000
22
-2.340000
32
-7.550000
13
1.600000
23
-2.340000
33
-7.550000
0
3DFACE
8
0
70
0
10
1.600000
20
-2.340000
30
-7.550000
11
1.998372
21
-2.125000
31
-6.560002
12
1.998372
22
-2.125000
32
-7.550000
13
1.998372
23
-2.125000
33
-7.550000
0
3DFACE
8
0
70
0
10
4.800000
20
-1.139130
30
-4.583500
11
2.460000
21
-1.700000
31
-5.580000
12
2.704200
22
-1.913800
32
-4.583500
13
2.704200
23
-1.913800
33
-4.583500
0
3DFACE
8
0
70
0
10
2.704200
20
-1.913800
30
-4.583500
11
1.600000
21
-2.099539
31
-4.945832
12
1.100000
22
-2.328767
32
-4.583500
13
1.100000
23
-2.328767
33
-4.583500
0
3DFACE
8
0
70
0
10
1.955779
20
-0.704993
30
-10.199901
11
1.600000
21
-1.150000
31
-8.730000
12
2.150000
22
-1.302200
32
-7.453401
13
2.150000
23
-1.302200
33
-7.453401
0
3DFACE
8
0
70
0
10
1.000000
20
-1.000000
30
-10.197900
11
1.600000
21
-1.150000
31
-8.730000
12
1.600000
22
-0.950000
32
-9.550000
13
1.600000
23
-0.950000
33
-9.550000
0
3DFACE
8
0
70
0
10
1.000000
20
-1.500000
30
-7.683500
11
1.296891
21
-1.325000
31
-8.214323
12
1.000000
22
-1.000000
32
-10.197900
13
1.000000
23
-1.000000
33
-10.197900
0
3DFACE
8
0
70
0
10
0.922369
20
-1.734365
30
-6.900000
11
1.201628
21
-1.484648
31
-7.550000
12
1.000000
22
-1.500000
32
-7.683500
13
1.000000
23
-1.500000
33
-7.683500
0
3DFACE
8
0
70
0
10
1.000000
20
-1.500000
30
-7.683500
11
-0.020000
21
-1.000018
31
-10.199901
12
0.200000
22
-1.600000
32
-7.883500
13
0.200000
23
-1.600000
33
-7.883500
0
3DFACE
8
0
70
0
10
1.400000
20
-3.000000
30
-1.083500
11
2.704200
21
-1.913800
31
-4.583500
12
1.100000
22
-2.328767
32
-4.583500
13
1.100000
23
-2.328767
33
-4.583500
0
3DFACE
8
0
70
0
10
8.300000
20
-1.246914
30
4.416500
11
5.400000
21
-2.721455
31
13.359423
12
8.500000
22
-1.246900
32
12.682499
13
8.500000
23
-1.246900
33
12.682499
0
3DFACE
8
0
70
0
10
-1.078817
20
-2.841565
30
13.081091
11
0.750000
21
-3.500000
31
6.816499
12
-0.750000
22
-3.500000
32
6.816499
13
-0.750000
23
-3.500000
33
6.816499
0
3DFACE
8
0
70
0
10
-2.010900
20
-3.500000
30
4.405722
11
0.750000
21
-3.500000
31
6.816499
12
2.010900
22
-3.500000
32
4.405722
13
2.010900
23
-3.500000
33
4.405722
0
3DFACE
8
0
70
0
10
-2.010900
20
-3.500000
30
4.405722
11
-5.400000
21
-2.721455
31
13.359423
12
-2.202600
22
-3.500000
32
13.865599
13
-2.202600
23
-3.500000
33
13.865599
0
3DFACE
8
0
70
0
10
2.010900
20
-3.500000
30
4.405722
11
5.400000
21
-2.721455
31
13.359423
12
4.980000
22
-2.671605
32
4.416500
13
4.980000
23
-2.671605
33
4.416500
0
3DFACE
8
0
70
0
10
-8.150001
20
-1.246914
30
4.416500
11
-5.400000
21
-2.721455
31
13.359423
12
-4.980000
22
-2.671605
32
4.416500
13
-4.980000
23
-2.671605
33
4.416500
0
3DFACE
8
0
70
0
10
-4.980000
20
-2.671605
30
4.416500
11
-1.400000
21
-3.000000
31
-1.083500
12
-3.930000
22
-2.477165
32
-1.083500
13
-3.930000
23
-2.477165
33
-1.083500
0
3DFACE
8
0
70
0
10
4.980000
20
-2.671605
30
4.416500
11
1.400000
21
-3.000000
31
-1.083500
12
2.010900
22
-3.500000
32
4.405722
13
2.010900
23
-3.500000
33
4.405722
0
3DFACE
8
0
70
0
10
-2.010900
20
-3.500000
30
4.405722
11
1.400000
21
-3.000000
31
-1.083500
12
-1.400000
22
-3.000000
32
-1.083500
13
-1.400000
23
-3.000000
33
-1.083500
0
3DFACE
8
0
70
0
10
-2.504200
20
-1.000000
30
-8.378263
11
-2.704200
21
-1.913800
31
-4.583500
12
-1.755800
22
-1.302222
32
-8.233500
13
-1.755800
23
-1.302222
33
-8.233500
0
3DFACE
8
0
70
0
10
-2.280000
20
-0.697048
30
-11.623500
11
-1.755800
21
-1.302222
31
-8.233500
12
-1.806796
22
-0.979995
32
-11.743500
13
-1.806796
23
-0.979995
33
-11.743500
0
3DFACE
8
0
70
0
10
1.400000
20
-3.000000
30
-1.083500
11
-0.900000
21
-2.328767
31
-4.583500
12
-1.400000
22
-3.000000
32
-1.083500
13
-1.400000
23
-3.000000
33
-1.083500
0
3DFACE
8
0
70
0
10
-2.704200
20
-1.913800
30
-4.583500
11
-0.800000
21
-1.500000
31
-8.083500
12
-1.755800
22
-1.302222
32
-8.233500
13
-1.755800
23
-1.302222
33
-8.233500
0
3DFACE
8
0
70
0
10
-1.400000
20
-3.000000
30
-1.083500
11
-2.704200
21
-1.913800
31
-4.583500
12
-3.930000
22
-2.477165
32
-1.083500
13
-3.930000
23
-2.477165
33
-1.083500
0
3DFACE
8
0
70
0
10
-3.930000
20
-2.477165
30
-1.083500
11
-4.000000
21
-1.133333
31
-4.583500
12
-6.099999
22
-1.251969
32
-1.083500
13
-6.099999
23
-1.251969
33
-1.083500
0
3DFACE
8
0
70
0
10
-0.800000
20
-1.500000
30
-8.083500
11
-0.020000
21
-1.000018
31
-10.199901
12
-0.493204
22
-0.979995
32
-11.743500
13
-0.493204
23
-0.979995
33
-11.743500
0
3DFACE
8
0
70
0
10
1.955800
20
-0.450000
30
-12.331682
11
2.876720
21
-0.550000
31
-10.199901
12
2.450000
22
-0.450000
32
-11.983500
13
2.450000
23
-0.450000
33
-11.983500
0
3DFACE
8
0
70
0
10
1.000000
20
-1.000000
30
-10.197900
11
1.955800
21
-0.450000
31
-12.331682
12
1.000000
22
-0.450000
32
-12.433500
13
1.000000
23
-0.450000
33
-12.433500
0
3DFACE
8
0
70
0
10
3.930000
20
-2.477165
30
-1.083500
11
4.800000
21
-1.139130
31
-4.583500
12
2.704200
22
-1.913800
32
-4.583500
13
2.704200
23
-1.913800
33
-4.583500
0
3DFACE
8
0
70
0
10
-8.150001
20
-1.246914
30
4.416500
11
-3.930000
21
-2.477165
31
-1.083500
12
-6.099999
22
-1.251969
32
-1.083500
13
-6.099999
23
-1.251969
33
-1.083500
0
3DFACE
8
0
70
0
10
4.980000
20
-2.671605
30
4.416500
11
6.550000
21
-1.251969
31
-1.083500
12
3.930000
22
-2.477165
32
-1.083500
13
3.930000
23
-2.477165
33
-1.083500
0
3DFACE
8
0
70
0
10
-0.800000
20
-1.500000
30
-8.083500
11
-1.806796
21
-0.979995
31
-11.743500
12
-1.755800
22
-1.302222
32
-8.233500
13
-1.755800
23
-1.302222
33
-8.233500
0
3DFACE
8
0
70
0
10
-0.020000
20
-1.000018
30
-10.199901
11
1.000000
21
-0.450000
31
-12.433500
12
-0.020000
22
-0.620000
32
-11.983500
13
-0.020000
23
-0.620000
33
-11.983500
0
3DFACE
8
0
70
0
10
1.997211
20
-1.458048
30
-6.900000
11
2.150000
21
-1.302200
31
-7.453401
12
1.998372
22
-1.312848
32
-7.550000
13
1.998372
23
-1.312848
33
-7.550000
0
3DFACE
8
0
70
0
10
1.000000
20
-0.450000
30
-12.433500
11
1.955800
21
-0.450000
31
-12.331682
12
1.955800
22
0.000000
32
-12.571500
13
1.955800
23
0.000000
33
-12.571500
0
3DFACE
8
0
70
0
10
1.955800
20
0.000000
30
-12.571500
11
1.955800
21
-0.450000
31
-12.331682
12
2.450000
22
-0.450000
32
-11.983500
13
2.450000
23
-0.450000
33
-11.983500
0
3DFACE
8
0
70
0
10
1.000000
20
0.000000
30
-12.733500
11
-0.020000
21
-0.000011
31
-12.883500
12
-0.020000
22
-0.620000
32
-11.983500
13
-0.020000
23
-0.620000
33
-11.983500
0
3DFACE
8
0
70
0
10
1.000000
20
0.600000
30
-12.533500
11
1.000000
21
0.000000
31
-12.733500
12
1.955800
22
0.000000
32
-12.571500
13
1.955800
23
0.000000
33
-12.571500
0
3DFACE
8
0
70
0
10
1.000000
20
0.600000
30
-12.533500
11
-0.020000
21
0.599993
31
-12.533500
12
-0.020000
22
-0.000011
32
-12.883500
13
-0.020000
23
-0.000011
33
-12.883500
0
3DFACE
8
0
70
0
10
1.955800
20
0.000000
30
-12.571500
11
2.700000
21
0.000000
31
-11.983500
12
2.450000
22
0.600000
32
-11.983500
13
2.450000
23
0.600000
33
-11.983500
0
3DFACE
8
0
70
0
10
1.000000
20
-0.450000
30
-12.433500
11
1.955800
21
0.000000
31
-12.571500
12
1.000000
22
0.000000
32
-12.733500
13
1.000000
23
0.000000
33
-12.733500
0
3DFACE
8
0
70
0
10
1.955800
20
0.000000
30
-12.571500
11
2.450000
21
-0.450000
31
-11.983500
12
2.700000
22
0.000000
32
-11.983500
13
2.700000
23
0.000000
33
-11.983500
0
3DFACE
8
0
70
0
10
1.000000
20
0.000000
30
-12.733500
11
-0.020000
21
-0.620000
31
-11.983500
12
1.000000
22
-0.450000
32
-12.433500
13
1.000000
23
-0.450000
33
-12.433500
0
3DFACE
8
0
70
0
10
1.000000
20
0.600000
30
-12.533500
11
1.955800
21
0.000000
31
-12.571500
12
1.955800
22
0.600000
32
-12.431682
13
1.955800
23
0.600000
33
-12.431682
0
3DFACE
8
0
70
0
10
1.000000
20
0.600000
30
-12.533500
11
-0.020000
21
-0.000011
31
-12.883500
12
1.000000
22
0.000000
32
-12.733500
13
1.000000
23
0.000000
33
-12.733500
0
3DFACE
8
0
70
0
10
1.955800
20
0.000000
30
-12.571500
11
2.450000
21
0.600000
31
-11.983500
12
1.955800
22
0.600000
32
-12.431682
13
1.955800
23
0.600000
33
-12.431682
0
3DFACE
8
0
70
0
10
-8.150001
20
-1.246914
30
4.416500
11
-9.200000
21
0.000000
31
4.416500
12
-9.450001
22
-0.600000
32
10.916500
13
-9.450001
23
-0.600000
33
10.916500
0
3DFACE
8
0
70
0
10
-9.450001
20
0.600000
30
10.916500
11
-9.200000
21
0.000000
31
4.416500
12
-8.150001
22
1.246914
32
4.416500
13
-8.150001
23
1.246914
33
4.416500
0
3DFACE
8
0
70
0
10
-9.800000
20
0.400000
30
14.016500
11
-9.800000
21
-0.400000
31
14.016500
12
-9.850000
22
0.000000
32
10.916500
13
-9.850000
23
0.000000
33
10.916500
0
3DFACE
8
0
70
0
10
-9.450001
20
0.600000
30
10.916500
11
-8.938729
21
0.897697
31
12.577099
12
-9.800000
22
0.400000
32
14.016500
13
-9.800000
23
0.400000
33
14.016500
0
3DFACE
8
0
70
0
10
-9.450001
20
-0.600000
30
10.916500
11
-9.850000
21
0.000000
31
10.916500
12
-9.800000
22
-0.400000
32
14.016500
13
-9.800000
23
-0.400000
33
14.016500
0
3DFACE
8
0
70
0
10
-4.000000
20
0.933333
30
-4.583500
11
-5.100000
21
0.000000
31
-4.583500
12
-3.500000
22
0.000000
32
-8.583500
13
-3.500000
23
0.000000
33
-8.583500
0
3DFACE
8
0
70
0
10
-2.600000
20
0.000000
30
-12.083500
11
-2.280000
21
-0.620000
31
-11.983500
12
-2.280000
22
-0.000014
32
-12.476789
13
-2.280000
23
-0.000014
33
-12.476789
0
3DFACE
8
0
70
0
10
-2.600000
20
0.000000
30
-12.083500
11
-2.280000
21
-0.000014
31
-12.476789
12
-2.280000
22
0.700000
32
-12.283500
13
-2.280000
23
0.700000
33
-12.283500
0
3DFACE
8
0
70
0
10
-8.500000
20
1.246900
30
12.682499
11
-8.938729
21
0.897697
31
12.577099
12
-9.450001
22
0.600000
32
10.916500
13
-9.450001
23
0.600000
33
10.916500
0
3DFACE
8
0
70
0
10
-8.500000
20
-1.246900
30
12.682499
11
-9.450001
21
-0.600000
31
10.916500
12
-8.938729
22
-0.897697
32
12.577099
13
-8.938729
23
-0.897697
33
12.577099
0
3DFACE
8
0
70
0
10
-9.850000
20
0.000000
30
10.916500
11
-9.200000
21
0.000000
31
4.416500
12
-9.450001
22
0.600000
32
10.916500
13
-9.450001
23
0.600000
33
10.916500
0
3DFACE
8
0
70
0
10
-9.850000
20
0.000000
30
10.916500
11
-9.450001
21
-0.600000
31
10.916500
12
-9.200000
22
0.000000
32
4.416500
13
-9.200000
23
0.000000
33
4.416500
0
3DFACE
8
0
70
0
10
-2.280000
20
-0.620000
30
-11.983500
11
-2.600000
21
0.000000
31
-12.083500
12
-2.975840
22
0.000000
32
-11.383500
13
-2.975840
23
0.000000
33
-11.383500
0
3DFACE
8
0
70
0
10
-2.975840
20
0.000000
30
-11.383500
11
-3.119086
21
0.000000
31
-10.199901
12
-2.280000
22
-0.697048
32
-11.623500
13
-2.280000
23
-0.697048
33
-11.623500
0
3DFACE
8
0
70
0
10
-2.975840
20
0.000000
30
-11.383500
11
-2.280000
21
-0.697048
31
-11.623500
12
-2.280000
22
-0.620000
32
-11.983500
13
-2.280000
23
-0.620000
33
-11.983500
0
3DFACE
8
0
70
0
10
-6.099999
20
-1.251969
30
-1.083500
11
-7.350000
21
0.000000
31
-1.083500
12
-9.200000
22
0.000000
32
4.416500
13
-9.200000
23
0.000000
33
4.416500
0
3DFACE
8
0
70
0
10
-6.099999
20
-1.251969
30
-1.083500
11
-4.000000
21
-1.133333
31
-4.583500
12
-5.100000
22
0.000000
32
-4.583500
13
-5.100000
23
0.000000
33
-4.583500
0
3DFACE
8
0
70
0
10
-5.100000
20
0.000000
30
-4.583500
11
-4.000000
21
-1.133333
31
-4.583500
12
-2.504200
22
-1.000000
32
-8.378263
13
-2.504200
23
-1.000000
33
-8.378263
0
3DFACE
8
0
70
0
10
-3.500000
20
0.000000
30
-8.583500
11
-2.504200
21
-1.000000
31
-8.378263
12
-2.280000
22
-0.697048
32
-11.623500
13
-2.280000
23
-0.697048
33
-11.623500
0
3DFACE
8
0
70
0
10
-2.280000
20
0.788998
30
-9.943493
11
-3.119086
21
0.000000
31
-10.199901
12
-2.975840
22
0.000000
32
-11.383500
13
-2.975840
23
0.000000
33
-11.383500
0
3DFACE
8
0
70
0
10
-2.280000
20
0.750002
30
-11.643500
11
-2.975840
21
0.000000
31
-11.383500
12
-2.600000
22
0.000000
32
-12.083500
13
-2.600000
23
0.000000
33
-12.083500
0
3DFACE
8
0
70
0
10
-3.500000
20
0.000000
30
-8.583500
11
-3.119086
21
0.000000
31
-10.199901
12
-2.280000
22
0.788998
32
-9.943493
13
-2.280000
23
0.788998
33
-9.943493
0
3DFACE
8
0
70
0
10
-6.099999
20
1.251969
30
-1.083500
11
-7.350000
21
0.000000
31
-1.083500
12
-5.100000
22
0.000000
32
-4.583500
13
-5.100000
23
0.000000
33
-4.583500
0
3DFACE
8
0
70
0
10
-6.099999
20
1.251969
30
-1.083500
11
-8.150001
21
1.246914
31
4.416500
12
-9.200000
22
0.000000
32
4.416500
13
-9.200000
23
0.000000
33
4.416500
0
3DFACE
8
0
70
0
10
-9.450001
20
0.600000
30
10.916500
11
-9.800000
21
0.400000
31
14.016500
12
-9.850000
22
0.000000
32
10.916500
13
-9.850000
23
0.000000
33
10.916500
0
3DFACE
8
0
70
0
10
-9.450001
20
-0.600000
30
10.916500
11
-9.800000
21
-0.400000
31
14.016500
12
-8.938729
22
-0.897697
32
12.577099
13
-8.938729
23
-0.897697
33
12.577099
0
3DFACE
8
0
70
0
10
-4.000000
20
0.933333
30
-4.583500
11
-3.500000
21
0.000000
31
-8.583500
12
-3.100000
22
0.600000
32
-8.583500
13
-3.100000
23
0.600000
33
-8.583500
0
3DFACE
8
0
70
0
10
-6.099999
20
-1.251969
30
-1.083500
11
-9.200000
21
0.000000
31
4.416500
12
-8.150001
22
-1.246914
32
4.416500
13
-8.150001
23
-1.246914
33
4.416500
0
3DFACE
8
0
70
0
10
-6.099999
20
-1.251969
30
-1.083500
11
-5.100000
21
0.000000
31
-4.583500
12
-7.350000
22
0.000000
32
-1.083500
13
-7.350000
23
0.000000
33
-1.083500
0
3DFACE
8
0
70
0
10
-5.100000
20
0.000000
30
-4.583500
11
-2.504200
21
-1.000000
31
-8.378263
12
-3.500000
22
0.000000
32
-8.583500
13
-3.500000
23
0.000000
33
-8.583500
0
3DFACE
8
0
70
0
10
-3.500000
20
0.000000
30
-8.583500
11
-2.280000
21
-0.697048
31
-11.623500
12
-3.119086
22
0.000000
32
-10.199901
13
-3.119086
23
0.000000
33
-10.199901
0
3DFACE
8
0
70
0
10
-2.280000
20
0.788998
30
-9.943493
11
-2.975840
21
0.000000
31
-11.383500
12
-2.280000
22
0.750002
32
-11.643500
13
-2.280000
23
0.750002
33
-11.643500
0
3DFACE
8
0
70
0
10
-2.280000
20
0.750002
30
-11.643500
11
-2.600000
21
0.000000
31
-12.083500
12
-2.280000
22
0.700000
32
-12.283500
13
-2.280000
23
0.700000
33
-12.283500
0
3DFACE
8
0
70
0
10
-3.500000
20
0.000000
30
-8.583500
11
-2.280000
21
0.788998
31
-9.943493
12
-3.100000
22
0.600000
32
-8.583500
13
-3.100000
23
0.600000
33
-8.583500
0
3DFACE
8
0
70
0
10
-6.099999
20
1.251969
30
-1.083500
11
-5.100000
21
0.000000
31
-4.583500
12
-4.000000
22
0.933333
32
-4.583500
13
-4.000000
23
0.933333
33
-4.583500
0
3DFACE
8
0
70
0
10
-6.099999
20
1.251969
30
-1.083500
11
-9.200000
21
0.000000
31
4.416500
12
-7.350000
22
0.000000
32
-1.083500
13
-7.350000
23
0.000000
33
-1.083500
0
3DFACE
8
0
70
0
10
8.300000
20
1.246914
30
4.416500
11
9.150000
21
0.000000
31
4.416500
12
9.450001
22
0.600000
32
10.916500
13
9.450001
23
0.600000
33
10.916500
0
3DFACE
8
0
70
0
10
9.450001
20
-0.600000
30
10.916500
11
9.150000
21
0.000000
31
4.416500
12
8.300000
22
-1.246914
32
4.416500
13
8.300000
23
-1.246914
33
4.416500
0
3DFACE
8
0
70
0
10
9.800000
20
0.400000
30
14.016500
11
9.850000
21
0.000000
31
10.916500
12
9.800000
22
-0.400000
32
14.016500
13
9.800000
23
-0.400000
33
14.016500
0
3DFACE
8
0
70
0
10
9.450001
20
0.600000
30
10.916500
11
9.850000
21
0.000000
31
10.916500
12
9.800000
22
0.400000
32
14.016500
13
9.800000
23
0.400000
33
14.016500
0
3DFACE
8
0
70
0
10
9.450001
20
-0.600000
30
10.916500
11
8.938729
21
-0.897697
31
12.577099
12
9.800000
22
-0.400000
32
14.016500
13
9.800000
23
-0.400000
33
14.016500
0
3DFACE
8
0
70
0
10
3.068971
20
0.000000
30
-11.183500
11
2.700000
21
0.000000
31
-11.983500
12
2.450000
22
-0.450000
32
-11.983500
13
2.450000
23
-0.450000
33
-11.983500
0
3DFACE
8
0
70
0
10
3.068971
20
0.000000
30
-11.183500
11
2.450000
21
-0.450000
31
-11.983500
12
2.876720
22
-0.550000
32
-10.199901
13
2.876720
23
-0.550000
33
-10.199901
0
3DFACE
8
0
70
0
10
2.876720
20
-0.550000
30
-10.199901
11
3.226720
21
0.000000
31
-10.199901
12
3.068971
22
0.000000
32
-11.183500
13
3.068971
23
0.000000
33
-11.183500
0
3DFACE
8
0
70
0
10
8.500000
20
1.246900
30
12.682499
11
9.450001
21
0.600000
31
10.916500
12
8.938729
22
0.897697
32
12.577099
13
8.938729
23
0.897697
33
12.577099
0
3DFACE
8
0
70
0
10
8.500000
20
-1.246900
30
12.682499
11
8.938729
21
-0.897697
31
12.577099
12
9.450001
22
-0.600000
32
10.916500
13
9.450001
23
-0.600000
33
10.916500
0
3DFACE
8
0
70
0
10
9.850000
20
0.000000
30
10.916500
11
9.450001
21
0.600000
31
10.916500
12
9.150000
22
0.000000
32
4.416500
13
9.150000
23
0.000000
33
4.416500
0
3DFACE
8
0
70
0
10
9.850000
20
0.000000
30
10.916500
11
9.150000
21
0.000000
31
4.416500
12
9.450001
22
-0.600000
32
10.916500
13
9.450001
23
-0.600000
33
10.916500
0
3DFACE
8
0
70
0
10
3.600000
20
-0.600000
30
-7.183500
11
4.100000
21
0.000000
31
-7.133501
12
3.226720
22
0.000000
32
-10.199901
13
3.226720
23
0.000000
33
-10.199901
0
3DFACE
8
0
70
0
10
6.550000
20
-1.251969
30
-1.083500
11
8.300000
21
-1.246914
31
4.416500
12
9.150000
22
0.000000
32
4.416500
13
9.150000
23
0.000000
33
4.416500
0
3DFACE
8
0
70
0
10
6.550000
20
-1.251969
30
-1.083500
11
7.550000
21
0.000000
31
-1.083500
12
5.750000
22
0.000000
32
-4.583500
13
5.750000
23
0.000000
33
-4.583500
0
3DFACE
8
0
70
0
10
4.100000
20
0.000000
30
-7.133501
11
3.600000
21
-0.600000
31
-7.183500
12
4.800000
22
-1.139130
32
-4.583500
13
4.800000
23
-1.139130
33
-4.583500
0
3DFACE
8
0
70
0
10
2.876720
20
0.600000
30
-10.199901
11
2.669000
21
0.600000
31
-11.143500
12
3.068971
22
0.000000
32
-11.183500
13
3.068971
23
0.000000
33
-11.183500
0
3DFACE
8
0
70
0
10
2.669000
20
0.600000
30
-11.143500
11
2.450000
21
0.600000
31
-11.983500
12
2.700000
22
0.000000
32
-11.983500
13
2.700000
23
0.000000
33
-11.983500
0
3DFACE
8
0
70
0
10
3.600000
20
0.600000
30
-7.083500
11
2.876720
21
0.600000
31
-10.199901
12
3.226720
22
0.000000
32
-10.199901
13
3.226720
23
0.000000
33
-10.199901
0
3DFACE
8
0
70
0
10
4.100000
20
0.000000
30
-7.133501
11
5.750000
21
0.000000
31
-4.583500
12
4.800000
22
0.939130
32
-4.583500
13
4.800000
23
0.939130
33
-4.583500
0
3DFACE
8
0
70
0
10
5.750000
20
0.000000
30
-4.583500
11
7.550000
21
0.000000
31
-1.083500
12
6.550000
22
1.151969
32
-1.083500
13
6.550000
23
1.151969
33
-1.083500
0
3DFACE
8
0
70
0
10
8.300000
20
1.246914
30
4.416500
11
6.550000
21
1.151969
31
-1.083500
12
7.550000
22
0.000000
32
-1.083500
13
7.550000
23
0.000000
33
-1.083500
0
3DFACE
8
0
70
0
10
9.450001
20
0.600000
30
10.916500
11
9.800000
21
0.400000
31
14.016500
12
8.938729
22
0.897697
32
12.577099
13
8.938729
23
0.897697
33
12.577099
0
3DFACE
8
0
70
0
10
9.450001
20
-0.600000
30
10.916500
11
9.800000
21
-0.400000
31
14.016500
12
9.850000
22
0.000000
32
10.916500
13
9.850000
23
0.000000
33
10.916500
0
3DFACE
8
0
70
0
10
3.600000
20
-0.600000
30
-7.183500
11
3.226720
21
0.000000
31
-10.199901
12
2.876720
22
-0.550000
32
-10.199901
13
2.876720
23
-0.550000
33
-10.199901
0
3DFACE
8
0
70
0
10
6.550000
20
-1.251969
30
-1.083500
11
9.150000
21
0.000000
31
4.416500
12
7.550000
22
0.000000
32
-1.083500
13
7.550000
23
0.000000
33
-1.083500
0
3DFACE
8
0
70
0
10
6.550000
20
-1.251969
30
-1.083500
11
5.750000
21
0.000000
31
-4.583500
12
4.800000
22
-1.139130
32
-4.583500
13
4.800000
23
-1.139130
33
-4.583500
0
3DFACE
8
0
70
0
10
4.100000
20
0.000000
30
-7.133501
11
4.800000
21
-1.139130
31
-4.583500
12
5.750000
22
0.000000
32
-4.583500
13
5.750000
23
0.000000
33
-4.583500
0
3DFACE
8
0
70
0
10
2.876720
20
0.600000
30
-10.199901
11
3.068971
21
0.000000
31
-11.183500
12
3.226720
22
0.000000
32
-10.199901
13
3.226720
23
0.000000
33
-10.199901
0
3DFACE
8
0
70
0
10
2.669000
20
0.600000
30
-11.143500
11
2.700000
21
0.000000
31
-11.983500
12
3.068971
22
0.000000
32
-11.183500
13
3.068971
23
0.000000
33
-11.183500
0
3DFACE
8
0
70
0
10
3.600000
20
0.600000
30
-7.083500
11
3.226720
21
0.000000
31
-10.199901
12
4.100000
22
0.000000
32
-7.133501
13
4.100000
23
0.000000
33
-7.133501
0
3DFACE
8
0
70
0
10
4.100000
20
0.000000
30
-7.133501
11
4.800000
21
0.939130
31
-4.583500
12
3.600000
22
0.600000
32
-7.083500
13
3.600000
23
0.600000
33
-7.083500
0
3DFACE
8
0
70
0
10
5.750000
20
0.000000
30
-4.583500
11
6.550000
21
1.151969
31
-1.083500
12
4.800000
22
0.939130
32
-4.583500
13
4.800000
23
0.939130
33
-4.583500
0
3DFACE
8
0
70
0
10
8.300000
20
1.246914
30
4.416500
11
7.550000
21
0.000000
31
-1.083500
12
9.150000
22
0.000000
32
4.416500
13
9.150000
23
0.000000
33
4.416500
0
3DFACE
8
0
70
0
10
-8.150001
20
1.246914
30
4.416500
11
-8.500000
21
1.246900
31
12.682499
12
-9.450001
22
0.600000
32
10.916500
13
-9.450001
23
0.600000
33
10.916500
0
3DFACE
8
0
70
0
10
9.450001
20
0.600000
30
10.916500
11
8.500000
21
1.246900
31
12.682499
12
8.300000
22
1.246914
32
4.416500
13
8.300000
23
1.246914
33
4.416500
0
3DFACE
8
0
70
0
10
-3.100000
20
0.600000
30
-8.583500
11
-2.280000
21
1.093903
31
-8.383488
12
-4.000000
22
0.933333
32
-4.583500
13
-4.000000
23
0.933333
33
-4.583500
0
3DFACE
8
0
70
0
10
0.750000
20
3.500000
30
6.816499
11
2.152600
21
3.500000
31
13.865599
12
1.078817
22
2.841565
32
13.081091
13
1.078817
23
2.841565
33
13.081091
0
3DFACE
8
0
70
0
10
-2.202600
20
3.500000
30
13.865599
11
-0.750000
21
3.500000
31
6.816499
12
-1.078817
22
2.841565
32
13.081091
13
-1.078817
23
2.841565
33
13.081091
0
3DFACE
8
0
70
0
10
0.750000
20
3.500000
30
6.816499
11
2.010900
21
3.500000
31
4.405722
12
2.152600
22
3.500000
32
13.865599
13
2.152600
23
3.500000
33
13.865599
0
3DFACE
8
0
70
0
10
-1.078817
20
2.841565
30
13.081091
11
-0.750000
21
3.500000
31
6.816499
12
0.750000
22
3.500000
32
6.816499
13
0.750000
23
3.500000
33
6.816499
0
3DFACE
8
0
70
0
10
8.300000
20
1.246914
30
4.416500
11
8.500000
21
1.246900
31
12.682499
12
5.400000
22
2.721455
32
13.359423
13
5.400000
23
2.721455
33
13.359423
0
3DFACE
8
0
70
0
10
-2.010900
20
3.500000
30
4.405722
11
2.010900
21
3.500000
31
4.405722
12
0.750000
22
3.500000
32
6.816499
13
0.750000
23
3.500000
33
6.816499
0
3DFACE
8
0
70
0
10
-0.750000
20
3.500000
30
6.816499
11
-2.202600
21
3.500000
31
13.865599
12
-2.010900
22
3.500000
32
4.405722
13
-2.010900
23
3.500000
33
4.405722
0
3DFACE
8
0
70
0
10
-2.010900
20
3.500000
30
4.405722
11
-2.202600
21
3.500000
31
13.865599
12
-5.400000
22
2.721455
32
13.359423
13
-5.400000
23
2.721455
33
13.359423
0
3DFACE
8
0
70
0
10
2.010900
20
3.500000
30
4.405722
11
4.980000
21
2.671605
31
4.416500
12
5.400000
22
2.721455
32
13.359423
13
5.400000
23
2.721455
33
13.359423
0
3DFACE
8
0
70
0
10
-8.150001
20
1.246914
30
4.416500
11
-4.980000
21
2.671605
31
4.416500
12
-5.400000
22
2.721455
32
13.359423
13
-5.400000
23
2.721455
33
13.359423
0
3DFACE
8
0
70
0
10
-0.020000
20
0.647093
30
-11.143500
11
1.000007
21
0.647093
31
-11.183500
12
1.000000
22
0.704993
32
-10.199901
13
1.000000
23
0.704993
33
-10.199901
0
3DFACE
8
0
70
0
10
1.000007
20
0.647093
30
-11.183500
11
1.955800
21
0.647093
31
-11.143500
12
1.955779
22
0.704993
32
-10.199901
13
1.955779
23
0.704993
33
-10.199901
0
3DFACE
8
0
70
0
10
-0.020000
20
0.647093
30
-11.143500
11
-0.020000
21
0.599993
31
-11.983500
12
1.000000
22
0.600000
32
-11.983500
13
1.000000
23
0.600000
33
-11.983500
0
3DFACE
8
0
70
0
10
-3.930000
20
2.477165
30
-1.083500
11
-2.704200
21
1.518300
31
-4.583500
12
-1.933333
22
2.110454
32
-4.883501
13
-1.933333
23
2.110454
33
-4.883501
0
3DFACE
8
0
70
0
10
-3.930000
20
2.477165
30
-1.083500
11
-1.800000
21
2.683332
31
-3.083500
12
-0.400000
22
2.730400
32
-3.083500
13
-0.400000
23
2.730400
33
-3.083500
0
3DFACE
8
0
70
0
10
-0.400000
20
3.000000
30
-1.083500
11
-0.400000
21
2.730400
31
-3.083500
12
-0.266667
22
2.442225
32
-4.883501
13
-0.266667
23
2.442225
33
-4.883501
0
3DFACE
8
0
70
0
10
1.000000
20
0.704993
30
-10.199901
11
1.000000
21
1.649317
31
-7.192058
12
-0.020000
22
1.548282
32
-8.383500
13
-0.020000
23
1.548282
33
-8.383500
0
3DFACE
8
0
70
0
10
1.955779
20
0.704993
30
-10.199901
11
1.955800
21
0.647093
31
-11.143500
12
2.669000
22
0.600000
32
-11.143500
13
2.669000
23
0.600000
33
-11.143500
0
3DFACE
8
0
70
0
10
1.000000
20
0.600000
30
-11.983500
11
1.955800
21
0.600000
31
-11.983500
12
1.955800
22
0.647093
32
-11.143500
13
1.955800
23
0.647093
33
-11.143500
0
3DFACE
8
0
70
0
10
2.669000
20
0.600000
30
-11.143500
11
1.955800
21
0.647093
31
-11.143500
12
1.955800
22
0.600000
32
-11.983500
13
1.955800
23
0.600000
33
-11.983500
0
3DFACE
8
0
70
0
10
0.000000
20
2.502910
30
-4.583500
11
-0.266667
21
2.442225
31
-4.883501
12
-0.020000
22
1.548282
32
-8.383500
13
-0.020000
23
1.548282
33
-8.383500
0
3DFACE
8
0
70
0
10
-4.000000
20
0.933333
30
-4.583500
11
-2.280000
21
1.093903
31
-8.383488
12
-1.933333
22
2.110454
32
-4.883501
13
-1.933333
23
2.110454
33
-4.883501
0
3DFACE
8
0
70
0
10
0.000000
20
2.502910
30
-4.583500
11
-0.020000
21
1.548282
31
-8.383500
12
1.000000
22
1.649317
32
-7.192058
13
1.000000
23
1.649317
33
-7.192058
0
3DFACE
8
0
70
0
10
1.400000
20
3.000000
30
-1.083500
11
-0.400000
21
3.000000
31
-1.083500
12
0.000000
22
2.502910
32
-4.583500
13
0.000000
23
2.502910
33
-4.583500
0
3DFACE
8
0
70
0
10
2.150012
20
0.933771
30
-7.083500
11
1.000000
21
1.649317
31
-7.192058
12
1.000000
22
0.704993
32
-10.199901
13
1.000000
23
0.704993
33
-10.199901
0
3DFACE
8
0
70
0
10
1.100000
20
2.276260
30
-4.583500
11
1.000000
21
1.649317
31
-7.192058
12
2.150012
22
0.933771
32
-7.083500
13
2.150012
23
0.933771
33
-7.083500
0
3DFACE
8
0
70
0
10
1.000000
20
0.600000
30
-12.533500
11
1.955800
21
0.600000
31
-12.431682
12
1.955800
22
0.600000
32
-11.983500
13
1.955800
23
0.600000
33
-11.983500
0
3DFACE
8
0
70
0
10
1.955800
20
0.600000
30
-11.983500
11
1.955800
21
0.600000
31
-12.431682
12
2.450000
22
0.600000
32
-11.983500
13
2.450000
23
0.600000
33
-11.983500
0
3DFACE
8
0
70
0
10
1.000000
20
0.600000
30
-12.533500
11
1.000000
21
0.600000
31
-11.983500
12
-0.020000
22
0.599993
32
-11.983500
13
-0.020000
23
0.599993
33
-11.983500
0
3DFACE
8
0
70
0
10
-4.980000
20
2.671605
30
4.416500
11
-3.930000
21
2.477165
31
-1.083500
12
-0.400000
22
3.000000
32
-1.083500
13
-0.400000
23
3.000000
33
-1.083500
0
3DFACE
8
0
70
0
10
4.980000
20
2.671605
30
4.416500
11
2.010900
21
3.500000
31
4.405722
12
1.400000
22
3.000000
32
-1.083500
13
1.400000
23
3.000000
33
-1.083500
0
3DFACE
8
0
70
0
10
2.010900
20
3.500000
30
4.405722
11
-2.010900
21
3.500000
31
4.405722
12
-0.400000
22
3.000000
32
-1.083500
13
-0.400000
23
3.000000
33
-1.083500
0
3DFACE
8
0
70
0
10
-4.980000
20
2.671605
30
4.416500
11
-8.150001
21
1.246914
31
4.416500
12
-6.099999
22
1.251969
32
-1.083500
13
-6.099999
23
1.251969
33
-1.083500
0
3DFACE
8
0
70
0
10
8.300000
20
1.246914
30
4.416500
11
4.980000
21
2.671605
31
4.416500
12
3.930000
22
2.077165
32
-1.083500
13
3.930000
23
2.077165
33
-1.083500
0
3DFACE
8
0
70
0
10
-2.280000
20
1.093903
30
-8.383488
11
-3.100000
21
0.600000
31
-8.583500
12
-2.280000
22
0.788998
32
-9.943493
13
-2.280000
23
0.788998
33
-9.943493
0
3DFACE
8
0
70
0
10
-3.930000
20
2.477165
30
-1.083500
11
-6.099999
21
1.251969
31
-1.083500
12
-4.000000
22
0.933333
32
-4.583500
13
-4.000000
23
0.933333
33
-4.583500
0
3DFACE
8
0
70
0
10
1.400000
20
3.000000
30
-1.083500
11
1.100000
21
2.276260
31
-4.583500
12
2.704200
22
1.376800
32
-4.583500
13
2.704200
23
1.376800
33
-4.583500
0
3DFACE
8
0
70
0
10
2.704200
20
1.376800
30
-4.583500
11
2.150012
21
0.933771
31
-7.083500
12
3.600000
22
0.600000
32
-7.083500
13
3.600000
23
0.600000
33
-7.083500
0
3DFACE
8
0
70
0
10
3.930000
20
2.077165
30
-1.083500
11
2.704200
21
1.376800
31
-4.583500
12
4.800000
22
0.939130
32
-4.583500
13
4.800000
23
0.939130
33
-4.583500
0
3DFACE
8
0
70
0
10
3.600000
20
0.600000
30
-7.083500
11
2.150012
21
0.933771
31
-7.083500
12
1.955779
22
0.704993
32
-10.199901
13
1.955779
23
0.704993
33
-10.199901
0
3DFACE
8
0
70
0
10
-1.078817
20
2.841565
30
13.081091
11
0.750000
21
3.500000
31
6.816499
12
1.078817
22
2.841565
32
13.081091
13
1.078817
23
2.841565
33
13.081091
0
3DFACE
8
0
70
0
10
8.300000
20
1.246914
30
4.416500
11
5.400000
21
2.721455
31
13.359423
12
4.980000
22
2.671605
32
4.416500
13
4.980000
23
2.671605
33
4.416500
0
3DFACE
8
0
70
0
10
-2.010900
20
3.500000
30
4.405722
11
0.750000
21
3.500000
31
6.816499
12
-0.750000
22
3.500000
32
6.816499
13
-0.750000
23
3.500000
33
6.816499
0
3DFACE
8
0
70
0
10
-2.010900
20
3.500000
30
4.405722
11
-5.400000
21
2.721455
31
13.359423
12
-4.980000
22
2.671605
32
4.416500
13
-4.980000
23
2.671605
33
4.416500
0
3DFACE
8
0
70
0
10
2.010900
20
3.500000
30
4.405722
11
5.400000
21
2.721455
31
13.359423
12
2.152600
22
3.500000
32
13.865599
13
2.152600
23
3.500000
33
13.865599
0
3DFACE
8
0
70
0
10
-8.150001
20
1.246914
30
4.416500
11
-5.400000
21
2.721455
31
13.359423
12
-8.500000
22
1.246900
32
12.682499
13
-8.500000
23
1.246900
33
12.682499
0
3DFACE
8
0
70
0
10
-0.020000
20
0.647093
30
-11.143500
11
1.000000
21
0.704993
31
-10.199901
12
-0.020000
22
0.760521
32
-9.943501
13
-0.020000
23
0.760521
33
-9.943501
0
3DFACE
8
0
70
0
10
1.000007
20
0.647093
30
-11.183500
11
1.955779
21
0.704993
31
-10.199901
12
1.000000
22
0.704993
32
-10.199901
13
1.000000
23
0.704993
33
-10.199901
0
3DFACE
8
0
70
0
10
-0.020000
20
0.647093
30
-11.143500
11
1.000000
21
0.600000
31
-11.983500
12
1.000007
22
0.647093
32
-11.183500
13
1.000007
23
0.647093
33
-11.183500
0
3DFACE
8
0
70
0
10
-3.930000
20
2.477165
30
-1.083500
11
-1.933333
21
2.110454
31
-4.883501
12
-1.800000
22
2.683332
32
-3.083500
13
-1.800000
23
2.683332
33
-3.083500
0
3DFACE
8
0
70
0
10
-3.930000
20
2.477165
30
-1.083500
11
-0.400000
21
2.730400
31
-3.083500
12
-0.400000
22
3.000000
32
-1.083500
13
-0.400000
23
3.000000
33
-1.083500
0
3DFACE
8
0
70
0
10
-0.400000
20
3.000000
30
-1.083500
11
-0.266667
21
2.442225
31
-4.883501
12
0.000000
22
2.502910
32
-4.583500
13
0.000000
23
2.502910
33
-4.583500
0
3DFACE
8
0
70
0
10
1.000000
20
0.704993
30
-10.199901
11
-0.020000
21
1.548282
31
-8.383500
12
-0.020000
22
0.760521
32
-9.943501
13
-0.020000
23
0.760521
33
-9.943501
0
3DFACE
8
0
70
0
10
1.955779
20
0.704993
30
-10.199901
11
2.669000
21
0.600000
31
-11.143500
12
2.876720
22
0.600000
32
-10.199901
13
2.876720
23
0.600000
33
-10.199901
0
3DFACE
8
0
70
0
10
1.000000
20
0.600000
30
-11.983500
11
1.955800
21
0.647093
31
-11.143500
12
1.000007
22
0.647093
32
-11.183500
13
1.000007
23
0.647093
33
-11.183500
0
3DFACE
8
0
70
0
10
2.669000
20
0.600000
30
-11.143500
11
1.955800
21
0.600000
31
-11.983500
12
2.450000
22
0.600000
32
-11.983500
13
2.450000
23
0.600000
33
-11.983500
0
3DFACE
8
0
70
0
10
-4.000000
20
0.933333
30
-4.583500
11
-1.933333
21
2.110454
31
-4.883501
12
-2.704200
22
1.518300
32
-4.583500
13
-2.704200
23
1.518300
33
-4.583500
0
3DFACE
8
0
70
0
10
0.000000
20
2.502910
30
-4.583500
11
1.000000
21
1.649317
31
-7.192058
12
1.100000
22
2.276260
32
-4.583500
13
1.100000
23
2.276260
33
-4.583500
0
3DFACE
8
0
70
0
10
1.400000
20
3.000000
30
-1.083500
11
0.000000
21
2.502910
31
-4.583500
12
1.100000
22
2.276260
32
-4.583500
13
1.100000
23
2.276260
33
-4.583500
0
3DFACE
8
0
70
0
10
2.150012
20
0.933771
30
-7.083500
11
1.000000
21
0.704993
31
-10.199901
12
1.955779
22
0.704993
32
-10.199901
13
1.955779
23
0.704993
33
-10.199901
0
3DFACE
8
0
70
0
10
1.100000
20
2.276260
30
-4.583500
11
2.150012
21
0.933771
31
-7.083500
12
2.704200
22
1.376800
32
-4.583500
13
2.704200
23
1.376800
33
-4.583500
0
3DFACE
8
0
70
0
10
1.000000
20
0.600000
30
-12.533500
11
1.955800
21
0.600000
31
-11.983500
12
1.000000
22
0.600000
32
-11.983500
13
1.000000
23
0.600000
33
-11.983500
0
3DFACE
8
0
70
0
10
1.000000
20
0.600000
30
-12.533500
11
-0.020000
21
0.599993
31
-11.983500
12
-0.020000
22
0.599993
32
-12.533500
13
-0.020000
23
0.599993
33
-12.533500
0
3DFACE
8
0
70
0
10
-4.980000
20
2.671605
30
4.416500
11
-0.400000
21
3.000000
31
-1.083500
12
-2.010900
22
3.500000
32
4.405722
13
-2.010900
23
3.500000
33
4.405722
0
3DFACE
8
0
70
0
10
4.980000
20
2.671605
30
4.416500
11
1.400000
21
3.000000
31
-1.083500
12
3.930000
22
2.077165
32
-1.083500
13
3.930000
23
2.077165
33
-1.083500
0
3DFACE
8
0
70
0
10
2.010900
20
3.500000
30
4.405722
11
-0.400000
21
3.000000
31
-1.083500
12
1.400000
22
3.000000
32
-1.083500
13
1.400000
23
3.000000
33
-1.083500
0
3DFACE
8
0
70
0
10
-4.980000
20
2.671605
30
4.416500
11
-6.099999
21
1.251969
31
-1.083500
12
-3.930000
22
2.477165
32
-1.083500
13
-3.930000
23
2.477165
33
-1.083500
0
3DFACE
8
0
70
0
10
8.300000
20
1.246914
30
4.416500
11
3.930000
21
2.077165
31
-1.083500
12
6.550000
22
1.151969
32
-1.083500
13
6.550000
23
1.151969
33
-1.083500
0
3DFACE
8
0
70
0
10
-3.930000
20
2.477165
30
-1.083500
11
-4.000000
21
0.933333
31
-4.583500
12
-2.704200
22
1.518300
32
-4.583500
13
-2.704200
23
1.518300
33
-4.583500
0
3DFACE
8
0
70
0
10
1.400000
20
3.000000
30
-1.083500
11
2.704200
21
1.376800
31
-4.583500
12
3.930000
22
2.077165
32
-1.083500
13
3.930000
23
2.077165
33
-1.083500
0
3DFACE
8
0
70
0
10
2.704200
20
1.376800
30
-4.583500
11
3.600000
21
0.600000
31
-7.083500
12
4.800000
22
0.939130
32
-4.583500
13
4.800000
23
0.939130
33
-4.583500
0
3DFACE
8
0
70
0
10
3.930000
20
2.077165
30
-1.083500
11
4.800000
21
0.939130
31
-4.583500
12
6.550000
22
1.151969
32
-1.083500
13
6.550000
23
1.151969
33
-1.083500
0
3DFACE
8
0
70
0
10
3.600000
20
0.600000
30
-7.083500
11
1.955779
21
0.704993
31
-10.199901
12
2.876720
22
0.600000
32
-10.199901
13
2.876720
23
0.600000
33
-10.199901
0
ENDSEC
0
EOF
